%TF.GenerationSoftware,KiCad,Pcbnew,8.0.0-1.fc39*%
%TF.CreationDate,2024-03-15T22:49:02+01:00*%
%TF.ProjectId,pulsarPCB,70756c73-6172-4504-9342-2e6b69636164,rev?*%
%TF.SameCoordinates,Original*%
%TF.FileFunction,Paste,Top*%
%TF.FilePolarity,Positive*%
%FSLAX46Y46*%
G04 Gerber Fmt 4.6, Leading zero omitted, Abs format (unit mm)*
G04 Created by KiCad (PCBNEW 8.0.0-1.fc39) date 2024-03-15 22:49:02*
%MOMM*%
%LPD*%
G01*
G04 APERTURE LIST*
G04 Aperture macros list*
%AMRoundRect*
0 Rectangle with rounded corners*
0 $1 Rounding radius*
0 $2 $3 $4 $5 $6 $7 $8 $9 X,Y pos of 4 corners*
0 Add a 4 corners polygon primitive as box body*
4,1,4,$2,$3,$4,$5,$6,$7,$8,$9,$2,$3,0*
0 Add four circle primitives for the rounded corners*
1,1,$1+$1,$2,$3*
1,1,$1+$1,$4,$5*
1,1,$1+$1,$6,$7*
1,1,$1+$1,$8,$9*
0 Add four rect primitives between the rounded corners*
20,1,$1+$1,$2,$3,$4,$5,0*
20,1,$1+$1,$4,$5,$6,$7,0*
20,1,$1+$1,$6,$7,$8,$9,0*
20,1,$1+$1,$8,$9,$2,$3,0*%
G04 Aperture macros list end*
%ADD10RoundRect,0.218750X-0.218750X-0.256250X0.218750X-0.256250X0.218750X0.256250X-0.218750X0.256250X0*%
%ADD11RoundRect,0.225000X0.250000X-0.225000X0.250000X0.225000X-0.250000X0.225000X-0.250000X-0.225000X0*%
%ADD12RoundRect,0.225000X0.225000X0.250000X-0.225000X0.250000X-0.225000X-0.250000X0.225000X-0.250000X0*%
%ADD13RoundRect,0.225000X-0.250000X0.225000X-0.250000X-0.225000X0.250000X-0.225000X0.250000X0.225000X0*%
%ADD14RoundRect,0.250000X0.325000X0.650000X-0.325000X0.650000X-0.325000X-0.650000X0.325000X-0.650000X0*%
%ADD15RoundRect,0.250000X-0.312500X-0.625000X0.312500X-0.625000X0.312500X0.625000X-0.312500X0.625000X0*%
%ADD16RoundRect,0.250000X0.650000X-0.325000X0.650000X0.325000X-0.650000X0.325000X-0.650000X-0.325000X0*%
%ADD17RoundRect,0.200000X-0.200000X-0.275000X0.200000X-0.275000X0.200000X0.275000X-0.200000X0.275000X0*%
%ADD18RoundRect,0.250000X-0.850000X-0.350000X0.850000X-0.350000X0.850000X0.350000X-0.850000X0.350000X0*%
%ADD19RoundRect,0.250000X-1.275000X-1.125000X1.275000X-1.125000X1.275000X1.125000X-1.275000X1.125000X0*%
%ADD20RoundRect,0.200000X0.200000X0.275000X-0.200000X0.275000X-0.200000X-0.275000X0.200000X-0.275000X0*%
%ADD21R,0.950000X0.500000*%
%ADD22RoundRect,0.250000X0.312500X0.625000X-0.312500X0.625000X-0.312500X-0.625000X0.312500X-0.625000X0*%
%ADD23RoundRect,0.200000X-0.275000X0.200000X-0.275000X-0.200000X0.275000X-0.200000X0.275000X0.200000X0*%
%ADD24RoundRect,0.250000X1.000000X-1.400000X1.000000X1.400000X-1.000000X1.400000X-1.000000X-1.400000X0*%
%ADD25RoundRect,0.150000X-0.150000X0.512500X-0.150000X-0.512500X0.150000X-0.512500X0.150000X0.512500X0*%
%ADD26RoundRect,0.150000X0.512500X0.150000X-0.512500X0.150000X-0.512500X-0.150000X0.512500X-0.150000X0*%
%ADD27RoundRect,0.150000X-0.512500X-0.150000X0.512500X-0.150000X0.512500X0.150000X-0.512500X0.150000X0*%
%ADD28RoundRect,0.200000X0.275000X-0.200000X0.275000X0.200000X-0.275000X0.200000X-0.275000X-0.200000X0*%
%ADD29RoundRect,0.250000X-0.450000X0.262500X-0.450000X-0.262500X0.450000X-0.262500X0.450000X0.262500X0*%
%ADD30R,1.000000X0.520000*%
%ADD31R,1.000000X0.270000*%
%ADD32RoundRect,0.150000X-0.587500X-0.150000X0.587500X-0.150000X0.587500X0.150000X-0.587500X0.150000X0*%
%ADD33RoundRect,0.250000X-0.375000X-0.625000X0.375000X-0.625000X0.375000X0.625000X-0.375000X0.625000X0*%
%ADD34RoundRect,0.250000X-0.325000X-0.650000X0.325000X-0.650000X0.325000X0.650000X-0.325000X0.650000X0*%
%ADD35RoundRect,0.250000X-0.362500X-1.425000X0.362500X-1.425000X0.362500X1.425000X-0.362500X1.425000X0*%
%ADD36RoundRect,0.375000X-0.625000X-0.375000X0.625000X-0.375000X0.625000X0.375000X-0.625000X0.375000X0*%
%ADD37RoundRect,0.500000X-0.500000X-1.400000X0.500000X-1.400000X0.500000X1.400000X-0.500000X1.400000X0*%
G04 APERTURE END LIST*
D10*
%TO.C,D8*%
X182987500Y-60800000D03*
X184562500Y-60800000D03*
%TD*%
%TO.C,D6*%
X199412500Y-59400000D03*
X200987500Y-59400000D03*
%TD*%
%TO.C,D5*%
X261333267Y-63200000D03*
X262908267Y-63200000D03*
%TD*%
%TO.C,D4*%
X206612500Y-59400000D03*
X208187500Y-59400000D03*
%TD*%
D11*
%TO.C,C20*%
X155600000Y-36575000D03*
X155600000Y-35025000D03*
%TD*%
D12*
%TO.C,C19*%
X157275000Y-27500000D03*
X155725000Y-27500000D03*
%TD*%
D13*
%TO.C,C15*%
X168200000Y-27625000D03*
X168200000Y-29175000D03*
%TD*%
%TO.C,C14*%
X166600000Y-27625000D03*
X166600000Y-29175000D03*
%TD*%
%TO.C,C27*%
X172132500Y-57455000D03*
X172132500Y-59005000D03*
%TD*%
D12*
%TO.C,C9*%
X255500000Y-20000000D03*
X253950000Y-20000000D03*
%TD*%
D14*
%TO.C,C4*%
X228475000Y-30000000D03*
X225525000Y-30000000D03*
%TD*%
D15*
%TO.C,R4*%
X179037500Y-38500000D03*
X181962500Y-38500000D03*
%TD*%
D16*
%TO.C,C23*%
X185988485Y-58075000D03*
X185988485Y-55125000D03*
%TD*%
D17*
%TO.C,R9*%
X257175000Y-20000000D03*
X258825000Y-20000000D03*
%TD*%
D18*
%TO.C,Q3*%
X193000000Y-47245000D03*
D19*
X197625000Y-48000000D03*
X197625000Y-51050000D03*
X200975000Y-48000000D03*
X200975000Y-51050000D03*
D18*
X193000000Y-51805000D03*
%TD*%
D17*
%TO.C,R11*%
X168750000Y-45000000D03*
X170400000Y-45000000D03*
%TD*%
D20*
%TO.C,R33*%
X263825000Y-20000000D03*
X262175000Y-20000000D03*
%TD*%
D10*
%TO.C,D11*%
X159825000Y-23400000D03*
X161400000Y-23400000D03*
%TD*%
D12*
%TO.C,C6*%
X177175000Y-45200000D03*
X175625000Y-45200000D03*
%TD*%
D21*
%TO.C,D12*%
X154200000Y-39200000D03*
X154200000Y-40500000D03*
X156150000Y-39850000D03*
%TD*%
D22*
%TO.C,R5*%
X181962500Y-36000000D03*
X179037500Y-36000000D03*
%TD*%
D23*
%TO.C,R20*%
X190500000Y-48675000D03*
X190500000Y-50325000D03*
%TD*%
D24*
%TO.C,D3*%
X234100000Y-48500000D03*
X240900000Y-48500000D03*
%TD*%
D16*
%TO.C,C3*%
X186025000Y-32475000D03*
X186025000Y-29525000D03*
%TD*%
D17*
%TO.C,R6*%
X175675000Y-29000000D03*
X177325000Y-29000000D03*
%TD*%
D15*
%TO.C,R23*%
X185537500Y-49000000D03*
X188462500Y-49000000D03*
%TD*%
D25*
%TO.C,U2*%
X180950000Y-29862500D03*
X180000000Y-29862500D03*
X179050000Y-29862500D03*
X179050000Y-32137500D03*
X180000000Y-32137500D03*
X180950000Y-32137500D03*
%TD*%
D16*
%TO.C,C24*%
X188400000Y-58075000D03*
X188400000Y-55125000D03*
%TD*%
D26*
%TO.C,U4*%
X174637500Y-27450000D03*
X174637500Y-26500000D03*
X174637500Y-25550000D03*
X172362500Y-25550000D03*
X172362500Y-26500000D03*
X172362500Y-27450000D03*
%TD*%
D27*
%TO.C,U3*%
X181225000Y-52000000D03*
X181225000Y-52950000D03*
X181225000Y-53900000D03*
X183500000Y-53900000D03*
X183500000Y-52950000D03*
X183500000Y-52000000D03*
%TD*%
D28*
%TO.C,R42*%
X159800000Y-51625000D03*
X159800000Y-49975000D03*
%TD*%
D29*
%TO.C,R49*%
X144800000Y-35487500D03*
X144800000Y-37312500D03*
%TD*%
D20*
%TO.C,R8*%
X258825000Y-18500000D03*
X257175000Y-18500000D03*
%TD*%
D23*
%TO.C,R53*%
X150600000Y-30975000D03*
X150600000Y-32625000D03*
%TD*%
D16*
%TO.C,C30*%
X153000000Y-22275000D03*
X153000000Y-19325000D03*
%TD*%
D17*
%TO.C,R27*%
X168950000Y-57400000D03*
X170600000Y-57400000D03*
%TD*%
D11*
%TO.C,C26*%
X144800000Y-40550000D03*
X144800000Y-39000000D03*
%TD*%
D23*
%TO.C,R43*%
X163400000Y-42375000D03*
X163400000Y-44025000D03*
%TD*%
D30*
%TO.C,J7*%
X150175000Y-20670000D03*
X150175000Y-21420000D03*
D31*
X150175000Y-22020000D03*
X150175000Y-23520000D03*
X150175000Y-24520000D03*
X150175000Y-25520000D03*
D30*
X150175000Y-26120000D03*
X150175000Y-26870000D03*
X150175000Y-26870000D03*
X150175000Y-26120000D03*
D31*
X150175000Y-25020000D03*
X150175000Y-24020000D03*
X150175000Y-23020000D03*
X150175000Y-22520000D03*
D30*
X150175000Y-21420000D03*
X150175000Y-20670000D03*
%TD*%
D32*
%TO.C,Q4*%
X179125000Y-48050000D03*
X179125000Y-49950000D03*
X181000000Y-49000000D03*
%TD*%
D17*
%TO.C,R48*%
X145350000Y-33600000D03*
X147000000Y-33600000D03*
%TD*%
D28*
%TO.C,R40*%
X161800000Y-44025000D03*
X161800000Y-42375000D03*
%TD*%
D12*
%TO.C,C5*%
X177200000Y-43400000D03*
X175650000Y-43400000D03*
%TD*%
D20*
%TO.C,R28*%
X170600000Y-59030000D03*
X168950000Y-59030000D03*
%TD*%
D28*
%TO.C,R1*%
X176500000Y-27325000D03*
X176500000Y-25675000D03*
%TD*%
%TO.C,R52*%
X149000000Y-32625000D03*
X149000000Y-30975000D03*
%TD*%
D33*
%TO.C,F1*%
X185100000Y-41000000D03*
X187900000Y-41000000D03*
%TD*%
D22*
%TO.C,R24*%
X188462500Y-46500000D03*
X185537500Y-46500000D03*
%TD*%
D18*
%TO.C,Q2*%
X193000000Y-38380000D03*
D19*
X197625000Y-39135000D03*
X197625000Y-42185000D03*
X200975000Y-39135000D03*
X200975000Y-42185000D03*
D18*
X193000000Y-42940000D03*
%TD*%
D24*
%TO.C,D7*%
X234100000Y-41500000D03*
X240900000Y-41500000D03*
%TD*%
D34*
%TO.C,C21*%
X154025000Y-25500000D03*
X156975000Y-25500000D03*
%TD*%
D28*
%TO.C,R26*%
X177175000Y-49825000D03*
X177175000Y-48175000D03*
%TD*%
D35*
%TO.C,R3*%
X234037500Y-34500000D03*
X239962500Y-34500000D03*
%TD*%
D36*
%TO.C,U5*%
X157850000Y-31700000D03*
X157850000Y-34000000D03*
D37*
X164150000Y-34000000D03*
D36*
X157850000Y-36300000D03*
%TD*%
D28*
%TO.C,R19*%
X190675000Y-40325000D03*
X190675000Y-38675000D03*
%TD*%
%TO.C,R41*%
X158200000Y-51625000D03*
X158200000Y-49975000D03*
%TD*%
D17*
%TO.C,R34*%
X262175000Y-18500000D03*
X263825000Y-18500000D03*
%TD*%
M02*
