%TF.GenerationSoftware,KiCad,Pcbnew,8.0.0-1.fc39*%
%TF.CreationDate,2024-03-15T22:49:02+01:00*%
%TF.ProjectId,pulsarPCB,70756c73-6172-4504-9342-2e6b69636164,rev?*%
%TF.SameCoordinates,Original*%
%TF.FileFunction,Paste,Bot*%
%TF.FilePolarity,Positive*%
%FSLAX46Y46*%
G04 Gerber Fmt 4.6, Leading zero omitted, Abs format (unit mm)*
G04 Created by KiCad (PCBNEW 8.0.0-1.fc39) date 2024-03-15 22:49:02*
%MOMM*%
%LPD*%
G01*
G04 APERTURE LIST*
G04 Aperture macros list*
%AMRoundRect*
0 Rectangle with rounded corners*
0 $1 Rounding radius*
0 $2 $3 $4 $5 $6 $7 $8 $9 X,Y pos of 4 corners*
0 Add a 4 corners polygon primitive as box body*
4,1,4,$2,$3,$4,$5,$6,$7,$8,$9,$2,$3,0*
0 Add four circle primitives for the rounded corners*
1,1,$1+$1,$2,$3*
1,1,$1+$1,$4,$5*
1,1,$1+$1,$6,$7*
1,1,$1+$1,$8,$9*
0 Add four rect primitives between the rounded corners*
20,1,$1+$1,$2,$3,$4,$5,0*
20,1,$1+$1,$4,$5,$6,$7,0*
20,1,$1+$1,$6,$7,$8,$9,0*
20,1,$1+$1,$8,$9,$2,$3,0*%
G04 Aperture macros list end*
%ADD10RoundRect,0.225000X0.225000X0.375000X-0.225000X0.375000X-0.225000X-0.375000X0.225000X-0.375000X0*%
%ADD11RoundRect,0.225000X-0.225000X-0.250000X0.225000X-0.250000X0.225000X0.250000X-0.225000X0.250000X0*%
%ADD12RoundRect,0.200000X0.275000X-0.200000X0.275000X0.200000X-0.275000X0.200000X-0.275000X-0.200000X0*%
%ADD13RoundRect,0.250000X-0.325000X-0.650000X0.325000X-0.650000X0.325000X0.650000X-0.325000X0.650000X0*%
%ADD14R,0.400000X0.750000*%
%ADD15R,0.530000X0.400000*%
%ADD16R,2.450000X2.400000*%
%ADD17RoundRect,0.218750X0.218750X0.256250X-0.218750X0.256250X-0.218750X-0.256250X0.218750X-0.256250X0*%
%ADD18RoundRect,0.225000X0.250000X-0.225000X0.250000X0.225000X-0.250000X0.225000X-0.250000X-0.225000X0*%
%ADD19RoundRect,0.200000X0.200000X0.275000X-0.200000X0.275000X-0.200000X-0.275000X0.200000X-0.275000X0*%
%ADD20RoundRect,0.225000X0.225000X0.250000X-0.225000X0.250000X-0.225000X-0.250000X0.225000X-0.250000X0*%
%ADD21RoundRect,0.250000X0.325000X0.650000X-0.325000X0.650000X-0.325000X-0.650000X0.325000X-0.650000X0*%
%ADD22RoundRect,0.250000X0.262500X0.450000X-0.262500X0.450000X-0.262500X-0.450000X0.262500X-0.450000X0*%
%ADD23RoundRect,0.218750X0.256250X-0.218750X0.256250X0.218750X-0.256250X0.218750X-0.256250X-0.218750X0*%
%ADD24RoundRect,0.218750X-0.256250X0.218750X-0.256250X-0.218750X0.256250X-0.218750X0.256250X0.218750X0*%
%ADD25RoundRect,0.200000X-0.200000X-0.275000X0.200000X-0.275000X0.200000X0.275000X-0.200000X0.275000X0*%
%ADD26RoundRect,0.125000X-0.125000X0.625000X-0.125000X-0.625000X0.125000X-0.625000X0.125000X0.625000X0*%
%ADD27RoundRect,0.125000X-0.625000X0.125000X-0.625000X-0.125000X0.625000X-0.125000X0.625000X0.125000X0*%
%ADD28RoundRect,0.250000X0.295000X0.295000X-0.295000X0.295000X-0.295000X-0.295000X0.295000X-0.295000X0*%
%ADD29RoundRect,0.062500X0.350000X0.062500X-0.350000X0.062500X-0.350000X-0.062500X0.350000X-0.062500X0*%
%ADD30RoundRect,0.062500X0.062500X0.350000X-0.062500X0.350000X-0.062500X-0.350000X0.062500X-0.350000X0*%
%ADD31RoundRect,0.200000X-0.275000X0.200000X-0.275000X-0.200000X0.275000X-0.200000X0.275000X0.200000X0*%
G04 APERTURE END LIST*
D10*
%TO.C,D10*%
X150400000Y-30600000D03*
X147100000Y-30600000D03*
%TD*%
D11*
%TO.C,C10*%
X167725000Y-34200000D03*
X169275000Y-34200000D03*
%TD*%
%TO.C,C28*%
X263000000Y-19500000D03*
X264550000Y-19500000D03*
%TD*%
D12*
%TO.C,R51*%
X150425000Y-46825000D03*
X150425000Y-45175000D03*
%TD*%
D13*
%TO.C,C13*%
X167025000Y-37200000D03*
X169975000Y-37200000D03*
%TD*%
D14*
%TO.C,Q5*%
X143400000Y-35400000D03*
X144050000Y-35400000D03*
X144700000Y-35400000D03*
X145350000Y-35400000D03*
D15*
X142875000Y-36925000D03*
D16*
X144375000Y-37625000D03*
D15*
X145875000Y-36925000D03*
X142885000Y-36925000D03*
D16*
X144375000Y-37625000D03*
D15*
X145865000Y-36925000D03*
X142875000Y-36925000D03*
D16*
X144375000Y-37625000D03*
D15*
X145875000Y-36925000D03*
X142875000Y-36925000D03*
D16*
X144375000Y-37625000D03*
D15*
X145875000Y-36925000D03*
%TD*%
D12*
%TO.C,R22*%
X178825000Y-53825000D03*
X178825000Y-52175000D03*
%TD*%
D17*
%TO.C,R2*%
X145687500Y-23600000D03*
X144112500Y-23600000D03*
%TD*%
D11*
%TO.C,C11*%
X167725000Y-40700000D03*
X169275000Y-40700000D03*
%TD*%
D18*
%TO.C,C29*%
X152400000Y-36375000D03*
X152400000Y-34825000D03*
%TD*%
D19*
%TO.C,R7*%
X184325000Y-29500000D03*
X182675000Y-29500000D03*
%TD*%
%TO.C,R46*%
X152425000Y-51600000D03*
X150775000Y-51600000D03*
%TD*%
D14*
%TO.C,Q1*%
X144757500Y-33750000D03*
X144107500Y-33750000D03*
X143457500Y-33750000D03*
X142807500Y-33750000D03*
D15*
X145282500Y-32225000D03*
D16*
X143782500Y-31525000D03*
D15*
X142282500Y-32225000D03*
X145272500Y-32225000D03*
D16*
X143782500Y-31525000D03*
D15*
X142292500Y-32225000D03*
X145282500Y-32225000D03*
D16*
X143782500Y-31525000D03*
D15*
X142282500Y-32225000D03*
X145282500Y-32225000D03*
D16*
X143782500Y-31525000D03*
D15*
X142282500Y-32225000D03*
%TD*%
D20*
%TO.C,C17*%
X238125000Y-59650000D03*
X236575000Y-59650000D03*
%TD*%
D21*
%TO.C,C7*%
X181150000Y-25600000D03*
X178200000Y-25600000D03*
%TD*%
D19*
%TO.C,R47*%
X152425000Y-53200000D03*
X150775000Y-53200000D03*
%TD*%
D22*
%TO.C,R13*%
X228262500Y-62650000D03*
X226437500Y-62650000D03*
%TD*%
D21*
%TO.C,C8*%
X181150000Y-28000000D03*
X178200000Y-28000000D03*
%TD*%
D19*
%TO.C,R14*%
X238275000Y-65150000D03*
X236625000Y-65150000D03*
%TD*%
D20*
%TO.C,C16*%
X228125000Y-59650000D03*
X226575000Y-59650000D03*
%TD*%
D11*
%TO.C,C31*%
X152200000Y-30800000D03*
X153750000Y-30800000D03*
%TD*%
D18*
%TO.C,C33*%
X150800000Y-36375000D03*
X150800000Y-34825000D03*
%TD*%
%TO.C,C32*%
X149200000Y-36375000D03*
X149200000Y-34825000D03*
%TD*%
D23*
%TO.C,D9*%
X153207500Y-21367500D03*
X153207500Y-19792500D03*
%TD*%
D24*
%TO.C,D1*%
X259520000Y-25232500D03*
X259520000Y-26807500D03*
%TD*%
D25*
%TO.C,R45*%
X150775000Y-48400000D03*
X152425000Y-48400000D03*
%TD*%
D19*
%TO.C,R18*%
X257650000Y-64500000D03*
X256000000Y-64500000D03*
%TD*%
D25*
%TO.C,R21*%
X178500000Y-56000000D03*
X180150000Y-56000000D03*
%TD*%
D19*
%TO.C,R12*%
X228175000Y-65150000D03*
X226525000Y-65150000D03*
%TD*%
D25*
%TO.C,R10*%
X154775000Y-32400000D03*
X156425000Y-32400000D03*
%TD*%
D11*
%TO.C,C12*%
X167725000Y-39200000D03*
X169275000Y-39200000D03*
%TD*%
D26*
%TO.C,U1*%
X166525000Y-42825000D03*
X167325000Y-42825000D03*
X168125000Y-42825000D03*
X168925000Y-42825000D03*
X169725000Y-42825000D03*
X170525000Y-42825000D03*
X171325000Y-42825000D03*
X172125000Y-42825000D03*
D27*
X173500000Y-44200000D03*
X173500000Y-45000000D03*
X173500000Y-45800000D03*
X173500000Y-46600000D03*
X173500000Y-47400000D03*
X173500000Y-48200000D03*
X173500000Y-49000000D03*
X173500000Y-49800000D03*
D26*
X172125000Y-51175000D03*
X171325000Y-51175000D03*
X170525000Y-51175000D03*
X169725000Y-51175000D03*
X168925000Y-51175000D03*
X168125000Y-51175000D03*
X167325000Y-51175000D03*
X166525000Y-51175000D03*
D27*
X165150000Y-49800000D03*
X165150000Y-49000000D03*
X165150000Y-48200000D03*
X165150000Y-47400000D03*
X165150000Y-46600000D03*
X165150000Y-45800000D03*
X165150000Y-45000000D03*
X165150000Y-44200000D03*
%TD*%
D19*
%TO.C,R16*%
X248175000Y-65150000D03*
X246525000Y-65150000D03*
%TD*%
D20*
%TO.C,C18*%
X248125000Y-59650000D03*
X246575000Y-59650000D03*
%TD*%
D28*
%TO.C,U6*%
X150312500Y-39175000D03*
X150312500Y-40525000D03*
X148962500Y-39175000D03*
X148962500Y-40525000D03*
D29*
X151600000Y-38600000D03*
X151600000Y-39100000D03*
X151600000Y-39600000D03*
X151600000Y-40100000D03*
X151600000Y-40600000D03*
X151600000Y-41100000D03*
D30*
X150887500Y-41812500D03*
X150387500Y-41812500D03*
X149887500Y-41812500D03*
X149387500Y-41812500D03*
X148887500Y-41812500D03*
X148387500Y-41812500D03*
D29*
X147675000Y-41100000D03*
X147675000Y-40600000D03*
X147675000Y-40100000D03*
X147675000Y-39600000D03*
X147675000Y-39100000D03*
X147675000Y-38600000D03*
D30*
X148387500Y-37887500D03*
X148887500Y-37887500D03*
X149387500Y-37887500D03*
X149887500Y-37887500D03*
X150387500Y-37887500D03*
X150887500Y-37887500D03*
%TD*%
D19*
%TO.C,R30*%
X176625000Y-20000000D03*
X174975000Y-20000000D03*
%TD*%
%TO.C,R36*%
X180625000Y-61400000D03*
X178975000Y-61400000D03*
%TD*%
D25*
%TO.C,R29*%
X199375000Y-57600000D03*
X201025000Y-57600000D03*
%TD*%
%TO.C,R31*%
X161575000Y-19800000D03*
X163225000Y-19800000D03*
%TD*%
D31*
%TO.C,R37*%
X173500000Y-36675000D03*
X173500000Y-38325000D03*
%TD*%
D25*
%TO.C,R50*%
X144375000Y-42000000D03*
X146025000Y-42000000D03*
%TD*%
D22*
%TO.C,R17*%
X248262500Y-62650000D03*
X246437500Y-62650000D03*
%TD*%
D31*
%TO.C,R38*%
X172500000Y-32675000D03*
X172500000Y-34325000D03*
%TD*%
%TO.C,R32*%
X164800000Y-51575000D03*
X164800000Y-53225000D03*
%TD*%
D25*
%TO.C,R44*%
X150775000Y-50000000D03*
X152425000Y-50000000D03*
%TD*%
%TO.C,R35*%
X206575000Y-57600000D03*
X208225000Y-57600000D03*
%TD*%
D22*
%TO.C,R15*%
X238262500Y-62650000D03*
X236437500Y-62650000D03*
%TD*%
D12*
%TO.C,R25*%
X176325000Y-33825000D03*
X176325000Y-32175000D03*
%TD*%
D19*
%TO.C,R39*%
X149825000Y-23600000D03*
X148175000Y-23600000D03*
%TD*%
M02*
