%TF.GenerationSoftware,KiCad,Pcbnew,8.0.0-1.fc39*%
%TF.CreationDate,2024-03-15T22:49:02+01:00*%
%TF.ProjectId,pulsarPCB,70756c73-6172-4504-9342-2e6b69636164,rev?*%
%TF.SameCoordinates,Original*%
%TF.FileFunction,Legend,Top*%
%TF.FilePolarity,Positive*%
%FSLAX46Y46*%
G04 Gerber Fmt 4.6, Leading zero omitted, Abs format (unit mm)*
G04 Created by KiCad (PCBNEW 8.0.0-1.fc39) date 2024-03-15 22:49:02*
%MOMM*%
%LPD*%
G01*
G04 APERTURE LIST*
%ADD10C,0.100000*%
%ADD11C,0.250000*%
%ADD12C,0.150000*%
%ADD13C,2.050000*%
%ADD14C,1.000000*%
%ADD15C,0.000000*%
%ADD16C,0.120000*%
G04 APERTURE END LIST*
D10*
X212957419Y-28166666D02*
X212957419Y-28642856D01*
X212957419Y-28642856D02*
X211957419Y-28642856D01*
X212957419Y-27309523D02*
X212957419Y-27880951D01*
X212957419Y-27595237D02*
X211957419Y-27595237D01*
X211957419Y-27595237D02*
X212100276Y-27690475D01*
X212100276Y-27690475D02*
X212195514Y-27785713D01*
X212195514Y-27785713D02*
X212243133Y-27880951D01*
D11*
X216316853Y-18464619D02*
X216316853Y-17464619D01*
X216316853Y-17464619D02*
X217840663Y-17464619D01*
X217840663Y-17464619D02*
X218221615Y-17512238D01*
X218221615Y-17512238D02*
X218412092Y-17559857D01*
X218412092Y-17559857D02*
X218602568Y-17655095D01*
X218602568Y-17655095D02*
X218602568Y-17797952D01*
X218602568Y-17797952D02*
X218412092Y-17893190D01*
X218412092Y-17893190D02*
X218221615Y-17940809D01*
X218221615Y-17940809D02*
X217840663Y-17988428D01*
X217840663Y-17988428D02*
X216316853Y-17988428D01*
X220316853Y-17464619D02*
X220316853Y-18274142D01*
X220316853Y-18274142D02*
X220507330Y-18369380D01*
X220507330Y-18369380D02*
X220697806Y-18417000D01*
X220697806Y-18417000D02*
X221078758Y-18464619D01*
X221078758Y-18464619D02*
X221840663Y-18464619D01*
X221840663Y-18464619D02*
X222221615Y-18417000D01*
X222221615Y-18417000D02*
X222412092Y-18369380D01*
X222412092Y-18369380D02*
X222602568Y-18274142D01*
X222602568Y-18274142D02*
X222602568Y-17464619D01*
X226412091Y-18464619D02*
X224507329Y-18464619D01*
X224507329Y-18464619D02*
X224507329Y-17464619D01*
X227554948Y-18417000D02*
X228126377Y-18464619D01*
X228126377Y-18464619D02*
X229078758Y-18464619D01*
X229078758Y-18464619D02*
X229459710Y-18417000D01*
X229459710Y-18417000D02*
X229650186Y-18369380D01*
X229650186Y-18369380D02*
X229840663Y-18274142D01*
X229840663Y-18274142D02*
X229840663Y-18178904D01*
X229840663Y-18178904D02*
X229650186Y-18083666D01*
X229650186Y-18083666D02*
X229459710Y-18036047D01*
X229459710Y-18036047D02*
X229078758Y-17988428D01*
X229078758Y-17988428D02*
X228316853Y-17940809D01*
X228316853Y-17940809D02*
X227935901Y-17893190D01*
X227935901Y-17893190D02*
X227745424Y-17845571D01*
X227745424Y-17845571D02*
X227554948Y-17750333D01*
X227554948Y-17750333D02*
X227554948Y-17655095D01*
X227554948Y-17655095D02*
X227745424Y-17559857D01*
X227745424Y-17559857D02*
X227935901Y-17512238D01*
X227935901Y-17512238D02*
X228316853Y-17464619D01*
X228316853Y-17464619D02*
X229269234Y-17464619D01*
X229269234Y-17464619D02*
X229840663Y-17512238D01*
X231364472Y-18178904D02*
X233269234Y-18178904D01*
X230983520Y-18464619D02*
X232316853Y-17464619D01*
X232316853Y-17464619D02*
X233650187Y-18464619D01*
X237269234Y-18464619D02*
X235935900Y-17988428D01*
X234983519Y-18464619D02*
X234983519Y-17464619D01*
X234983519Y-17464619D02*
X236507329Y-17464619D01*
X236507329Y-17464619D02*
X236888281Y-17512238D01*
X236888281Y-17512238D02*
X237078758Y-17559857D01*
X237078758Y-17559857D02*
X237269234Y-17655095D01*
X237269234Y-17655095D02*
X237269234Y-17797952D01*
X237269234Y-17797952D02*
X237078758Y-17893190D01*
X237078758Y-17893190D02*
X236888281Y-17940809D01*
X236888281Y-17940809D02*
X236507329Y-17988428D01*
X236507329Y-17988428D02*
X234983519Y-17988428D01*
D12*
X183036905Y-59824819D02*
X183036905Y-58824819D01*
X183036905Y-58824819D02*
X183275000Y-58824819D01*
X183275000Y-58824819D02*
X183417857Y-58872438D01*
X183417857Y-58872438D02*
X183513095Y-58967676D01*
X183513095Y-58967676D02*
X183560714Y-59062914D01*
X183560714Y-59062914D02*
X183608333Y-59253390D01*
X183608333Y-59253390D02*
X183608333Y-59396247D01*
X183608333Y-59396247D02*
X183560714Y-59586723D01*
X183560714Y-59586723D02*
X183513095Y-59681961D01*
X183513095Y-59681961D02*
X183417857Y-59777200D01*
X183417857Y-59777200D02*
X183275000Y-59824819D01*
X183275000Y-59824819D02*
X183036905Y-59824819D01*
X184179762Y-59253390D02*
X184084524Y-59205771D01*
X184084524Y-59205771D02*
X184036905Y-59158152D01*
X184036905Y-59158152D02*
X183989286Y-59062914D01*
X183989286Y-59062914D02*
X183989286Y-59015295D01*
X183989286Y-59015295D02*
X184036905Y-58920057D01*
X184036905Y-58920057D02*
X184084524Y-58872438D01*
X184084524Y-58872438D02*
X184179762Y-58824819D01*
X184179762Y-58824819D02*
X184370238Y-58824819D01*
X184370238Y-58824819D02*
X184465476Y-58872438D01*
X184465476Y-58872438D02*
X184513095Y-58920057D01*
X184513095Y-58920057D02*
X184560714Y-59015295D01*
X184560714Y-59015295D02*
X184560714Y-59062914D01*
X184560714Y-59062914D02*
X184513095Y-59158152D01*
X184513095Y-59158152D02*
X184465476Y-59205771D01*
X184465476Y-59205771D02*
X184370238Y-59253390D01*
X184370238Y-59253390D02*
X184179762Y-59253390D01*
X184179762Y-59253390D02*
X184084524Y-59301009D01*
X184084524Y-59301009D02*
X184036905Y-59348628D01*
X184036905Y-59348628D02*
X183989286Y-59443866D01*
X183989286Y-59443866D02*
X183989286Y-59634342D01*
X183989286Y-59634342D02*
X184036905Y-59729580D01*
X184036905Y-59729580D02*
X184084524Y-59777200D01*
X184084524Y-59777200D02*
X184179762Y-59824819D01*
X184179762Y-59824819D02*
X184370238Y-59824819D01*
X184370238Y-59824819D02*
X184465476Y-59777200D01*
X184465476Y-59777200D02*
X184513095Y-59729580D01*
X184513095Y-59729580D02*
X184560714Y-59634342D01*
X184560714Y-59634342D02*
X184560714Y-59443866D01*
X184560714Y-59443866D02*
X184513095Y-59348628D01*
X184513095Y-59348628D02*
X184465476Y-59301009D01*
X184465476Y-59301009D02*
X184370238Y-59253390D01*
D11*
X182752381Y-63049619D02*
X182752381Y-62049619D01*
X183704762Y-63049619D02*
X183704762Y-62049619D01*
X183704762Y-62049619D02*
X184847619Y-63049619D01*
X184847619Y-63049619D02*
X184847619Y-62049619D01*
D12*
X199461905Y-58424819D02*
X199461905Y-57424819D01*
X199461905Y-57424819D02*
X199700000Y-57424819D01*
X199700000Y-57424819D02*
X199842857Y-57472438D01*
X199842857Y-57472438D02*
X199938095Y-57567676D01*
X199938095Y-57567676D02*
X199985714Y-57662914D01*
X199985714Y-57662914D02*
X200033333Y-57853390D01*
X200033333Y-57853390D02*
X200033333Y-57996247D01*
X200033333Y-57996247D02*
X199985714Y-58186723D01*
X199985714Y-58186723D02*
X199938095Y-58281961D01*
X199938095Y-58281961D02*
X199842857Y-58377200D01*
X199842857Y-58377200D02*
X199700000Y-58424819D01*
X199700000Y-58424819D02*
X199461905Y-58424819D01*
X200890476Y-57424819D02*
X200700000Y-57424819D01*
X200700000Y-57424819D02*
X200604762Y-57472438D01*
X200604762Y-57472438D02*
X200557143Y-57520057D01*
X200557143Y-57520057D02*
X200461905Y-57662914D01*
X200461905Y-57662914D02*
X200414286Y-57853390D01*
X200414286Y-57853390D02*
X200414286Y-58234342D01*
X200414286Y-58234342D02*
X200461905Y-58329580D01*
X200461905Y-58329580D02*
X200509524Y-58377200D01*
X200509524Y-58377200D02*
X200604762Y-58424819D01*
X200604762Y-58424819D02*
X200795238Y-58424819D01*
X200795238Y-58424819D02*
X200890476Y-58377200D01*
X200890476Y-58377200D02*
X200938095Y-58329580D01*
X200938095Y-58329580D02*
X200985714Y-58234342D01*
X200985714Y-58234342D02*
X200985714Y-57996247D01*
X200985714Y-57996247D02*
X200938095Y-57901009D01*
X200938095Y-57901009D02*
X200890476Y-57853390D01*
X200890476Y-57853390D02*
X200795238Y-57805771D01*
X200795238Y-57805771D02*
X200604762Y-57805771D01*
X200604762Y-57805771D02*
X200509524Y-57853390D01*
X200509524Y-57853390D02*
X200461905Y-57901009D01*
X200461905Y-57901009D02*
X200414286Y-57996247D01*
D11*
X199819047Y-61754380D02*
X199723809Y-61802000D01*
X199723809Y-61802000D02*
X199438095Y-61849619D01*
X199438095Y-61849619D02*
X199247619Y-61849619D01*
X199247619Y-61849619D02*
X198961904Y-61802000D01*
X198961904Y-61802000D02*
X198771428Y-61706761D01*
X198771428Y-61706761D02*
X198676190Y-61611523D01*
X198676190Y-61611523D02*
X198580952Y-61421047D01*
X198580952Y-61421047D02*
X198580952Y-61278190D01*
X198580952Y-61278190D02*
X198676190Y-61087714D01*
X198676190Y-61087714D02*
X198771428Y-60992476D01*
X198771428Y-60992476D02*
X198961904Y-60897238D01*
X198961904Y-60897238D02*
X199247619Y-60849619D01*
X199247619Y-60849619D02*
X199438095Y-60849619D01*
X199438095Y-60849619D02*
X199723809Y-60897238D01*
X199723809Y-60897238D02*
X199819047Y-60944857D01*
X201819047Y-61754380D02*
X201723809Y-61802000D01*
X201723809Y-61802000D02*
X201438095Y-61849619D01*
X201438095Y-61849619D02*
X201247619Y-61849619D01*
X201247619Y-61849619D02*
X200961904Y-61802000D01*
X200961904Y-61802000D02*
X200771428Y-61706761D01*
X200771428Y-61706761D02*
X200676190Y-61611523D01*
X200676190Y-61611523D02*
X200580952Y-61421047D01*
X200580952Y-61421047D02*
X200580952Y-61278190D01*
X200580952Y-61278190D02*
X200676190Y-61087714D01*
X200676190Y-61087714D02*
X200771428Y-60992476D01*
X200771428Y-60992476D02*
X200961904Y-60897238D01*
X200961904Y-60897238D02*
X201247619Y-60849619D01*
X201247619Y-60849619D02*
X201438095Y-60849619D01*
X201438095Y-60849619D02*
X201723809Y-60897238D01*
X201723809Y-60897238D02*
X201819047Y-60944857D01*
D12*
X261382672Y-62224819D02*
X261382672Y-61224819D01*
X261382672Y-61224819D02*
X261620767Y-61224819D01*
X261620767Y-61224819D02*
X261763624Y-61272438D01*
X261763624Y-61272438D02*
X261858862Y-61367676D01*
X261858862Y-61367676D02*
X261906481Y-61462914D01*
X261906481Y-61462914D02*
X261954100Y-61653390D01*
X261954100Y-61653390D02*
X261954100Y-61796247D01*
X261954100Y-61796247D02*
X261906481Y-61986723D01*
X261906481Y-61986723D02*
X261858862Y-62081961D01*
X261858862Y-62081961D02*
X261763624Y-62177200D01*
X261763624Y-62177200D02*
X261620767Y-62224819D01*
X261620767Y-62224819D02*
X261382672Y-62224819D01*
X262858862Y-61224819D02*
X262382672Y-61224819D01*
X262382672Y-61224819D02*
X262335053Y-61701009D01*
X262335053Y-61701009D02*
X262382672Y-61653390D01*
X262382672Y-61653390D02*
X262477910Y-61605771D01*
X262477910Y-61605771D02*
X262716005Y-61605771D01*
X262716005Y-61605771D02*
X262811243Y-61653390D01*
X262811243Y-61653390D02*
X262858862Y-61701009D01*
X262858862Y-61701009D02*
X262906481Y-61796247D01*
X262906481Y-61796247D02*
X262906481Y-62034342D01*
X262906481Y-62034342D02*
X262858862Y-62129580D01*
X262858862Y-62129580D02*
X262811243Y-62177200D01*
X262811243Y-62177200D02*
X262716005Y-62224819D01*
X262716005Y-62224819D02*
X262477910Y-62224819D01*
X262477910Y-62224819D02*
X262382672Y-62177200D01*
X262382672Y-62177200D02*
X262335053Y-62129580D01*
D11*
X260120766Y-64649619D02*
X260501719Y-64649619D01*
X260501719Y-64649619D02*
X260692195Y-64697238D01*
X260692195Y-64697238D02*
X260882671Y-64792476D01*
X260882671Y-64792476D02*
X260977909Y-64982952D01*
X260977909Y-64982952D02*
X260977909Y-65316285D01*
X260977909Y-65316285D02*
X260882671Y-65506761D01*
X260882671Y-65506761D02*
X260692195Y-65602000D01*
X260692195Y-65602000D02*
X260501719Y-65649619D01*
X260501719Y-65649619D02*
X260120766Y-65649619D01*
X260120766Y-65649619D02*
X259930290Y-65602000D01*
X259930290Y-65602000D02*
X259739814Y-65506761D01*
X259739814Y-65506761D02*
X259644576Y-65316285D01*
X259644576Y-65316285D02*
X259644576Y-64982952D01*
X259644576Y-64982952D02*
X259739814Y-64792476D01*
X259739814Y-64792476D02*
X259930290Y-64697238D01*
X259930290Y-64697238D02*
X260120766Y-64649619D01*
X261835052Y-64649619D02*
X261835052Y-65459142D01*
X261835052Y-65459142D02*
X261930290Y-65554380D01*
X261930290Y-65554380D02*
X262025528Y-65602000D01*
X262025528Y-65602000D02*
X262216004Y-65649619D01*
X262216004Y-65649619D02*
X262596957Y-65649619D01*
X262596957Y-65649619D02*
X262787433Y-65602000D01*
X262787433Y-65602000D02*
X262882671Y-65554380D01*
X262882671Y-65554380D02*
X262977909Y-65459142D01*
X262977909Y-65459142D02*
X262977909Y-64649619D01*
X263644576Y-64649619D02*
X264787433Y-64649619D01*
X264216004Y-65649619D02*
X264216004Y-64649619D01*
D12*
X206661905Y-58424819D02*
X206661905Y-57424819D01*
X206661905Y-57424819D02*
X206900000Y-57424819D01*
X206900000Y-57424819D02*
X207042857Y-57472438D01*
X207042857Y-57472438D02*
X207138095Y-57567676D01*
X207138095Y-57567676D02*
X207185714Y-57662914D01*
X207185714Y-57662914D02*
X207233333Y-57853390D01*
X207233333Y-57853390D02*
X207233333Y-57996247D01*
X207233333Y-57996247D02*
X207185714Y-58186723D01*
X207185714Y-58186723D02*
X207138095Y-58281961D01*
X207138095Y-58281961D02*
X207042857Y-58377200D01*
X207042857Y-58377200D02*
X206900000Y-58424819D01*
X206900000Y-58424819D02*
X206661905Y-58424819D01*
X208090476Y-57758152D02*
X208090476Y-58424819D01*
X207852381Y-57377200D02*
X207614286Y-58091485D01*
X207614286Y-58091485D02*
X208233333Y-58091485D01*
D11*
X207161904Y-61754380D02*
X207066666Y-61802000D01*
X207066666Y-61802000D02*
X206780952Y-61849619D01*
X206780952Y-61849619D02*
X206590476Y-61849619D01*
X206590476Y-61849619D02*
X206304761Y-61802000D01*
X206304761Y-61802000D02*
X206114285Y-61706761D01*
X206114285Y-61706761D02*
X206019047Y-61611523D01*
X206019047Y-61611523D02*
X205923809Y-61421047D01*
X205923809Y-61421047D02*
X205923809Y-61278190D01*
X205923809Y-61278190D02*
X206019047Y-61087714D01*
X206019047Y-61087714D02*
X206114285Y-60992476D01*
X206114285Y-60992476D02*
X206304761Y-60897238D01*
X206304761Y-60897238D02*
X206590476Y-60849619D01*
X206590476Y-60849619D02*
X206780952Y-60849619D01*
X206780952Y-60849619D02*
X207066666Y-60897238D01*
X207066666Y-60897238D02*
X207161904Y-60944857D01*
X207733333Y-60849619D02*
X208399999Y-61849619D01*
X208399999Y-61849619D02*
X209066666Y-60849619D01*
D12*
X154529580Y-36442857D02*
X154577200Y-36490476D01*
X154577200Y-36490476D02*
X154624819Y-36633333D01*
X154624819Y-36633333D02*
X154624819Y-36728571D01*
X154624819Y-36728571D02*
X154577200Y-36871428D01*
X154577200Y-36871428D02*
X154481961Y-36966666D01*
X154481961Y-36966666D02*
X154386723Y-37014285D01*
X154386723Y-37014285D02*
X154196247Y-37061904D01*
X154196247Y-37061904D02*
X154053390Y-37061904D01*
X154053390Y-37061904D02*
X153862914Y-37014285D01*
X153862914Y-37014285D02*
X153767676Y-36966666D01*
X153767676Y-36966666D02*
X153672438Y-36871428D01*
X153672438Y-36871428D02*
X153624819Y-36728571D01*
X153624819Y-36728571D02*
X153624819Y-36633333D01*
X153624819Y-36633333D02*
X153672438Y-36490476D01*
X153672438Y-36490476D02*
X153720057Y-36442857D01*
X153720057Y-36061904D02*
X153672438Y-36014285D01*
X153672438Y-36014285D02*
X153624819Y-35919047D01*
X153624819Y-35919047D02*
X153624819Y-35680952D01*
X153624819Y-35680952D02*
X153672438Y-35585714D01*
X153672438Y-35585714D02*
X153720057Y-35538095D01*
X153720057Y-35538095D02*
X153815295Y-35490476D01*
X153815295Y-35490476D02*
X153910533Y-35490476D01*
X153910533Y-35490476D02*
X154053390Y-35538095D01*
X154053390Y-35538095D02*
X154624819Y-36109523D01*
X154624819Y-36109523D02*
X154624819Y-35490476D01*
X153624819Y-34871428D02*
X153624819Y-34776190D01*
X153624819Y-34776190D02*
X153672438Y-34680952D01*
X153672438Y-34680952D02*
X153720057Y-34633333D01*
X153720057Y-34633333D02*
X153815295Y-34585714D01*
X153815295Y-34585714D02*
X154005771Y-34538095D01*
X154005771Y-34538095D02*
X154243866Y-34538095D01*
X154243866Y-34538095D02*
X154434342Y-34585714D01*
X154434342Y-34585714D02*
X154529580Y-34633333D01*
X154529580Y-34633333D02*
X154577200Y-34680952D01*
X154577200Y-34680952D02*
X154624819Y-34776190D01*
X154624819Y-34776190D02*
X154624819Y-34871428D01*
X154624819Y-34871428D02*
X154577200Y-34966666D01*
X154577200Y-34966666D02*
X154529580Y-35014285D01*
X154529580Y-35014285D02*
X154434342Y-35061904D01*
X154434342Y-35061904D02*
X154243866Y-35109523D01*
X154243866Y-35109523D02*
X154005771Y-35109523D01*
X154005771Y-35109523D02*
X153815295Y-35061904D01*
X153815295Y-35061904D02*
X153720057Y-35014285D01*
X153720057Y-35014285D02*
X153672438Y-34966666D01*
X153672438Y-34966666D02*
X153624819Y-34871428D01*
X158857142Y-27859580D02*
X158809523Y-27907200D01*
X158809523Y-27907200D02*
X158666666Y-27954819D01*
X158666666Y-27954819D02*
X158571428Y-27954819D01*
X158571428Y-27954819D02*
X158428571Y-27907200D01*
X158428571Y-27907200D02*
X158333333Y-27811961D01*
X158333333Y-27811961D02*
X158285714Y-27716723D01*
X158285714Y-27716723D02*
X158238095Y-27526247D01*
X158238095Y-27526247D02*
X158238095Y-27383390D01*
X158238095Y-27383390D02*
X158285714Y-27192914D01*
X158285714Y-27192914D02*
X158333333Y-27097676D01*
X158333333Y-27097676D02*
X158428571Y-27002438D01*
X158428571Y-27002438D02*
X158571428Y-26954819D01*
X158571428Y-26954819D02*
X158666666Y-26954819D01*
X158666666Y-26954819D02*
X158809523Y-27002438D01*
X158809523Y-27002438D02*
X158857142Y-27050057D01*
X159809523Y-27954819D02*
X159238095Y-27954819D01*
X159523809Y-27954819D02*
X159523809Y-26954819D01*
X159523809Y-26954819D02*
X159428571Y-27097676D01*
X159428571Y-27097676D02*
X159333333Y-27192914D01*
X159333333Y-27192914D02*
X159238095Y-27240533D01*
X160285714Y-27954819D02*
X160476190Y-27954819D01*
X160476190Y-27954819D02*
X160571428Y-27907200D01*
X160571428Y-27907200D02*
X160619047Y-27859580D01*
X160619047Y-27859580D02*
X160714285Y-27716723D01*
X160714285Y-27716723D02*
X160761904Y-27526247D01*
X160761904Y-27526247D02*
X160761904Y-27145295D01*
X160761904Y-27145295D02*
X160714285Y-27050057D01*
X160714285Y-27050057D02*
X160666666Y-27002438D01*
X160666666Y-27002438D02*
X160571428Y-26954819D01*
X160571428Y-26954819D02*
X160380952Y-26954819D01*
X160380952Y-26954819D02*
X160285714Y-27002438D01*
X160285714Y-27002438D02*
X160238095Y-27050057D01*
X160238095Y-27050057D02*
X160190476Y-27145295D01*
X160190476Y-27145295D02*
X160190476Y-27383390D01*
X160190476Y-27383390D02*
X160238095Y-27478628D01*
X160238095Y-27478628D02*
X160285714Y-27526247D01*
X160285714Y-27526247D02*
X160380952Y-27573866D01*
X160380952Y-27573866D02*
X160571428Y-27573866D01*
X160571428Y-27573866D02*
X160666666Y-27526247D01*
X160666666Y-27526247D02*
X160714285Y-27478628D01*
X160714285Y-27478628D02*
X160761904Y-27383390D01*
X168559580Y-26042857D02*
X168607200Y-26090476D01*
X168607200Y-26090476D02*
X168654819Y-26233333D01*
X168654819Y-26233333D02*
X168654819Y-26328571D01*
X168654819Y-26328571D02*
X168607200Y-26471428D01*
X168607200Y-26471428D02*
X168511961Y-26566666D01*
X168511961Y-26566666D02*
X168416723Y-26614285D01*
X168416723Y-26614285D02*
X168226247Y-26661904D01*
X168226247Y-26661904D02*
X168083390Y-26661904D01*
X168083390Y-26661904D02*
X167892914Y-26614285D01*
X167892914Y-26614285D02*
X167797676Y-26566666D01*
X167797676Y-26566666D02*
X167702438Y-26471428D01*
X167702438Y-26471428D02*
X167654819Y-26328571D01*
X167654819Y-26328571D02*
X167654819Y-26233333D01*
X167654819Y-26233333D02*
X167702438Y-26090476D01*
X167702438Y-26090476D02*
X167750057Y-26042857D01*
X168654819Y-25090476D02*
X168654819Y-25661904D01*
X168654819Y-25376190D02*
X167654819Y-25376190D01*
X167654819Y-25376190D02*
X167797676Y-25471428D01*
X167797676Y-25471428D02*
X167892914Y-25566666D01*
X167892914Y-25566666D02*
X167940533Y-25661904D01*
X167654819Y-24185714D02*
X167654819Y-24661904D01*
X167654819Y-24661904D02*
X168131009Y-24709523D01*
X168131009Y-24709523D02*
X168083390Y-24661904D01*
X168083390Y-24661904D02*
X168035771Y-24566666D01*
X168035771Y-24566666D02*
X168035771Y-24328571D01*
X168035771Y-24328571D02*
X168083390Y-24233333D01*
X168083390Y-24233333D02*
X168131009Y-24185714D01*
X168131009Y-24185714D02*
X168226247Y-24138095D01*
X168226247Y-24138095D02*
X168464342Y-24138095D01*
X168464342Y-24138095D02*
X168559580Y-24185714D01*
X168559580Y-24185714D02*
X168607200Y-24233333D01*
X168607200Y-24233333D02*
X168654819Y-24328571D01*
X168654819Y-24328571D02*
X168654819Y-24566666D01*
X168654819Y-24566666D02*
X168607200Y-24661904D01*
X168607200Y-24661904D02*
X168559580Y-24709523D01*
X166959580Y-26042857D02*
X167007200Y-26090476D01*
X167007200Y-26090476D02*
X167054819Y-26233333D01*
X167054819Y-26233333D02*
X167054819Y-26328571D01*
X167054819Y-26328571D02*
X167007200Y-26471428D01*
X167007200Y-26471428D02*
X166911961Y-26566666D01*
X166911961Y-26566666D02*
X166816723Y-26614285D01*
X166816723Y-26614285D02*
X166626247Y-26661904D01*
X166626247Y-26661904D02*
X166483390Y-26661904D01*
X166483390Y-26661904D02*
X166292914Y-26614285D01*
X166292914Y-26614285D02*
X166197676Y-26566666D01*
X166197676Y-26566666D02*
X166102438Y-26471428D01*
X166102438Y-26471428D02*
X166054819Y-26328571D01*
X166054819Y-26328571D02*
X166054819Y-26233333D01*
X166054819Y-26233333D02*
X166102438Y-26090476D01*
X166102438Y-26090476D02*
X166150057Y-26042857D01*
X167054819Y-25090476D02*
X167054819Y-25661904D01*
X167054819Y-25376190D02*
X166054819Y-25376190D01*
X166054819Y-25376190D02*
X166197676Y-25471428D01*
X166197676Y-25471428D02*
X166292914Y-25566666D01*
X166292914Y-25566666D02*
X166340533Y-25661904D01*
X166388152Y-24233333D02*
X167054819Y-24233333D01*
X166007200Y-24471428D02*
X166721485Y-24709523D01*
X166721485Y-24709523D02*
X166721485Y-24090476D01*
X173922080Y-58872857D02*
X173969700Y-58920476D01*
X173969700Y-58920476D02*
X174017319Y-59063333D01*
X174017319Y-59063333D02*
X174017319Y-59158571D01*
X174017319Y-59158571D02*
X173969700Y-59301428D01*
X173969700Y-59301428D02*
X173874461Y-59396666D01*
X173874461Y-59396666D02*
X173779223Y-59444285D01*
X173779223Y-59444285D02*
X173588747Y-59491904D01*
X173588747Y-59491904D02*
X173445890Y-59491904D01*
X173445890Y-59491904D02*
X173255414Y-59444285D01*
X173255414Y-59444285D02*
X173160176Y-59396666D01*
X173160176Y-59396666D02*
X173064938Y-59301428D01*
X173064938Y-59301428D02*
X173017319Y-59158571D01*
X173017319Y-59158571D02*
X173017319Y-59063333D01*
X173017319Y-59063333D02*
X173064938Y-58920476D01*
X173064938Y-58920476D02*
X173112557Y-58872857D01*
X173112557Y-58491904D02*
X173064938Y-58444285D01*
X173064938Y-58444285D02*
X173017319Y-58349047D01*
X173017319Y-58349047D02*
X173017319Y-58110952D01*
X173017319Y-58110952D02*
X173064938Y-58015714D01*
X173064938Y-58015714D02*
X173112557Y-57968095D01*
X173112557Y-57968095D02*
X173207795Y-57920476D01*
X173207795Y-57920476D02*
X173303033Y-57920476D01*
X173303033Y-57920476D02*
X173445890Y-57968095D01*
X173445890Y-57968095D02*
X174017319Y-58539523D01*
X174017319Y-58539523D02*
X174017319Y-57920476D01*
X173017319Y-57587142D02*
X173017319Y-56920476D01*
X173017319Y-56920476D02*
X174017319Y-57349047D01*
X254558333Y-21789580D02*
X254510714Y-21837200D01*
X254510714Y-21837200D02*
X254367857Y-21884819D01*
X254367857Y-21884819D02*
X254272619Y-21884819D01*
X254272619Y-21884819D02*
X254129762Y-21837200D01*
X254129762Y-21837200D02*
X254034524Y-21741961D01*
X254034524Y-21741961D02*
X253986905Y-21646723D01*
X253986905Y-21646723D02*
X253939286Y-21456247D01*
X253939286Y-21456247D02*
X253939286Y-21313390D01*
X253939286Y-21313390D02*
X253986905Y-21122914D01*
X253986905Y-21122914D02*
X254034524Y-21027676D01*
X254034524Y-21027676D02*
X254129762Y-20932438D01*
X254129762Y-20932438D02*
X254272619Y-20884819D01*
X254272619Y-20884819D02*
X254367857Y-20884819D01*
X254367857Y-20884819D02*
X254510714Y-20932438D01*
X254510714Y-20932438D02*
X254558333Y-20980057D01*
X255034524Y-21884819D02*
X255225000Y-21884819D01*
X255225000Y-21884819D02*
X255320238Y-21837200D01*
X255320238Y-21837200D02*
X255367857Y-21789580D01*
X255367857Y-21789580D02*
X255463095Y-21646723D01*
X255463095Y-21646723D02*
X255510714Y-21456247D01*
X255510714Y-21456247D02*
X255510714Y-21075295D01*
X255510714Y-21075295D02*
X255463095Y-20980057D01*
X255463095Y-20980057D02*
X255415476Y-20932438D01*
X255415476Y-20932438D02*
X255320238Y-20884819D01*
X255320238Y-20884819D02*
X255129762Y-20884819D01*
X255129762Y-20884819D02*
X255034524Y-20932438D01*
X255034524Y-20932438D02*
X254986905Y-20980057D01*
X254986905Y-20980057D02*
X254939286Y-21075295D01*
X254939286Y-21075295D02*
X254939286Y-21313390D01*
X254939286Y-21313390D02*
X254986905Y-21408628D01*
X254986905Y-21408628D02*
X255034524Y-21456247D01*
X255034524Y-21456247D02*
X255129762Y-21503866D01*
X255129762Y-21503866D02*
X255320238Y-21503866D01*
X255320238Y-21503866D02*
X255415476Y-21456247D01*
X255415476Y-21456247D02*
X255463095Y-21408628D01*
X255463095Y-21408628D02*
X255510714Y-21313390D01*
X226833333Y-32209580D02*
X226785714Y-32257200D01*
X226785714Y-32257200D02*
X226642857Y-32304819D01*
X226642857Y-32304819D02*
X226547619Y-32304819D01*
X226547619Y-32304819D02*
X226404762Y-32257200D01*
X226404762Y-32257200D02*
X226309524Y-32161961D01*
X226309524Y-32161961D02*
X226261905Y-32066723D01*
X226261905Y-32066723D02*
X226214286Y-31876247D01*
X226214286Y-31876247D02*
X226214286Y-31733390D01*
X226214286Y-31733390D02*
X226261905Y-31542914D01*
X226261905Y-31542914D02*
X226309524Y-31447676D01*
X226309524Y-31447676D02*
X226404762Y-31352438D01*
X226404762Y-31352438D02*
X226547619Y-31304819D01*
X226547619Y-31304819D02*
X226642857Y-31304819D01*
X226642857Y-31304819D02*
X226785714Y-31352438D01*
X226785714Y-31352438D02*
X226833333Y-31400057D01*
X227690476Y-31638152D02*
X227690476Y-32304819D01*
X227452381Y-31257200D02*
X227214286Y-31971485D01*
X227214286Y-31971485D02*
X227833333Y-31971485D01*
X236016667Y-63057200D02*
X236159524Y-63104819D01*
X236159524Y-63104819D02*
X236397619Y-63104819D01*
X236397619Y-63104819D02*
X236492857Y-63057200D01*
X236492857Y-63057200D02*
X236540476Y-63009580D01*
X236540476Y-63009580D02*
X236588095Y-62914342D01*
X236588095Y-62914342D02*
X236588095Y-62819104D01*
X236588095Y-62819104D02*
X236540476Y-62723866D01*
X236540476Y-62723866D02*
X236492857Y-62676247D01*
X236492857Y-62676247D02*
X236397619Y-62628628D01*
X236397619Y-62628628D02*
X236207143Y-62581009D01*
X236207143Y-62581009D02*
X236111905Y-62533390D01*
X236111905Y-62533390D02*
X236064286Y-62485771D01*
X236064286Y-62485771D02*
X236016667Y-62390533D01*
X236016667Y-62390533D02*
X236016667Y-62295295D01*
X236016667Y-62295295D02*
X236064286Y-62200057D01*
X236064286Y-62200057D02*
X236111905Y-62152438D01*
X236111905Y-62152438D02*
X236207143Y-62104819D01*
X236207143Y-62104819D02*
X236445238Y-62104819D01*
X236445238Y-62104819D02*
X236588095Y-62152438D01*
X236921429Y-62104819D02*
X237159524Y-63104819D01*
X237159524Y-63104819D02*
X237350000Y-62390533D01*
X237350000Y-62390533D02*
X237540476Y-63104819D01*
X237540476Y-63104819D02*
X237778572Y-62104819D01*
X238111905Y-62200057D02*
X238159524Y-62152438D01*
X238159524Y-62152438D02*
X238254762Y-62104819D01*
X238254762Y-62104819D02*
X238492857Y-62104819D01*
X238492857Y-62104819D02*
X238588095Y-62152438D01*
X238588095Y-62152438D02*
X238635714Y-62200057D01*
X238635714Y-62200057D02*
X238683333Y-62295295D01*
X238683333Y-62295295D02*
X238683333Y-62390533D01*
X238683333Y-62390533D02*
X238635714Y-62533390D01*
X238635714Y-62533390D02*
X238064286Y-63104819D01*
X238064286Y-63104819D02*
X238683333Y-63104819D01*
X176833333Y-38954819D02*
X176500000Y-38478628D01*
X176261905Y-38954819D02*
X176261905Y-37954819D01*
X176261905Y-37954819D02*
X176642857Y-37954819D01*
X176642857Y-37954819D02*
X176738095Y-38002438D01*
X176738095Y-38002438D02*
X176785714Y-38050057D01*
X176785714Y-38050057D02*
X176833333Y-38145295D01*
X176833333Y-38145295D02*
X176833333Y-38288152D01*
X176833333Y-38288152D02*
X176785714Y-38383390D01*
X176785714Y-38383390D02*
X176738095Y-38431009D01*
X176738095Y-38431009D02*
X176642857Y-38478628D01*
X176642857Y-38478628D02*
X176261905Y-38478628D01*
X177690476Y-38288152D02*
X177690476Y-38954819D01*
X177452381Y-37907200D02*
X177214286Y-38621485D01*
X177214286Y-38621485D02*
X177833333Y-38621485D01*
X184498065Y-57242857D02*
X184545685Y-57290476D01*
X184545685Y-57290476D02*
X184593304Y-57433333D01*
X184593304Y-57433333D02*
X184593304Y-57528571D01*
X184593304Y-57528571D02*
X184545685Y-57671428D01*
X184545685Y-57671428D02*
X184450446Y-57766666D01*
X184450446Y-57766666D02*
X184355208Y-57814285D01*
X184355208Y-57814285D02*
X184164732Y-57861904D01*
X184164732Y-57861904D02*
X184021875Y-57861904D01*
X184021875Y-57861904D02*
X183831399Y-57814285D01*
X183831399Y-57814285D02*
X183736161Y-57766666D01*
X183736161Y-57766666D02*
X183640923Y-57671428D01*
X183640923Y-57671428D02*
X183593304Y-57528571D01*
X183593304Y-57528571D02*
X183593304Y-57433333D01*
X183593304Y-57433333D02*
X183640923Y-57290476D01*
X183640923Y-57290476D02*
X183688542Y-57242857D01*
X183688542Y-56861904D02*
X183640923Y-56814285D01*
X183640923Y-56814285D02*
X183593304Y-56719047D01*
X183593304Y-56719047D02*
X183593304Y-56480952D01*
X183593304Y-56480952D02*
X183640923Y-56385714D01*
X183640923Y-56385714D02*
X183688542Y-56338095D01*
X183688542Y-56338095D02*
X183783780Y-56290476D01*
X183783780Y-56290476D02*
X183879018Y-56290476D01*
X183879018Y-56290476D02*
X184021875Y-56338095D01*
X184021875Y-56338095D02*
X184593304Y-56909523D01*
X184593304Y-56909523D02*
X184593304Y-56290476D01*
X183593304Y-55957142D02*
X183593304Y-55338095D01*
X183593304Y-55338095D02*
X183974256Y-55671428D01*
X183974256Y-55671428D02*
X183974256Y-55528571D01*
X183974256Y-55528571D02*
X184021875Y-55433333D01*
X184021875Y-55433333D02*
X184069494Y-55385714D01*
X184069494Y-55385714D02*
X184164732Y-55338095D01*
X184164732Y-55338095D02*
X184402827Y-55338095D01*
X184402827Y-55338095D02*
X184498065Y-55385714D01*
X184498065Y-55385714D02*
X184545685Y-55433333D01*
X184545685Y-55433333D02*
X184593304Y-55528571D01*
X184593304Y-55528571D02*
X184593304Y-55814285D01*
X184593304Y-55814285D02*
X184545685Y-55909523D01*
X184545685Y-55909523D02*
X184498065Y-55957142D01*
X239859580Y-21518748D02*
X239907200Y-21566367D01*
X239907200Y-21566367D02*
X239954819Y-21709224D01*
X239954819Y-21709224D02*
X239954819Y-21804462D01*
X239954819Y-21804462D02*
X239907200Y-21947319D01*
X239907200Y-21947319D02*
X239811961Y-22042557D01*
X239811961Y-22042557D02*
X239716723Y-22090176D01*
X239716723Y-22090176D02*
X239526247Y-22137795D01*
X239526247Y-22137795D02*
X239383390Y-22137795D01*
X239383390Y-22137795D02*
X239192914Y-22090176D01*
X239192914Y-22090176D02*
X239097676Y-22042557D01*
X239097676Y-22042557D02*
X239002438Y-21947319D01*
X239002438Y-21947319D02*
X238954819Y-21804462D01*
X238954819Y-21804462D02*
X238954819Y-21709224D01*
X238954819Y-21709224D02*
X239002438Y-21566367D01*
X239002438Y-21566367D02*
X239050057Y-21518748D01*
X239954819Y-20566367D02*
X239954819Y-21137795D01*
X239954819Y-20852081D02*
X238954819Y-20852081D01*
X238954819Y-20852081D02*
X239097676Y-20947319D01*
X239097676Y-20947319D02*
X239192914Y-21042557D01*
X239192914Y-21042557D02*
X239240533Y-21137795D01*
X260333333Y-20454819D02*
X260000000Y-19978628D01*
X259761905Y-20454819D02*
X259761905Y-19454819D01*
X259761905Y-19454819D02*
X260142857Y-19454819D01*
X260142857Y-19454819D02*
X260238095Y-19502438D01*
X260238095Y-19502438D02*
X260285714Y-19550057D01*
X260285714Y-19550057D02*
X260333333Y-19645295D01*
X260333333Y-19645295D02*
X260333333Y-19788152D01*
X260333333Y-19788152D02*
X260285714Y-19883390D01*
X260285714Y-19883390D02*
X260238095Y-19931009D01*
X260238095Y-19931009D02*
X260142857Y-19978628D01*
X260142857Y-19978628D02*
X259761905Y-19978628D01*
X260809524Y-20454819D02*
X261000000Y-20454819D01*
X261000000Y-20454819D02*
X261095238Y-20407200D01*
X261095238Y-20407200D02*
X261142857Y-20359580D01*
X261142857Y-20359580D02*
X261238095Y-20216723D01*
X261238095Y-20216723D02*
X261285714Y-20026247D01*
X261285714Y-20026247D02*
X261285714Y-19645295D01*
X261285714Y-19645295D02*
X261238095Y-19550057D01*
X261238095Y-19550057D02*
X261190476Y-19502438D01*
X261190476Y-19502438D02*
X261095238Y-19454819D01*
X261095238Y-19454819D02*
X260904762Y-19454819D01*
X260904762Y-19454819D02*
X260809524Y-19502438D01*
X260809524Y-19502438D02*
X260761905Y-19550057D01*
X260761905Y-19550057D02*
X260714286Y-19645295D01*
X260714286Y-19645295D02*
X260714286Y-19883390D01*
X260714286Y-19883390D02*
X260761905Y-19978628D01*
X260761905Y-19978628D02*
X260809524Y-20026247D01*
X260809524Y-20026247D02*
X260904762Y-20073866D01*
X260904762Y-20073866D02*
X261095238Y-20073866D01*
X261095238Y-20073866D02*
X261190476Y-20026247D01*
X261190476Y-20026247D02*
X261238095Y-19978628D01*
X261238095Y-19978628D02*
X261285714Y-19883390D01*
X201904761Y-54295057D02*
X201809523Y-54247438D01*
X201809523Y-54247438D02*
X201714285Y-54152200D01*
X201714285Y-54152200D02*
X201571428Y-54009342D01*
X201571428Y-54009342D02*
X201476190Y-53961723D01*
X201476190Y-53961723D02*
X201380952Y-53961723D01*
X201428571Y-54199819D02*
X201333333Y-54152200D01*
X201333333Y-54152200D02*
X201238095Y-54056961D01*
X201238095Y-54056961D02*
X201190476Y-53866485D01*
X201190476Y-53866485D02*
X201190476Y-53533152D01*
X201190476Y-53533152D02*
X201238095Y-53342676D01*
X201238095Y-53342676D02*
X201333333Y-53247438D01*
X201333333Y-53247438D02*
X201428571Y-53199819D01*
X201428571Y-53199819D02*
X201619047Y-53199819D01*
X201619047Y-53199819D02*
X201714285Y-53247438D01*
X201714285Y-53247438D02*
X201809523Y-53342676D01*
X201809523Y-53342676D02*
X201857142Y-53533152D01*
X201857142Y-53533152D02*
X201857142Y-53866485D01*
X201857142Y-53866485D02*
X201809523Y-54056961D01*
X201809523Y-54056961D02*
X201714285Y-54152200D01*
X201714285Y-54152200D02*
X201619047Y-54199819D01*
X201619047Y-54199819D02*
X201428571Y-54199819D01*
X202190476Y-53199819D02*
X202809523Y-53199819D01*
X202809523Y-53199819D02*
X202476190Y-53580771D01*
X202476190Y-53580771D02*
X202619047Y-53580771D01*
X202619047Y-53580771D02*
X202714285Y-53628390D01*
X202714285Y-53628390D02*
X202761904Y-53676009D01*
X202761904Y-53676009D02*
X202809523Y-53771247D01*
X202809523Y-53771247D02*
X202809523Y-54009342D01*
X202809523Y-54009342D02*
X202761904Y-54104580D01*
X202761904Y-54104580D02*
X202714285Y-54152200D01*
X202714285Y-54152200D02*
X202619047Y-54199819D01*
X202619047Y-54199819D02*
X202333333Y-54199819D01*
X202333333Y-54199819D02*
X202238095Y-54152200D01*
X202238095Y-54152200D02*
X202190476Y-54104580D01*
X168957142Y-43854819D02*
X168623809Y-43378628D01*
X168385714Y-43854819D02*
X168385714Y-42854819D01*
X168385714Y-42854819D02*
X168766666Y-42854819D01*
X168766666Y-42854819D02*
X168861904Y-42902438D01*
X168861904Y-42902438D02*
X168909523Y-42950057D01*
X168909523Y-42950057D02*
X168957142Y-43045295D01*
X168957142Y-43045295D02*
X168957142Y-43188152D01*
X168957142Y-43188152D02*
X168909523Y-43283390D01*
X168909523Y-43283390D02*
X168861904Y-43331009D01*
X168861904Y-43331009D02*
X168766666Y-43378628D01*
X168766666Y-43378628D02*
X168385714Y-43378628D01*
X169909523Y-43854819D02*
X169338095Y-43854819D01*
X169623809Y-43854819D02*
X169623809Y-42854819D01*
X169623809Y-42854819D02*
X169528571Y-42997676D01*
X169528571Y-42997676D02*
X169433333Y-43092914D01*
X169433333Y-43092914D02*
X169338095Y-43140533D01*
X170861904Y-43854819D02*
X170290476Y-43854819D01*
X170576190Y-43854819D02*
X170576190Y-42854819D01*
X170576190Y-42854819D02*
X170480952Y-42997676D01*
X170480952Y-42997676D02*
X170385714Y-43092914D01*
X170385714Y-43092914D02*
X170290476Y-43140533D01*
D10*
X265542580Y-25666666D02*
X264828295Y-25666666D01*
X264828295Y-25666666D02*
X264685438Y-25619047D01*
X264685438Y-25619047D02*
X264590200Y-25523809D01*
X264590200Y-25523809D02*
X264542580Y-25380952D01*
X264542580Y-25380952D02*
X264542580Y-25285714D01*
X265542580Y-26571428D02*
X265542580Y-26380952D01*
X265542580Y-26380952D02*
X265494961Y-26285714D01*
X265494961Y-26285714D02*
X265447342Y-26238095D01*
X265447342Y-26238095D02*
X265304485Y-26142857D01*
X265304485Y-26142857D02*
X265114009Y-26095238D01*
X265114009Y-26095238D02*
X264733057Y-26095238D01*
X264733057Y-26095238D02*
X264637819Y-26142857D01*
X264637819Y-26142857D02*
X264590200Y-26190476D01*
X264590200Y-26190476D02*
X264542580Y-26285714D01*
X264542580Y-26285714D02*
X264542580Y-26476190D01*
X264542580Y-26476190D02*
X264590200Y-26571428D01*
X264590200Y-26571428D02*
X264637819Y-26619047D01*
X264637819Y-26619047D02*
X264733057Y-26666666D01*
X264733057Y-26666666D02*
X264971152Y-26666666D01*
X264971152Y-26666666D02*
X265066390Y-26619047D01*
X265066390Y-26619047D02*
X265114009Y-26571428D01*
X265114009Y-26571428D02*
X265161628Y-26476190D01*
X265161628Y-26476190D02*
X265161628Y-26285714D01*
X265161628Y-26285714D02*
X265114009Y-26190476D01*
X265114009Y-26190476D02*
X265066390Y-26142857D01*
X265066390Y-26142857D02*
X264971152Y-26095238D01*
D12*
X265532142Y-20454819D02*
X265198809Y-19978628D01*
X264960714Y-20454819D02*
X264960714Y-19454819D01*
X264960714Y-19454819D02*
X265341666Y-19454819D01*
X265341666Y-19454819D02*
X265436904Y-19502438D01*
X265436904Y-19502438D02*
X265484523Y-19550057D01*
X265484523Y-19550057D02*
X265532142Y-19645295D01*
X265532142Y-19645295D02*
X265532142Y-19788152D01*
X265532142Y-19788152D02*
X265484523Y-19883390D01*
X265484523Y-19883390D02*
X265436904Y-19931009D01*
X265436904Y-19931009D02*
X265341666Y-19978628D01*
X265341666Y-19978628D02*
X264960714Y-19978628D01*
X265865476Y-19454819D02*
X266484523Y-19454819D01*
X266484523Y-19454819D02*
X266151190Y-19835771D01*
X266151190Y-19835771D02*
X266294047Y-19835771D01*
X266294047Y-19835771D02*
X266389285Y-19883390D01*
X266389285Y-19883390D02*
X266436904Y-19931009D01*
X266436904Y-19931009D02*
X266484523Y-20026247D01*
X266484523Y-20026247D02*
X266484523Y-20264342D01*
X266484523Y-20264342D02*
X266436904Y-20359580D01*
X266436904Y-20359580D02*
X266389285Y-20407200D01*
X266389285Y-20407200D02*
X266294047Y-20454819D01*
X266294047Y-20454819D02*
X266008333Y-20454819D01*
X266008333Y-20454819D02*
X265913095Y-20407200D01*
X265913095Y-20407200D02*
X265865476Y-20359580D01*
X266817857Y-19454819D02*
X267436904Y-19454819D01*
X267436904Y-19454819D02*
X267103571Y-19835771D01*
X267103571Y-19835771D02*
X267246428Y-19835771D01*
X267246428Y-19835771D02*
X267341666Y-19883390D01*
X267341666Y-19883390D02*
X267389285Y-19931009D01*
X267389285Y-19931009D02*
X267436904Y-20026247D01*
X267436904Y-20026247D02*
X267436904Y-20264342D01*
X267436904Y-20264342D02*
X267389285Y-20359580D01*
X267389285Y-20359580D02*
X267341666Y-20407200D01*
X267341666Y-20407200D02*
X267246428Y-20454819D01*
X267246428Y-20454819D02*
X266960714Y-20454819D01*
X266960714Y-20454819D02*
X266865476Y-20407200D01*
X266865476Y-20407200D02*
X266817857Y-20359580D01*
X227977257Y-26510534D02*
X228024877Y-26558153D01*
X228024877Y-26558153D02*
X228072496Y-26701010D01*
X228072496Y-26701010D02*
X228072496Y-26796248D01*
X228072496Y-26796248D02*
X228024877Y-26939105D01*
X228024877Y-26939105D02*
X227929638Y-27034343D01*
X227929638Y-27034343D02*
X227834400Y-27081962D01*
X227834400Y-27081962D02*
X227643924Y-27129581D01*
X227643924Y-27129581D02*
X227501067Y-27129581D01*
X227501067Y-27129581D02*
X227310591Y-27081962D01*
X227310591Y-27081962D02*
X227215353Y-27034343D01*
X227215353Y-27034343D02*
X227120115Y-26939105D01*
X227120115Y-26939105D02*
X227072496Y-26796248D01*
X227072496Y-26796248D02*
X227072496Y-26701010D01*
X227072496Y-26701010D02*
X227120115Y-26558153D01*
X227120115Y-26558153D02*
X227167734Y-26510534D01*
X227167734Y-26129581D02*
X227120115Y-26081962D01*
X227120115Y-26081962D02*
X227072496Y-25986724D01*
X227072496Y-25986724D02*
X227072496Y-25748629D01*
X227072496Y-25748629D02*
X227120115Y-25653391D01*
X227120115Y-25653391D02*
X227167734Y-25605772D01*
X227167734Y-25605772D02*
X227262972Y-25558153D01*
X227262972Y-25558153D02*
X227358210Y-25558153D01*
X227358210Y-25558153D02*
X227501067Y-25605772D01*
X227501067Y-25605772D02*
X228072496Y-26177200D01*
X228072496Y-26177200D02*
X228072496Y-25558153D01*
X227167734Y-25177200D02*
X227120115Y-25129581D01*
X227120115Y-25129581D02*
X227072496Y-25034343D01*
X227072496Y-25034343D02*
X227072496Y-24796248D01*
X227072496Y-24796248D02*
X227120115Y-24701010D01*
X227120115Y-24701010D02*
X227167734Y-24653391D01*
X227167734Y-24653391D02*
X227262972Y-24605772D01*
X227262972Y-24605772D02*
X227358210Y-24605772D01*
X227358210Y-24605772D02*
X227501067Y-24653391D01*
X227501067Y-24653391D02*
X228072496Y-25224819D01*
X228072496Y-25224819D02*
X228072496Y-24605772D01*
X159398214Y-22424819D02*
X159398214Y-21424819D01*
X159398214Y-21424819D02*
X159636309Y-21424819D01*
X159636309Y-21424819D02*
X159779166Y-21472438D01*
X159779166Y-21472438D02*
X159874404Y-21567676D01*
X159874404Y-21567676D02*
X159922023Y-21662914D01*
X159922023Y-21662914D02*
X159969642Y-21853390D01*
X159969642Y-21853390D02*
X159969642Y-21996247D01*
X159969642Y-21996247D02*
X159922023Y-22186723D01*
X159922023Y-22186723D02*
X159874404Y-22281961D01*
X159874404Y-22281961D02*
X159779166Y-22377200D01*
X159779166Y-22377200D02*
X159636309Y-22424819D01*
X159636309Y-22424819D02*
X159398214Y-22424819D01*
X160922023Y-22424819D02*
X160350595Y-22424819D01*
X160636309Y-22424819D02*
X160636309Y-21424819D01*
X160636309Y-21424819D02*
X160541071Y-21567676D01*
X160541071Y-21567676D02*
X160445833Y-21662914D01*
X160445833Y-21662914D02*
X160350595Y-21710533D01*
X161874404Y-22424819D02*
X161302976Y-22424819D01*
X161588690Y-22424819D02*
X161588690Y-21424819D01*
X161588690Y-21424819D02*
X161493452Y-21567676D01*
X161493452Y-21567676D02*
X161398214Y-21662914D01*
X161398214Y-21662914D02*
X161302976Y-21710533D01*
X173633333Y-45559580D02*
X173585714Y-45607200D01*
X173585714Y-45607200D02*
X173442857Y-45654819D01*
X173442857Y-45654819D02*
X173347619Y-45654819D01*
X173347619Y-45654819D02*
X173204762Y-45607200D01*
X173204762Y-45607200D02*
X173109524Y-45511961D01*
X173109524Y-45511961D02*
X173061905Y-45416723D01*
X173061905Y-45416723D02*
X173014286Y-45226247D01*
X173014286Y-45226247D02*
X173014286Y-45083390D01*
X173014286Y-45083390D02*
X173061905Y-44892914D01*
X173061905Y-44892914D02*
X173109524Y-44797676D01*
X173109524Y-44797676D02*
X173204762Y-44702438D01*
X173204762Y-44702438D02*
X173347619Y-44654819D01*
X173347619Y-44654819D02*
X173442857Y-44654819D01*
X173442857Y-44654819D02*
X173585714Y-44702438D01*
X173585714Y-44702438D02*
X173633333Y-44750057D01*
X174490476Y-44654819D02*
X174300000Y-44654819D01*
X174300000Y-44654819D02*
X174204762Y-44702438D01*
X174204762Y-44702438D02*
X174157143Y-44750057D01*
X174157143Y-44750057D02*
X174061905Y-44892914D01*
X174061905Y-44892914D02*
X174014286Y-45083390D01*
X174014286Y-45083390D02*
X174014286Y-45464342D01*
X174014286Y-45464342D02*
X174061905Y-45559580D01*
X174061905Y-45559580D02*
X174109524Y-45607200D01*
X174109524Y-45607200D02*
X174204762Y-45654819D01*
X174204762Y-45654819D02*
X174395238Y-45654819D01*
X174395238Y-45654819D02*
X174490476Y-45607200D01*
X174490476Y-45607200D02*
X174538095Y-45559580D01*
X174538095Y-45559580D02*
X174585714Y-45464342D01*
X174585714Y-45464342D02*
X174585714Y-45226247D01*
X174585714Y-45226247D02*
X174538095Y-45131009D01*
X174538095Y-45131009D02*
X174490476Y-45083390D01*
X174490476Y-45083390D02*
X174395238Y-45035771D01*
X174395238Y-45035771D02*
X174204762Y-45035771D01*
X174204762Y-45035771D02*
X174109524Y-45083390D01*
X174109524Y-45083390D02*
X174061905Y-45131009D01*
X174061905Y-45131009D02*
X174014286Y-45226247D01*
D10*
X157142580Y-38635714D02*
X158142580Y-38635714D01*
X158142580Y-38635714D02*
X158142580Y-38873809D01*
X158142580Y-38873809D02*
X158094961Y-39016666D01*
X158094961Y-39016666D02*
X157999723Y-39111904D01*
X157999723Y-39111904D02*
X157904485Y-39159523D01*
X157904485Y-39159523D02*
X157714009Y-39207142D01*
X157714009Y-39207142D02*
X157571152Y-39207142D01*
X157571152Y-39207142D02*
X157380676Y-39159523D01*
X157380676Y-39159523D02*
X157285438Y-39111904D01*
X157285438Y-39111904D02*
X157190200Y-39016666D01*
X157190200Y-39016666D02*
X157142580Y-38873809D01*
X157142580Y-38873809D02*
X157142580Y-38635714D01*
X157142580Y-40159523D02*
X157142580Y-39588095D01*
X157142580Y-39873809D02*
X158142580Y-39873809D01*
X158142580Y-39873809D02*
X157999723Y-39778571D01*
X157999723Y-39778571D02*
X157904485Y-39683333D01*
X157904485Y-39683333D02*
X157856866Y-39588095D01*
X158047342Y-40540476D02*
X158094961Y-40588095D01*
X158094961Y-40588095D02*
X158142580Y-40683333D01*
X158142580Y-40683333D02*
X158142580Y-40921428D01*
X158142580Y-40921428D02*
X158094961Y-41016666D01*
X158094961Y-41016666D02*
X158047342Y-41064285D01*
X158047342Y-41064285D02*
X157952104Y-41111904D01*
X157952104Y-41111904D02*
X157856866Y-41111904D01*
X157856866Y-41111904D02*
X157714009Y-41064285D01*
X157714009Y-41064285D02*
X157142580Y-40492857D01*
X157142580Y-40492857D02*
X157142580Y-41111904D01*
D12*
X176833333Y-36454819D02*
X176500000Y-35978628D01*
X176261905Y-36454819D02*
X176261905Y-35454819D01*
X176261905Y-35454819D02*
X176642857Y-35454819D01*
X176642857Y-35454819D02*
X176738095Y-35502438D01*
X176738095Y-35502438D02*
X176785714Y-35550057D01*
X176785714Y-35550057D02*
X176833333Y-35645295D01*
X176833333Y-35645295D02*
X176833333Y-35788152D01*
X176833333Y-35788152D02*
X176785714Y-35883390D01*
X176785714Y-35883390D02*
X176738095Y-35931009D01*
X176738095Y-35931009D02*
X176642857Y-35978628D01*
X176642857Y-35978628D02*
X176261905Y-35978628D01*
X177738095Y-35454819D02*
X177261905Y-35454819D01*
X177261905Y-35454819D02*
X177214286Y-35931009D01*
X177214286Y-35931009D02*
X177261905Y-35883390D01*
X177261905Y-35883390D02*
X177357143Y-35835771D01*
X177357143Y-35835771D02*
X177595238Y-35835771D01*
X177595238Y-35835771D02*
X177690476Y-35883390D01*
X177690476Y-35883390D02*
X177738095Y-35931009D01*
X177738095Y-35931009D02*
X177785714Y-36026247D01*
X177785714Y-36026247D02*
X177785714Y-36264342D01*
X177785714Y-36264342D02*
X177738095Y-36359580D01*
X177738095Y-36359580D02*
X177690476Y-36407200D01*
X177690476Y-36407200D02*
X177595238Y-36454819D01*
X177595238Y-36454819D02*
X177357143Y-36454819D01*
X177357143Y-36454819D02*
X177261905Y-36407200D01*
X177261905Y-36407200D02*
X177214286Y-36359580D01*
X190954819Y-52967857D02*
X190478628Y-53301190D01*
X190954819Y-53539285D02*
X189954819Y-53539285D01*
X189954819Y-53539285D02*
X189954819Y-53158333D01*
X189954819Y-53158333D02*
X190002438Y-53063095D01*
X190002438Y-53063095D02*
X190050057Y-53015476D01*
X190050057Y-53015476D02*
X190145295Y-52967857D01*
X190145295Y-52967857D02*
X190288152Y-52967857D01*
X190288152Y-52967857D02*
X190383390Y-53015476D01*
X190383390Y-53015476D02*
X190431009Y-53063095D01*
X190431009Y-53063095D02*
X190478628Y-53158333D01*
X190478628Y-53158333D02*
X190478628Y-53539285D01*
X190050057Y-52586904D02*
X190002438Y-52539285D01*
X190002438Y-52539285D02*
X189954819Y-52444047D01*
X189954819Y-52444047D02*
X189954819Y-52205952D01*
X189954819Y-52205952D02*
X190002438Y-52110714D01*
X190002438Y-52110714D02*
X190050057Y-52063095D01*
X190050057Y-52063095D02*
X190145295Y-52015476D01*
X190145295Y-52015476D02*
X190240533Y-52015476D01*
X190240533Y-52015476D02*
X190383390Y-52063095D01*
X190383390Y-52063095D02*
X190954819Y-52634523D01*
X190954819Y-52634523D02*
X190954819Y-52015476D01*
X189954819Y-51396428D02*
X189954819Y-51301190D01*
X189954819Y-51301190D02*
X190002438Y-51205952D01*
X190002438Y-51205952D02*
X190050057Y-51158333D01*
X190050057Y-51158333D02*
X190145295Y-51110714D01*
X190145295Y-51110714D02*
X190335771Y-51063095D01*
X190335771Y-51063095D02*
X190573866Y-51063095D01*
X190573866Y-51063095D02*
X190764342Y-51110714D01*
X190764342Y-51110714D02*
X190859580Y-51158333D01*
X190859580Y-51158333D02*
X190907200Y-51205952D01*
X190907200Y-51205952D02*
X190954819Y-51301190D01*
X190954819Y-51301190D02*
X190954819Y-51396428D01*
X190954819Y-51396428D02*
X190907200Y-51491666D01*
X190907200Y-51491666D02*
X190859580Y-51539285D01*
X190859580Y-51539285D02*
X190764342Y-51586904D01*
X190764342Y-51586904D02*
X190573866Y-51634523D01*
X190573866Y-51634523D02*
X190335771Y-51634523D01*
X190335771Y-51634523D02*
X190145295Y-51586904D01*
X190145295Y-51586904D02*
X190050057Y-51539285D01*
X190050057Y-51539285D02*
X190002438Y-51491666D01*
X190002438Y-51491666D02*
X189954819Y-51396428D01*
X235761905Y-53454819D02*
X235761905Y-52454819D01*
X235761905Y-52454819D02*
X236000000Y-52454819D01*
X236000000Y-52454819D02*
X236142857Y-52502438D01*
X236142857Y-52502438D02*
X236238095Y-52597676D01*
X236238095Y-52597676D02*
X236285714Y-52692914D01*
X236285714Y-52692914D02*
X236333333Y-52883390D01*
X236333333Y-52883390D02*
X236333333Y-53026247D01*
X236333333Y-53026247D02*
X236285714Y-53216723D01*
X236285714Y-53216723D02*
X236238095Y-53311961D01*
X236238095Y-53311961D02*
X236142857Y-53407200D01*
X236142857Y-53407200D02*
X236000000Y-53454819D01*
X236000000Y-53454819D02*
X235761905Y-53454819D01*
X236666667Y-52454819D02*
X237285714Y-52454819D01*
X237285714Y-52454819D02*
X236952381Y-52835771D01*
X236952381Y-52835771D02*
X237095238Y-52835771D01*
X237095238Y-52835771D02*
X237190476Y-52883390D01*
X237190476Y-52883390D02*
X237238095Y-52931009D01*
X237238095Y-52931009D02*
X237285714Y-53026247D01*
X237285714Y-53026247D02*
X237285714Y-53264342D01*
X237285714Y-53264342D02*
X237238095Y-53359580D01*
X237238095Y-53359580D02*
X237190476Y-53407200D01*
X237190476Y-53407200D02*
X237095238Y-53454819D01*
X237095238Y-53454819D02*
X236809524Y-53454819D01*
X236809524Y-53454819D02*
X236714286Y-53407200D01*
X236714286Y-53407200D02*
X236666667Y-53359580D01*
X184534580Y-31166666D02*
X184582200Y-31214285D01*
X184582200Y-31214285D02*
X184629819Y-31357142D01*
X184629819Y-31357142D02*
X184629819Y-31452380D01*
X184629819Y-31452380D02*
X184582200Y-31595237D01*
X184582200Y-31595237D02*
X184486961Y-31690475D01*
X184486961Y-31690475D02*
X184391723Y-31738094D01*
X184391723Y-31738094D02*
X184201247Y-31785713D01*
X184201247Y-31785713D02*
X184058390Y-31785713D01*
X184058390Y-31785713D02*
X183867914Y-31738094D01*
X183867914Y-31738094D02*
X183772676Y-31690475D01*
X183772676Y-31690475D02*
X183677438Y-31595237D01*
X183677438Y-31595237D02*
X183629819Y-31452380D01*
X183629819Y-31452380D02*
X183629819Y-31357142D01*
X183629819Y-31357142D02*
X183677438Y-31214285D01*
X183677438Y-31214285D02*
X183725057Y-31166666D01*
X183629819Y-30833332D02*
X183629819Y-30214285D01*
X183629819Y-30214285D02*
X184010771Y-30547618D01*
X184010771Y-30547618D02*
X184010771Y-30404761D01*
X184010771Y-30404761D02*
X184058390Y-30309523D01*
X184058390Y-30309523D02*
X184106009Y-30261904D01*
X184106009Y-30261904D02*
X184201247Y-30214285D01*
X184201247Y-30214285D02*
X184439342Y-30214285D01*
X184439342Y-30214285D02*
X184534580Y-30261904D01*
X184534580Y-30261904D02*
X184582200Y-30309523D01*
X184582200Y-30309523D02*
X184629819Y-30404761D01*
X184629819Y-30404761D02*
X184629819Y-30690475D01*
X184629819Y-30690475D02*
X184582200Y-30785713D01*
X184582200Y-30785713D02*
X184534580Y-30833332D01*
X176033333Y-31054819D02*
X175700000Y-30578628D01*
X175461905Y-31054819D02*
X175461905Y-30054819D01*
X175461905Y-30054819D02*
X175842857Y-30054819D01*
X175842857Y-30054819D02*
X175938095Y-30102438D01*
X175938095Y-30102438D02*
X175985714Y-30150057D01*
X175985714Y-30150057D02*
X176033333Y-30245295D01*
X176033333Y-30245295D02*
X176033333Y-30388152D01*
X176033333Y-30388152D02*
X175985714Y-30483390D01*
X175985714Y-30483390D02*
X175938095Y-30531009D01*
X175938095Y-30531009D02*
X175842857Y-30578628D01*
X175842857Y-30578628D02*
X175461905Y-30578628D01*
X176890476Y-30054819D02*
X176700000Y-30054819D01*
X176700000Y-30054819D02*
X176604762Y-30102438D01*
X176604762Y-30102438D02*
X176557143Y-30150057D01*
X176557143Y-30150057D02*
X176461905Y-30292914D01*
X176461905Y-30292914D02*
X176414286Y-30483390D01*
X176414286Y-30483390D02*
X176414286Y-30864342D01*
X176414286Y-30864342D02*
X176461905Y-30959580D01*
X176461905Y-30959580D02*
X176509524Y-31007200D01*
X176509524Y-31007200D02*
X176604762Y-31054819D01*
X176604762Y-31054819D02*
X176795238Y-31054819D01*
X176795238Y-31054819D02*
X176890476Y-31007200D01*
X176890476Y-31007200D02*
X176938095Y-30959580D01*
X176938095Y-30959580D02*
X176985714Y-30864342D01*
X176985714Y-30864342D02*
X176985714Y-30626247D01*
X176985714Y-30626247D02*
X176938095Y-30531009D01*
X176938095Y-30531009D02*
X176890476Y-30483390D01*
X176890476Y-30483390D02*
X176795238Y-30435771D01*
X176795238Y-30435771D02*
X176604762Y-30435771D01*
X176604762Y-30435771D02*
X176509524Y-30483390D01*
X176509524Y-30483390D02*
X176461905Y-30531009D01*
X176461905Y-30531009D02*
X176414286Y-30626247D01*
X186357142Y-51454819D02*
X186023809Y-50978628D01*
X185785714Y-51454819D02*
X185785714Y-50454819D01*
X185785714Y-50454819D02*
X186166666Y-50454819D01*
X186166666Y-50454819D02*
X186261904Y-50502438D01*
X186261904Y-50502438D02*
X186309523Y-50550057D01*
X186309523Y-50550057D02*
X186357142Y-50645295D01*
X186357142Y-50645295D02*
X186357142Y-50788152D01*
X186357142Y-50788152D02*
X186309523Y-50883390D01*
X186309523Y-50883390D02*
X186261904Y-50931009D01*
X186261904Y-50931009D02*
X186166666Y-50978628D01*
X186166666Y-50978628D02*
X185785714Y-50978628D01*
X186738095Y-50550057D02*
X186785714Y-50502438D01*
X186785714Y-50502438D02*
X186880952Y-50454819D01*
X186880952Y-50454819D02*
X187119047Y-50454819D01*
X187119047Y-50454819D02*
X187214285Y-50502438D01*
X187214285Y-50502438D02*
X187261904Y-50550057D01*
X187261904Y-50550057D02*
X187309523Y-50645295D01*
X187309523Y-50645295D02*
X187309523Y-50740533D01*
X187309523Y-50740533D02*
X187261904Y-50883390D01*
X187261904Y-50883390D02*
X186690476Y-51454819D01*
X186690476Y-51454819D02*
X187309523Y-51454819D01*
X187642857Y-50454819D02*
X188261904Y-50454819D01*
X188261904Y-50454819D02*
X187928571Y-50835771D01*
X187928571Y-50835771D02*
X188071428Y-50835771D01*
X188071428Y-50835771D02*
X188166666Y-50883390D01*
X188166666Y-50883390D02*
X188214285Y-50931009D01*
X188214285Y-50931009D02*
X188261904Y-51026247D01*
X188261904Y-51026247D02*
X188261904Y-51264342D01*
X188261904Y-51264342D02*
X188214285Y-51359580D01*
X188214285Y-51359580D02*
X188166666Y-51407200D01*
X188166666Y-51407200D02*
X188071428Y-51454819D01*
X188071428Y-51454819D02*
X187785714Y-51454819D01*
X187785714Y-51454819D02*
X187690476Y-51407200D01*
X187690476Y-51407200D02*
X187642857Y-51359580D01*
X198859580Y-21666666D02*
X198907200Y-21714285D01*
X198907200Y-21714285D02*
X198954819Y-21857142D01*
X198954819Y-21857142D02*
X198954819Y-21952380D01*
X198954819Y-21952380D02*
X198907200Y-22095237D01*
X198907200Y-22095237D02*
X198811961Y-22190475D01*
X198811961Y-22190475D02*
X198716723Y-22238094D01*
X198716723Y-22238094D02*
X198526247Y-22285713D01*
X198526247Y-22285713D02*
X198383390Y-22285713D01*
X198383390Y-22285713D02*
X198192914Y-22238094D01*
X198192914Y-22238094D02*
X198097676Y-22190475D01*
X198097676Y-22190475D02*
X198002438Y-22095237D01*
X198002438Y-22095237D02*
X197954819Y-21952380D01*
X197954819Y-21952380D02*
X197954819Y-21857142D01*
X197954819Y-21857142D02*
X198002438Y-21714285D01*
X198002438Y-21714285D02*
X198050057Y-21666666D01*
X198050057Y-21285713D02*
X198002438Y-21238094D01*
X198002438Y-21238094D02*
X197954819Y-21142856D01*
X197954819Y-21142856D02*
X197954819Y-20904761D01*
X197954819Y-20904761D02*
X198002438Y-20809523D01*
X198002438Y-20809523D02*
X198050057Y-20761904D01*
X198050057Y-20761904D02*
X198145295Y-20714285D01*
X198145295Y-20714285D02*
X198240533Y-20714285D01*
X198240533Y-20714285D02*
X198383390Y-20761904D01*
X198383390Y-20761904D02*
X198954819Y-21333332D01*
X198954819Y-21333332D02*
X198954819Y-20714285D01*
X178738095Y-27454819D02*
X178738095Y-28264342D01*
X178738095Y-28264342D02*
X178785714Y-28359580D01*
X178785714Y-28359580D02*
X178833333Y-28407200D01*
X178833333Y-28407200D02*
X178928571Y-28454819D01*
X178928571Y-28454819D02*
X179119047Y-28454819D01*
X179119047Y-28454819D02*
X179214285Y-28407200D01*
X179214285Y-28407200D02*
X179261904Y-28359580D01*
X179261904Y-28359580D02*
X179309523Y-28264342D01*
X179309523Y-28264342D02*
X179309523Y-27454819D01*
X179738095Y-27550057D02*
X179785714Y-27502438D01*
X179785714Y-27502438D02*
X179880952Y-27454819D01*
X179880952Y-27454819D02*
X180119047Y-27454819D01*
X180119047Y-27454819D02*
X180214285Y-27502438D01*
X180214285Y-27502438D02*
X180261904Y-27550057D01*
X180261904Y-27550057D02*
X180309523Y-27645295D01*
X180309523Y-27645295D02*
X180309523Y-27740533D01*
X180309523Y-27740533D02*
X180261904Y-27883390D01*
X180261904Y-27883390D02*
X179690476Y-28454819D01*
X179690476Y-28454819D02*
X180309523Y-28454819D01*
X190548065Y-57230911D02*
X190595685Y-57278530D01*
X190595685Y-57278530D02*
X190643304Y-57421387D01*
X190643304Y-57421387D02*
X190643304Y-57516625D01*
X190643304Y-57516625D02*
X190595685Y-57659482D01*
X190595685Y-57659482D02*
X190500446Y-57754720D01*
X190500446Y-57754720D02*
X190405208Y-57802339D01*
X190405208Y-57802339D02*
X190214732Y-57849958D01*
X190214732Y-57849958D02*
X190071875Y-57849958D01*
X190071875Y-57849958D02*
X189881399Y-57802339D01*
X189881399Y-57802339D02*
X189786161Y-57754720D01*
X189786161Y-57754720D02*
X189690923Y-57659482D01*
X189690923Y-57659482D02*
X189643304Y-57516625D01*
X189643304Y-57516625D02*
X189643304Y-57421387D01*
X189643304Y-57421387D02*
X189690923Y-57278530D01*
X189690923Y-57278530D02*
X189738542Y-57230911D01*
X189738542Y-56849958D02*
X189690923Y-56802339D01*
X189690923Y-56802339D02*
X189643304Y-56707101D01*
X189643304Y-56707101D02*
X189643304Y-56469006D01*
X189643304Y-56469006D02*
X189690923Y-56373768D01*
X189690923Y-56373768D02*
X189738542Y-56326149D01*
X189738542Y-56326149D02*
X189833780Y-56278530D01*
X189833780Y-56278530D02*
X189929018Y-56278530D01*
X189929018Y-56278530D02*
X190071875Y-56326149D01*
X190071875Y-56326149D02*
X190643304Y-56897577D01*
X190643304Y-56897577D02*
X190643304Y-56278530D01*
X189976637Y-55421387D02*
X190643304Y-55421387D01*
X189595685Y-55659482D02*
X190309970Y-55897577D01*
X190309970Y-55897577D02*
X190309970Y-55278530D01*
X175266666Y-64254819D02*
X175266666Y-64969104D01*
X175266666Y-64969104D02*
X175219047Y-65111961D01*
X175219047Y-65111961D02*
X175123809Y-65207200D01*
X175123809Y-65207200D02*
X174980952Y-65254819D01*
X174980952Y-65254819D02*
X174885714Y-65254819D01*
X176266666Y-65254819D02*
X175695238Y-65254819D01*
X175980952Y-65254819D02*
X175980952Y-64254819D01*
X175980952Y-64254819D02*
X175885714Y-64397676D01*
X175885714Y-64397676D02*
X175790476Y-64492914D01*
X175790476Y-64492914D02*
X175695238Y-64540533D01*
X246016667Y-63057200D02*
X246159524Y-63104819D01*
X246159524Y-63104819D02*
X246397619Y-63104819D01*
X246397619Y-63104819D02*
X246492857Y-63057200D01*
X246492857Y-63057200D02*
X246540476Y-63009580D01*
X246540476Y-63009580D02*
X246588095Y-62914342D01*
X246588095Y-62914342D02*
X246588095Y-62819104D01*
X246588095Y-62819104D02*
X246540476Y-62723866D01*
X246540476Y-62723866D02*
X246492857Y-62676247D01*
X246492857Y-62676247D02*
X246397619Y-62628628D01*
X246397619Y-62628628D02*
X246207143Y-62581009D01*
X246207143Y-62581009D02*
X246111905Y-62533390D01*
X246111905Y-62533390D02*
X246064286Y-62485771D01*
X246064286Y-62485771D02*
X246016667Y-62390533D01*
X246016667Y-62390533D02*
X246016667Y-62295295D01*
X246016667Y-62295295D02*
X246064286Y-62200057D01*
X246064286Y-62200057D02*
X246111905Y-62152438D01*
X246111905Y-62152438D02*
X246207143Y-62104819D01*
X246207143Y-62104819D02*
X246445238Y-62104819D01*
X246445238Y-62104819D02*
X246588095Y-62152438D01*
X246921429Y-62104819D02*
X247159524Y-63104819D01*
X247159524Y-63104819D02*
X247350000Y-62390533D01*
X247350000Y-62390533D02*
X247540476Y-63104819D01*
X247540476Y-63104819D02*
X247778572Y-62104819D01*
X248064286Y-62104819D02*
X248683333Y-62104819D01*
X248683333Y-62104819D02*
X248350000Y-62485771D01*
X248350000Y-62485771D02*
X248492857Y-62485771D01*
X248492857Y-62485771D02*
X248588095Y-62533390D01*
X248588095Y-62533390D02*
X248635714Y-62581009D01*
X248635714Y-62581009D02*
X248683333Y-62676247D01*
X248683333Y-62676247D02*
X248683333Y-62914342D01*
X248683333Y-62914342D02*
X248635714Y-63009580D01*
X248635714Y-63009580D02*
X248588095Y-63057200D01*
X248588095Y-63057200D02*
X248492857Y-63104819D01*
X248492857Y-63104819D02*
X248207143Y-63104819D01*
X248207143Y-63104819D02*
X248111905Y-63057200D01*
X248111905Y-63057200D02*
X248064286Y-63009580D01*
X186977257Y-26510534D02*
X187024877Y-26558153D01*
X187024877Y-26558153D02*
X187072496Y-26701010D01*
X187072496Y-26701010D02*
X187072496Y-26796248D01*
X187072496Y-26796248D02*
X187024877Y-26939105D01*
X187024877Y-26939105D02*
X186929638Y-27034343D01*
X186929638Y-27034343D02*
X186834400Y-27081962D01*
X186834400Y-27081962D02*
X186643924Y-27129581D01*
X186643924Y-27129581D02*
X186501067Y-27129581D01*
X186501067Y-27129581D02*
X186310591Y-27081962D01*
X186310591Y-27081962D02*
X186215353Y-27034343D01*
X186215353Y-27034343D02*
X186120115Y-26939105D01*
X186120115Y-26939105D02*
X186072496Y-26796248D01*
X186072496Y-26796248D02*
X186072496Y-26701010D01*
X186072496Y-26701010D02*
X186120115Y-26558153D01*
X186120115Y-26558153D02*
X186167734Y-26510534D01*
X186167734Y-26129581D02*
X186120115Y-26081962D01*
X186120115Y-26081962D02*
X186072496Y-25986724D01*
X186072496Y-25986724D02*
X186072496Y-25748629D01*
X186072496Y-25748629D02*
X186120115Y-25653391D01*
X186120115Y-25653391D02*
X186167734Y-25605772D01*
X186167734Y-25605772D02*
X186262972Y-25558153D01*
X186262972Y-25558153D02*
X186358210Y-25558153D01*
X186358210Y-25558153D02*
X186501067Y-25605772D01*
X186501067Y-25605772D02*
X187072496Y-26177200D01*
X187072496Y-26177200D02*
X187072496Y-25558153D01*
X186072496Y-24653391D02*
X186072496Y-25129581D01*
X186072496Y-25129581D02*
X186548686Y-25177200D01*
X186548686Y-25177200D02*
X186501067Y-25129581D01*
X186501067Y-25129581D02*
X186453448Y-25034343D01*
X186453448Y-25034343D02*
X186453448Y-24796248D01*
X186453448Y-24796248D02*
X186501067Y-24701010D01*
X186501067Y-24701010D02*
X186548686Y-24653391D01*
X186548686Y-24653391D02*
X186643924Y-24605772D01*
X186643924Y-24605772D02*
X186882019Y-24605772D01*
X186882019Y-24605772D02*
X186977257Y-24653391D01*
X186977257Y-24653391D02*
X187024877Y-24701010D01*
X187024877Y-24701010D02*
X187072496Y-24796248D01*
X187072496Y-24796248D02*
X187072496Y-25034343D01*
X187072496Y-25034343D02*
X187024877Y-25129581D01*
X187024877Y-25129581D02*
X186977257Y-25177200D01*
X226016667Y-63057200D02*
X226159524Y-63104819D01*
X226159524Y-63104819D02*
X226397619Y-63104819D01*
X226397619Y-63104819D02*
X226492857Y-63057200D01*
X226492857Y-63057200D02*
X226540476Y-63009580D01*
X226540476Y-63009580D02*
X226588095Y-62914342D01*
X226588095Y-62914342D02*
X226588095Y-62819104D01*
X226588095Y-62819104D02*
X226540476Y-62723866D01*
X226540476Y-62723866D02*
X226492857Y-62676247D01*
X226492857Y-62676247D02*
X226397619Y-62628628D01*
X226397619Y-62628628D02*
X226207143Y-62581009D01*
X226207143Y-62581009D02*
X226111905Y-62533390D01*
X226111905Y-62533390D02*
X226064286Y-62485771D01*
X226064286Y-62485771D02*
X226016667Y-62390533D01*
X226016667Y-62390533D02*
X226016667Y-62295295D01*
X226016667Y-62295295D02*
X226064286Y-62200057D01*
X226064286Y-62200057D02*
X226111905Y-62152438D01*
X226111905Y-62152438D02*
X226207143Y-62104819D01*
X226207143Y-62104819D02*
X226445238Y-62104819D01*
X226445238Y-62104819D02*
X226588095Y-62152438D01*
X226921429Y-62104819D02*
X227159524Y-63104819D01*
X227159524Y-63104819D02*
X227350000Y-62390533D01*
X227350000Y-62390533D02*
X227540476Y-63104819D01*
X227540476Y-63104819D02*
X227778572Y-62104819D01*
X228683333Y-63104819D02*
X228111905Y-63104819D01*
X228397619Y-63104819D02*
X228397619Y-62104819D01*
X228397619Y-62104819D02*
X228302381Y-62247676D01*
X228302381Y-62247676D02*
X228207143Y-62342914D01*
X228207143Y-62342914D02*
X228111905Y-62390533D01*
X169238095Y-24954819D02*
X169238095Y-25764342D01*
X169238095Y-25764342D02*
X169285714Y-25859580D01*
X169285714Y-25859580D02*
X169333333Y-25907200D01*
X169333333Y-25907200D02*
X169428571Y-25954819D01*
X169428571Y-25954819D02*
X169619047Y-25954819D01*
X169619047Y-25954819D02*
X169714285Y-25907200D01*
X169714285Y-25907200D02*
X169761904Y-25859580D01*
X169761904Y-25859580D02*
X169809523Y-25764342D01*
X169809523Y-25764342D02*
X169809523Y-24954819D01*
X170714285Y-25288152D02*
X170714285Y-25954819D01*
X170476190Y-24907200D02*
X170238095Y-25621485D01*
X170238095Y-25621485D02*
X170857142Y-25621485D01*
D10*
X265542580Y-47666666D02*
X264828295Y-47666666D01*
X264828295Y-47666666D02*
X264685438Y-47619047D01*
X264685438Y-47619047D02*
X264590200Y-47523809D01*
X264590200Y-47523809D02*
X264542580Y-47380952D01*
X264542580Y-47380952D02*
X264542580Y-47285714D01*
X265542580Y-48619047D02*
X265542580Y-48142857D01*
X265542580Y-48142857D02*
X265066390Y-48095238D01*
X265066390Y-48095238D02*
X265114009Y-48142857D01*
X265114009Y-48142857D02*
X265161628Y-48238095D01*
X265161628Y-48238095D02*
X265161628Y-48476190D01*
X265161628Y-48476190D02*
X265114009Y-48571428D01*
X265114009Y-48571428D02*
X265066390Y-48619047D01*
X265066390Y-48619047D02*
X264971152Y-48666666D01*
X264971152Y-48666666D02*
X264733057Y-48666666D01*
X264733057Y-48666666D02*
X264637819Y-48619047D01*
X264637819Y-48619047D02*
X264590200Y-48571428D01*
X264590200Y-48571428D02*
X264542580Y-48476190D01*
X264542580Y-48476190D02*
X264542580Y-48238095D01*
X264542580Y-48238095D02*
X264590200Y-48142857D01*
X264590200Y-48142857D02*
X264637819Y-48095238D01*
X148957419Y-49133333D02*
X149671704Y-49133333D01*
X149671704Y-49133333D02*
X149814561Y-49180952D01*
X149814561Y-49180952D02*
X149909800Y-49276190D01*
X149909800Y-49276190D02*
X149957419Y-49419047D01*
X149957419Y-49419047D02*
X149957419Y-49514285D01*
X149290752Y-48228571D02*
X149957419Y-48228571D01*
X148909800Y-48466666D02*
X149624085Y-48704761D01*
X149624085Y-48704761D02*
X149624085Y-48085714D01*
D12*
X178238095Y-52454819D02*
X178238095Y-53264342D01*
X178238095Y-53264342D02*
X178285714Y-53359580D01*
X178285714Y-53359580D02*
X178333333Y-53407200D01*
X178333333Y-53407200D02*
X178428571Y-53454819D01*
X178428571Y-53454819D02*
X178619047Y-53454819D01*
X178619047Y-53454819D02*
X178714285Y-53407200D01*
X178714285Y-53407200D02*
X178761904Y-53359580D01*
X178761904Y-53359580D02*
X178809523Y-53264342D01*
X178809523Y-53264342D02*
X178809523Y-52454819D01*
X179190476Y-52454819D02*
X179809523Y-52454819D01*
X179809523Y-52454819D02*
X179476190Y-52835771D01*
X179476190Y-52835771D02*
X179619047Y-52835771D01*
X179619047Y-52835771D02*
X179714285Y-52883390D01*
X179714285Y-52883390D02*
X179761904Y-52931009D01*
X179761904Y-52931009D02*
X179809523Y-53026247D01*
X179809523Y-53026247D02*
X179809523Y-53264342D01*
X179809523Y-53264342D02*
X179761904Y-53359580D01*
X179761904Y-53359580D02*
X179714285Y-53407200D01*
X179714285Y-53407200D02*
X179619047Y-53454819D01*
X179619047Y-53454819D02*
X179333333Y-53454819D01*
X179333333Y-53454819D02*
X179238095Y-53407200D01*
X179238095Y-53407200D02*
X179190476Y-53359580D01*
X161854819Y-51442857D02*
X161378628Y-51776190D01*
X161854819Y-52014285D02*
X160854819Y-52014285D01*
X160854819Y-52014285D02*
X160854819Y-51633333D01*
X160854819Y-51633333D02*
X160902438Y-51538095D01*
X160902438Y-51538095D02*
X160950057Y-51490476D01*
X160950057Y-51490476D02*
X161045295Y-51442857D01*
X161045295Y-51442857D02*
X161188152Y-51442857D01*
X161188152Y-51442857D02*
X161283390Y-51490476D01*
X161283390Y-51490476D02*
X161331009Y-51538095D01*
X161331009Y-51538095D02*
X161378628Y-51633333D01*
X161378628Y-51633333D02*
X161378628Y-52014285D01*
X161188152Y-50585714D02*
X161854819Y-50585714D01*
X160807200Y-50823809D02*
X161521485Y-51061904D01*
X161521485Y-51061904D02*
X161521485Y-50442857D01*
X160950057Y-50109523D02*
X160902438Y-50061904D01*
X160902438Y-50061904D02*
X160854819Y-49966666D01*
X160854819Y-49966666D02*
X160854819Y-49728571D01*
X160854819Y-49728571D02*
X160902438Y-49633333D01*
X160902438Y-49633333D02*
X160950057Y-49585714D01*
X160950057Y-49585714D02*
X161045295Y-49538095D01*
X161045295Y-49538095D02*
X161140533Y-49538095D01*
X161140533Y-49538095D02*
X161283390Y-49585714D01*
X161283390Y-49585714D02*
X161854819Y-50157142D01*
X161854819Y-50157142D02*
X161854819Y-49538095D01*
X143454819Y-37042857D02*
X142978628Y-37376190D01*
X143454819Y-37614285D02*
X142454819Y-37614285D01*
X142454819Y-37614285D02*
X142454819Y-37233333D01*
X142454819Y-37233333D02*
X142502438Y-37138095D01*
X142502438Y-37138095D02*
X142550057Y-37090476D01*
X142550057Y-37090476D02*
X142645295Y-37042857D01*
X142645295Y-37042857D02*
X142788152Y-37042857D01*
X142788152Y-37042857D02*
X142883390Y-37090476D01*
X142883390Y-37090476D02*
X142931009Y-37138095D01*
X142931009Y-37138095D02*
X142978628Y-37233333D01*
X142978628Y-37233333D02*
X142978628Y-37614285D01*
X142788152Y-36185714D02*
X143454819Y-36185714D01*
X142407200Y-36423809D02*
X143121485Y-36661904D01*
X143121485Y-36661904D02*
X143121485Y-36042857D01*
X143454819Y-35614285D02*
X143454819Y-35423809D01*
X143454819Y-35423809D02*
X143407200Y-35328571D01*
X143407200Y-35328571D02*
X143359580Y-35280952D01*
X143359580Y-35280952D02*
X143216723Y-35185714D01*
X143216723Y-35185714D02*
X143026247Y-35138095D01*
X143026247Y-35138095D02*
X142645295Y-35138095D01*
X142645295Y-35138095D02*
X142550057Y-35185714D01*
X142550057Y-35185714D02*
X142502438Y-35233333D01*
X142502438Y-35233333D02*
X142454819Y-35328571D01*
X142454819Y-35328571D02*
X142454819Y-35519047D01*
X142454819Y-35519047D02*
X142502438Y-35614285D01*
X142502438Y-35614285D02*
X142550057Y-35661904D01*
X142550057Y-35661904D02*
X142645295Y-35709523D01*
X142645295Y-35709523D02*
X142883390Y-35709523D01*
X142883390Y-35709523D02*
X142978628Y-35661904D01*
X142978628Y-35661904D02*
X143026247Y-35614285D01*
X143026247Y-35614285D02*
X143073866Y-35519047D01*
X143073866Y-35519047D02*
X143073866Y-35328571D01*
X143073866Y-35328571D02*
X143026247Y-35233333D01*
X143026247Y-35233333D02*
X142978628Y-35185714D01*
X142978628Y-35185714D02*
X142883390Y-35138095D01*
X260333333Y-18954819D02*
X260000000Y-18478628D01*
X259761905Y-18954819D02*
X259761905Y-17954819D01*
X259761905Y-17954819D02*
X260142857Y-17954819D01*
X260142857Y-17954819D02*
X260238095Y-18002438D01*
X260238095Y-18002438D02*
X260285714Y-18050057D01*
X260285714Y-18050057D02*
X260333333Y-18145295D01*
X260333333Y-18145295D02*
X260333333Y-18288152D01*
X260333333Y-18288152D02*
X260285714Y-18383390D01*
X260285714Y-18383390D02*
X260238095Y-18431009D01*
X260238095Y-18431009D02*
X260142857Y-18478628D01*
X260142857Y-18478628D02*
X259761905Y-18478628D01*
X260904762Y-18383390D02*
X260809524Y-18335771D01*
X260809524Y-18335771D02*
X260761905Y-18288152D01*
X260761905Y-18288152D02*
X260714286Y-18192914D01*
X260714286Y-18192914D02*
X260714286Y-18145295D01*
X260714286Y-18145295D02*
X260761905Y-18050057D01*
X260761905Y-18050057D02*
X260809524Y-18002438D01*
X260809524Y-18002438D02*
X260904762Y-17954819D01*
X260904762Y-17954819D02*
X261095238Y-17954819D01*
X261095238Y-17954819D02*
X261190476Y-18002438D01*
X261190476Y-18002438D02*
X261238095Y-18050057D01*
X261238095Y-18050057D02*
X261285714Y-18145295D01*
X261285714Y-18145295D02*
X261285714Y-18192914D01*
X261285714Y-18192914D02*
X261238095Y-18288152D01*
X261238095Y-18288152D02*
X261190476Y-18335771D01*
X261190476Y-18335771D02*
X261095238Y-18383390D01*
X261095238Y-18383390D02*
X260904762Y-18383390D01*
X260904762Y-18383390D02*
X260809524Y-18431009D01*
X260809524Y-18431009D02*
X260761905Y-18478628D01*
X260761905Y-18478628D02*
X260714286Y-18573866D01*
X260714286Y-18573866D02*
X260714286Y-18764342D01*
X260714286Y-18764342D02*
X260761905Y-18859580D01*
X260761905Y-18859580D02*
X260809524Y-18907200D01*
X260809524Y-18907200D02*
X260904762Y-18954819D01*
X260904762Y-18954819D02*
X261095238Y-18954819D01*
X261095238Y-18954819D02*
X261190476Y-18907200D01*
X261190476Y-18907200D02*
X261238095Y-18859580D01*
X261238095Y-18859580D02*
X261285714Y-18764342D01*
X261285714Y-18764342D02*
X261285714Y-18573866D01*
X261285714Y-18573866D02*
X261238095Y-18478628D01*
X261238095Y-18478628D02*
X261190476Y-18431009D01*
X261190476Y-18431009D02*
X261095238Y-18383390D01*
X152484819Y-32442857D02*
X152008628Y-32776190D01*
X152484819Y-33014285D02*
X151484819Y-33014285D01*
X151484819Y-33014285D02*
X151484819Y-32633333D01*
X151484819Y-32633333D02*
X151532438Y-32538095D01*
X151532438Y-32538095D02*
X151580057Y-32490476D01*
X151580057Y-32490476D02*
X151675295Y-32442857D01*
X151675295Y-32442857D02*
X151818152Y-32442857D01*
X151818152Y-32442857D02*
X151913390Y-32490476D01*
X151913390Y-32490476D02*
X151961009Y-32538095D01*
X151961009Y-32538095D02*
X152008628Y-32633333D01*
X152008628Y-32633333D02*
X152008628Y-33014285D01*
X151484819Y-31538095D02*
X151484819Y-32014285D01*
X151484819Y-32014285D02*
X151961009Y-32061904D01*
X151961009Y-32061904D02*
X151913390Y-32014285D01*
X151913390Y-32014285D02*
X151865771Y-31919047D01*
X151865771Y-31919047D02*
X151865771Y-31680952D01*
X151865771Y-31680952D02*
X151913390Y-31585714D01*
X151913390Y-31585714D02*
X151961009Y-31538095D01*
X151961009Y-31538095D02*
X152056247Y-31490476D01*
X152056247Y-31490476D02*
X152294342Y-31490476D01*
X152294342Y-31490476D02*
X152389580Y-31538095D01*
X152389580Y-31538095D02*
X152437200Y-31585714D01*
X152437200Y-31585714D02*
X152484819Y-31680952D01*
X152484819Y-31680952D02*
X152484819Y-31919047D01*
X152484819Y-31919047D02*
X152437200Y-32014285D01*
X152437200Y-32014285D02*
X152389580Y-32061904D01*
X151484819Y-31157142D02*
X151484819Y-30538095D01*
X151484819Y-30538095D02*
X151865771Y-30871428D01*
X151865771Y-30871428D02*
X151865771Y-30728571D01*
X151865771Y-30728571D02*
X151913390Y-30633333D01*
X151913390Y-30633333D02*
X151961009Y-30585714D01*
X151961009Y-30585714D02*
X152056247Y-30538095D01*
X152056247Y-30538095D02*
X152294342Y-30538095D01*
X152294342Y-30538095D02*
X152389580Y-30585714D01*
X152389580Y-30585714D02*
X152437200Y-30633333D01*
X152437200Y-30633333D02*
X152484819Y-30728571D01*
X152484819Y-30728571D02*
X152484819Y-31014285D01*
X152484819Y-31014285D02*
X152437200Y-31109523D01*
X152437200Y-31109523D02*
X152389580Y-31157142D01*
X152357142Y-18159580D02*
X152309523Y-18207200D01*
X152309523Y-18207200D02*
X152166666Y-18254819D01*
X152166666Y-18254819D02*
X152071428Y-18254819D01*
X152071428Y-18254819D02*
X151928571Y-18207200D01*
X151928571Y-18207200D02*
X151833333Y-18111961D01*
X151833333Y-18111961D02*
X151785714Y-18016723D01*
X151785714Y-18016723D02*
X151738095Y-17826247D01*
X151738095Y-17826247D02*
X151738095Y-17683390D01*
X151738095Y-17683390D02*
X151785714Y-17492914D01*
X151785714Y-17492914D02*
X151833333Y-17397676D01*
X151833333Y-17397676D02*
X151928571Y-17302438D01*
X151928571Y-17302438D02*
X152071428Y-17254819D01*
X152071428Y-17254819D02*
X152166666Y-17254819D01*
X152166666Y-17254819D02*
X152309523Y-17302438D01*
X152309523Y-17302438D02*
X152357142Y-17350057D01*
X152690476Y-17254819D02*
X153309523Y-17254819D01*
X153309523Y-17254819D02*
X152976190Y-17635771D01*
X152976190Y-17635771D02*
X153119047Y-17635771D01*
X153119047Y-17635771D02*
X153214285Y-17683390D01*
X153214285Y-17683390D02*
X153261904Y-17731009D01*
X153261904Y-17731009D02*
X153309523Y-17826247D01*
X153309523Y-17826247D02*
X153309523Y-18064342D01*
X153309523Y-18064342D02*
X153261904Y-18159580D01*
X153261904Y-18159580D02*
X153214285Y-18207200D01*
X153214285Y-18207200D02*
X153119047Y-18254819D01*
X153119047Y-18254819D02*
X152833333Y-18254819D01*
X152833333Y-18254819D02*
X152738095Y-18207200D01*
X152738095Y-18207200D02*
X152690476Y-18159580D01*
X153928571Y-17254819D02*
X154023809Y-17254819D01*
X154023809Y-17254819D02*
X154119047Y-17302438D01*
X154119047Y-17302438D02*
X154166666Y-17350057D01*
X154166666Y-17350057D02*
X154214285Y-17445295D01*
X154214285Y-17445295D02*
X154261904Y-17635771D01*
X154261904Y-17635771D02*
X154261904Y-17873866D01*
X154261904Y-17873866D02*
X154214285Y-18064342D01*
X154214285Y-18064342D02*
X154166666Y-18159580D01*
X154166666Y-18159580D02*
X154119047Y-18207200D01*
X154119047Y-18207200D02*
X154023809Y-18254819D01*
X154023809Y-18254819D02*
X153928571Y-18254819D01*
X153928571Y-18254819D02*
X153833333Y-18207200D01*
X153833333Y-18207200D02*
X153785714Y-18159580D01*
X153785714Y-18159580D02*
X153738095Y-18064342D01*
X153738095Y-18064342D02*
X153690476Y-17873866D01*
X153690476Y-17873866D02*
X153690476Y-17635771D01*
X153690476Y-17635771D02*
X153738095Y-17445295D01*
X153738095Y-17445295D02*
X153785714Y-17350057D01*
X153785714Y-17350057D02*
X153833333Y-17302438D01*
X153833333Y-17302438D02*
X153928571Y-17254819D01*
X169132142Y-56424819D02*
X168798809Y-55948628D01*
X168560714Y-56424819D02*
X168560714Y-55424819D01*
X168560714Y-55424819D02*
X168941666Y-55424819D01*
X168941666Y-55424819D02*
X169036904Y-55472438D01*
X169036904Y-55472438D02*
X169084523Y-55520057D01*
X169084523Y-55520057D02*
X169132142Y-55615295D01*
X169132142Y-55615295D02*
X169132142Y-55758152D01*
X169132142Y-55758152D02*
X169084523Y-55853390D01*
X169084523Y-55853390D02*
X169036904Y-55901009D01*
X169036904Y-55901009D02*
X168941666Y-55948628D01*
X168941666Y-55948628D02*
X168560714Y-55948628D01*
X169513095Y-55520057D02*
X169560714Y-55472438D01*
X169560714Y-55472438D02*
X169655952Y-55424819D01*
X169655952Y-55424819D02*
X169894047Y-55424819D01*
X169894047Y-55424819D02*
X169989285Y-55472438D01*
X169989285Y-55472438D02*
X170036904Y-55520057D01*
X170036904Y-55520057D02*
X170084523Y-55615295D01*
X170084523Y-55615295D02*
X170084523Y-55710533D01*
X170084523Y-55710533D02*
X170036904Y-55853390D01*
X170036904Y-55853390D02*
X169465476Y-56424819D01*
X169465476Y-56424819D02*
X170084523Y-56424819D01*
X170417857Y-55424819D02*
X171084523Y-55424819D01*
X171084523Y-55424819D02*
X170655952Y-56424819D01*
X143729580Y-40417857D02*
X143777200Y-40465476D01*
X143777200Y-40465476D02*
X143824819Y-40608333D01*
X143824819Y-40608333D02*
X143824819Y-40703571D01*
X143824819Y-40703571D02*
X143777200Y-40846428D01*
X143777200Y-40846428D02*
X143681961Y-40941666D01*
X143681961Y-40941666D02*
X143586723Y-40989285D01*
X143586723Y-40989285D02*
X143396247Y-41036904D01*
X143396247Y-41036904D02*
X143253390Y-41036904D01*
X143253390Y-41036904D02*
X143062914Y-40989285D01*
X143062914Y-40989285D02*
X142967676Y-40941666D01*
X142967676Y-40941666D02*
X142872438Y-40846428D01*
X142872438Y-40846428D02*
X142824819Y-40703571D01*
X142824819Y-40703571D02*
X142824819Y-40608333D01*
X142824819Y-40608333D02*
X142872438Y-40465476D01*
X142872438Y-40465476D02*
X142920057Y-40417857D01*
X142920057Y-40036904D02*
X142872438Y-39989285D01*
X142872438Y-39989285D02*
X142824819Y-39894047D01*
X142824819Y-39894047D02*
X142824819Y-39655952D01*
X142824819Y-39655952D02*
X142872438Y-39560714D01*
X142872438Y-39560714D02*
X142920057Y-39513095D01*
X142920057Y-39513095D02*
X143015295Y-39465476D01*
X143015295Y-39465476D02*
X143110533Y-39465476D01*
X143110533Y-39465476D02*
X143253390Y-39513095D01*
X143253390Y-39513095D02*
X143824819Y-40084523D01*
X143824819Y-40084523D02*
X143824819Y-39465476D01*
X142824819Y-38608333D02*
X142824819Y-38798809D01*
X142824819Y-38798809D02*
X142872438Y-38894047D01*
X142872438Y-38894047D02*
X142920057Y-38941666D01*
X142920057Y-38941666D02*
X143062914Y-39036904D01*
X143062914Y-39036904D02*
X143253390Y-39084523D01*
X143253390Y-39084523D02*
X143634342Y-39084523D01*
X143634342Y-39084523D02*
X143729580Y-39036904D01*
X143729580Y-39036904D02*
X143777200Y-38989285D01*
X143777200Y-38989285D02*
X143824819Y-38894047D01*
X143824819Y-38894047D02*
X143824819Y-38703571D01*
X143824819Y-38703571D02*
X143777200Y-38608333D01*
X143777200Y-38608333D02*
X143729580Y-38560714D01*
X143729580Y-38560714D02*
X143634342Y-38513095D01*
X143634342Y-38513095D02*
X143396247Y-38513095D01*
X143396247Y-38513095D02*
X143301009Y-38560714D01*
X143301009Y-38560714D02*
X143253390Y-38608333D01*
X143253390Y-38608333D02*
X143205771Y-38703571D01*
X143205771Y-38703571D02*
X143205771Y-38894047D01*
X143205771Y-38894047D02*
X143253390Y-38989285D01*
X143253390Y-38989285D02*
X143301009Y-39036904D01*
X143301009Y-39036904D02*
X143396247Y-39084523D01*
X165284819Y-43842857D02*
X164808628Y-44176190D01*
X165284819Y-44414285D02*
X164284819Y-44414285D01*
X164284819Y-44414285D02*
X164284819Y-44033333D01*
X164284819Y-44033333D02*
X164332438Y-43938095D01*
X164332438Y-43938095D02*
X164380057Y-43890476D01*
X164380057Y-43890476D02*
X164475295Y-43842857D01*
X164475295Y-43842857D02*
X164618152Y-43842857D01*
X164618152Y-43842857D02*
X164713390Y-43890476D01*
X164713390Y-43890476D02*
X164761009Y-43938095D01*
X164761009Y-43938095D02*
X164808628Y-44033333D01*
X164808628Y-44033333D02*
X164808628Y-44414285D01*
X164618152Y-42985714D02*
X165284819Y-42985714D01*
X164237200Y-43223809D02*
X164951485Y-43461904D01*
X164951485Y-43461904D02*
X164951485Y-42842857D01*
X164284819Y-42557142D02*
X164284819Y-41938095D01*
X164284819Y-41938095D02*
X164665771Y-42271428D01*
X164665771Y-42271428D02*
X164665771Y-42128571D01*
X164665771Y-42128571D02*
X164713390Y-42033333D01*
X164713390Y-42033333D02*
X164761009Y-41985714D01*
X164761009Y-41985714D02*
X164856247Y-41938095D01*
X164856247Y-41938095D02*
X165094342Y-41938095D01*
X165094342Y-41938095D02*
X165189580Y-41985714D01*
X165189580Y-41985714D02*
X165237200Y-42033333D01*
X165237200Y-42033333D02*
X165284819Y-42128571D01*
X165284819Y-42128571D02*
X165284819Y-42414285D01*
X165284819Y-42414285D02*
X165237200Y-42509523D01*
X165237200Y-42509523D02*
X165189580Y-42557142D01*
D10*
X147179166Y-23227419D02*
X147179166Y-23941704D01*
X147179166Y-23941704D02*
X147131547Y-24084561D01*
X147131547Y-24084561D02*
X147036309Y-24179800D01*
X147036309Y-24179800D02*
X146893452Y-24227419D01*
X146893452Y-24227419D02*
X146798214Y-24227419D01*
X147560119Y-23227419D02*
X148226785Y-23227419D01*
X148226785Y-23227419D02*
X147798214Y-24227419D01*
D12*
X183104761Y-49550057D02*
X183009523Y-49502438D01*
X183009523Y-49502438D02*
X182914285Y-49407200D01*
X182914285Y-49407200D02*
X182771428Y-49264342D01*
X182771428Y-49264342D02*
X182676190Y-49216723D01*
X182676190Y-49216723D02*
X182580952Y-49216723D01*
X182628571Y-49454819D02*
X182533333Y-49407200D01*
X182533333Y-49407200D02*
X182438095Y-49311961D01*
X182438095Y-49311961D02*
X182390476Y-49121485D01*
X182390476Y-49121485D02*
X182390476Y-48788152D01*
X182390476Y-48788152D02*
X182438095Y-48597676D01*
X182438095Y-48597676D02*
X182533333Y-48502438D01*
X182533333Y-48502438D02*
X182628571Y-48454819D01*
X182628571Y-48454819D02*
X182819047Y-48454819D01*
X182819047Y-48454819D02*
X182914285Y-48502438D01*
X182914285Y-48502438D02*
X183009523Y-48597676D01*
X183009523Y-48597676D02*
X183057142Y-48788152D01*
X183057142Y-48788152D02*
X183057142Y-49121485D01*
X183057142Y-49121485D02*
X183009523Y-49311961D01*
X183009523Y-49311961D02*
X182914285Y-49407200D01*
X182914285Y-49407200D02*
X182819047Y-49454819D01*
X182819047Y-49454819D02*
X182628571Y-49454819D01*
X183914285Y-48788152D02*
X183914285Y-49454819D01*
X183676190Y-48407200D02*
X183438095Y-49121485D01*
X183438095Y-49121485D02*
X184057142Y-49121485D01*
D10*
X174523810Y-20457419D02*
X174523810Y-19457419D01*
X174523810Y-19457419D02*
X174761905Y-19457419D01*
X174761905Y-19457419D02*
X174904762Y-19505038D01*
X174904762Y-19505038D02*
X175000000Y-19600276D01*
X175000000Y-19600276D02*
X175047619Y-19695514D01*
X175047619Y-19695514D02*
X175095238Y-19885990D01*
X175095238Y-19885990D02*
X175095238Y-20028847D01*
X175095238Y-20028847D02*
X175047619Y-20219323D01*
X175047619Y-20219323D02*
X175000000Y-20314561D01*
X175000000Y-20314561D02*
X174904762Y-20409800D01*
X174904762Y-20409800D02*
X174761905Y-20457419D01*
X174761905Y-20457419D02*
X174523810Y-20457419D01*
X175523810Y-20457419D02*
X175523810Y-19457419D01*
X176523809Y-20457419D02*
X175952381Y-20457419D01*
X176238095Y-20457419D02*
X176238095Y-19457419D01*
X176238095Y-19457419D02*
X176142857Y-19600276D01*
X176142857Y-19600276D02*
X176047619Y-19695514D01*
X176047619Y-19695514D02*
X175952381Y-19743133D01*
X168494360Y-21072419D02*
X168684836Y-21072419D01*
X168684836Y-21072419D02*
X168780074Y-21120038D01*
X168780074Y-21120038D02*
X168875312Y-21215276D01*
X168875312Y-21215276D02*
X168922931Y-21405752D01*
X168922931Y-21405752D02*
X168922931Y-21739085D01*
X168922931Y-21739085D02*
X168875312Y-21929561D01*
X168875312Y-21929561D02*
X168780074Y-22024800D01*
X168780074Y-22024800D02*
X168684836Y-22072419D01*
X168684836Y-22072419D02*
X168494360Y-22072419D01*
X168494360Y-22072419D02*
X168399122Y-22024800D01*
X168399122Y-22024800D02*
X168303884Y-21929561D01*
X168303884Y-21929561D02*
X168256265Y-21739085D01*
X168256265Y-21739085D02*
X168256265Y-21405752D01*
X168256265Y-21405752D02*
X168303884Y-21215276D01*
X168303884Y-21215276D02*
X168399122Y-21120038D01*
X168399122Y-21120038D02*
X168494360Y-21072419D01*
X169827693Y-22072419D02*
X169351503Y-22072419D01*
X169351503Y-22072419D02*
X169351503Y-21072419D01*
X170161027Y-21548609D02*
X170494360Y-21548609D01*
X170637217Y-22072419D02*
X170161027Y-22072419D01*
X170161027Y-22072419D02*
X170161027Y-21072419D01*
X170161027Y-21072419D02*
X170637217Y-21072419D01*
X171065789Y-22072419D02*
X171065789Y-21072419D01*
X171065789Y-21072419D02*
X171303884Y-21072419D01*
X171303884Y-21072419D02*
X171446741Y-21120038D01*
X171446741Y-21120038D02*
X171541979Y-21215276D01*
X171541979Y-21215276D02*
X171589598Y-21310514D01*
X171589598Y-21310514D02*
X171637217Y-21500990D01*
X171637217Y-21500990D02*
X171637217Y-21643847D01*
X171637217Y-21643847D02*
X171589598Y-21834323D01*
X171589598Y-21834323D02*
X171541979Y-21929561D01*
X171541979Y-21929561D02*
X171446741Y-22024800D01*
X171446741Y-22024800D02*
X171303884Y-22072419D01*
X171303884Y-22072419D02*
X171065789Y-22072419D01*
D12*
X142357142Y-34254819D02*
X142023809Y-33778628D01*
X141785714Y-34254819D02*
X141785714Y-33254819D01*
X141785714Y-33254819D02*
X142166666Y-33254819D01*
X142166666Y-33254819D02*
X142261904Y-33302438D01*
X142261904Y-33302438D02*
X142309523Y-33350057D01*
X142309523Y-33350057D02*
X142357142Y-33445295D01*
X142357142Y-33445295D02*
X142357142Y-33588152D01*
X142357142Y-33588152D02*
X142309523Y-33683390D01*
X142309523Y-33683390D02*
X142261904Y-33731009D01*
X142261904Y-33731009D02*
X142166666Y-33778628D01*
X142166666Y-33778628D02*
X141785714Y-33778628D01*
X143214285Y-33588152D02*
X143214285Y-34254819D01*
X142976190Y-33207200D02*
X142738095Y-33921485D01*
X142738095Y-33921485D02*
X143357142Y-33921485D01*
X143880952Y-33683390D02*
X143785714Y-33635771D01*
X143785714Y-33635771D02*
X143738095Y-33588152D01*
X143738095Y-33588152D02*
X143690476Y-33492914D01*
X143690476Y-33492914D02*
X143690476Y-33445295D01*
X143690476Y-33445295D02*
X143738095Y-33350057D01*
X143738095Y-33350057D02*
X143785714Y-33302438D01*
X143785714Y-33302438D02*
X143880952Y-33254819D01*
X143880952Y-33254819D02*
X144071428Y-33254819D01*
X144071428Y-33254819D02*
X144166666Y-33302438D01*
X144166666Y-33302438D02*
X144214285Y-33350057D01*
X144214285Y-33350057D02*
X144261904Y-33445295D01*
X144261904Y-33445295D02*
X144261904Y-33492914D01*
X144261904Y-33492914D02*
X144214285Y-33588152D01*
X144214285Y-33588152D02*
X144166666Y-33635771D01*
X144166666Y-33635771D02*
X144071428Y-33683390D01*
X144071428Y-33683390D02*
X143880952Y-33683390D01*
X143880952Y-33683390D02*
X143785714Y-33731009D01*
X143785714Y-33731009D02*
X143738095Y-33778628D01*
X143738095Y-33778628D02*
X143690476Y-33873866D01*
X143690476Y-33873866D02*
X143690476Y-34064342D01*
X143690476Y-34064342D02*
X143738095Y-34159580D01*
X143738095Y-34159580D02*
X143785714Y-34207200D01*
X143785714Y-34207200D02*
X143880952Y-34254819D01*
X143880952Y-34254819D02*
X144071428Y-34254819D01*
X144071428Y-34254819D02*
X144166666Y-34207200D01*
X144166666Y-34207200D02*
X144214285Y-34159580D01*
X144214285Y-34159580D02*
X144261904Y-34064342D01*
X144261904Y-34064342D02*
X144261904Y-33873866D01*
X144261904Y-33873866D02*
X144214285Y-33778628D01*
X144214285Y-33778628D02*
X144166666Y-33731009D01*
X144166666Y-33731009D02*
X144071428Y-33683390D01*
X160824819Y-43842857D02*
X160348628Y-44176190D01*
X160824819Y-44414285D02*
X159824819Y-44414285D01*
X159824819Y-44414285D02*
X159824819Y-44033333D01*
X159824819Y-44033333D02*
X159872438Y-43938095D01*
X159872438Y-43938095D02*
X159920057Y-43890476D01*
X159920057Y-43890476D02*
X160015295Y-43842857D01*
X160015295Y-43842857D02*
X160158152Y-43842857D01*
X160158152Y-43842857D02*
X160253390Y-43890476D01*
X160253390Y-43890476D02*
X160301009Y-43938095D01*
X160301009Y-43938095D02*
X160348628Y-44033333D01*
X160348628Y-44033333D02*
X160348628Y-44414285D01*
X160158152Y-42985714D02*
X160824819Y-42985714D01*
X159777200Y-43223809D02*
X160491485Y-43461904D01*
X160491485Y-43461904D02*
X160491485Y-42842857D01*
X159824819Y-42271428D02*
X159824819Y-42176190D01*
X159824819Y-42176190D02*
X159872438Y-42080952D01*
X159872438Y-42080952D02*
X159920057Y-42033333D01*
X159920057Y-42033333D02*
X160015295Y-41985714D01*
X160015295Y-41985714D02*
X160205771Y-41938095D01*
X160205771Y-41938095D02*
X160443866Y-41938095D01*
X160443866Y-41938095D02*
X160634342Y-41985714D01*
X160634342Y-41985714D02*
X160729580Y-42033333D01*
X160729580Y-42033333D02*
X160777200Y-42080952D01*
X160777200Y-42080952D02*
X160824819Y-42176190D01*
X160824819Y-42176190D02*
X160824819Y-42271428D01*
X160824819Y-42271428D02*
X160777200Y-42366666D01*
X160777200Y-42366666D02*
X160729580Y-42414285D01*
X160729580Y-42414285D02*
X160634342Y-42461904D01*
X160634342Y-42461904D02*
X160443866Y-42509523D01*
X160443866Y-42509523D02*
X160205771Y-42509523D01*
X160205771Y-42509523D02*
X160015295Y-42461904D01*
X160015295Y-42461904D02*
X159920057Y-42414285D01*
X159920057Y-42414285D02*
X159872438Y-42366666D01*
X159872438Y-42366666D02*
X159824819Y-42271428D01*
X173833333Y-43759580D02*
X173785714Y-43807200D01*
X173785714Y-43807200D02*
X173642857Y-43854819D01*
X173642857Y-43854819D02*
X173547619Y-43854819D01*
X173547619Y-43854819D02*
X173404762Y-43807200D01*
X173404762Y-43807200D02*
X173309524Y-43711961D01*
X173309524Y-43711961D02*
X173261905Y-43616723D01*
X173261905Y-43616723D02*
X173214286Y-43426247D01*
X173214286Y-43426247D02*
X173214286Y-43283390D01*
X173214286Y-43283390D02*
X173261905Y-43092914D01*
X173261905Y-43092914D02*
X173309524Y-42997676D01*
X173309524Y-42997676D02*
X173404762Y-42902438D01*
X173404762Y-42902438D02*
X173547619Y-42854819D01*
X173547619Y-42854819D02*
X173642857Y-42854819D01*
X173642857Y-42854819D02*
X173785714Y-42902438D01*
X173785714Y-42902438D02*
X173833333Y-42950057D01*
X174738095Y-42854819D02*
X174261905Y-42854819D01*
X174261905Y-42854819D02*
X174214286Y-43331009D01*
X174214286Y-43331009D02*
X174261905Y-43283390D01*
X174261905Y-43283390D02*
X174357143Y-43235771D01*
X174357143Y-43235771D02*
X174595238Y-43235771D01*
X174595238Y-43235771D02*
X174690476Y-43283390D01*
X174690476Y-43283390D02*
X174738095Y-43331009D01*
X174738095Y-43331009D02*
X174785714Y-43426247D01*
X174785714Y-43426247D02*
X174785714Y-43664342D01*
X174785714Y-43664342D02*
X174738095Y-43759580D01*
X174738095Y-43759580D02*
X174690476Y-43807200D01*
X174690476Y-43807200D02*
X174595238Y-43854819D01*
X174595238Y-43854819D02*
X174357143Y-43854819D01*
X174357143Y-43854819D02*
X174261905Y-43807200D01*
X174261905Y-43807200D02*
X174214286Y-43759580D01*
X169132142Y-60914819D02*
X168798809Y-60438628D01*
X168560714Y-60914819D02*
X168560714Y-59914819D01*
X168560714Y-59914819D02*
X168941666Y-59914819D01*
X168941666Y-59914819D02*
X169036904Y-59962438D01*
X169036904Y-59962438D02*
X169084523Y-60010057D01*
X169084523Y-60010057D02*
X169132142Y-60105295D01*
X169132142Y-60105295D02*
X169132142Y-60248152D01*
X169132142Y-60248152D02*
X169084523Y-60343390D01*
X169084523Y-60343390D02*
X169036904Y-60391009D01*
X169036904Y-60391009D02*
X168941666Y-60438628D01*
X168941666Y-60438628D02*
X168560714Y-60438628D01*
X169513095Y-60010057D02*
X169560714Y-59962438D01*
X169560714Y-59962438D02*
X169655952Y-59914819D01*
X169655952Y-59914819D02*
X169894047Y-59914819D01*
X169894047Y-59914819D02*
X169989285Y-59962438D01*
X169989285Y-59962438D02*
X170036904Y-60010057D01*
X170036904Y-60010057D02*
X170084523Y-60105295D01*
X170084523Y-60105295D02*
X170084523Y-60200533D01*
X170084523Y-60200533D02*
X170036904Y-60343390D01*
X170036904Y-60343390D02*
X169465476Y-60914819D01*
X169465476Y-60914819D02*
X170084523Y-60914819D01*
X170655952Y-60343390D02*
X170560714Y-60295771D01*
X170560714Y-60295771D02*
X170513095Y-60248152D01*
X170513095Y-60248152D02*
X170465476Y-60152914D01*
X170465476Y-60152914D02*
X170465476Y-60105295D01*
X170465476Y-60105295D02*
X170513095Y-60010057D01*
X170513095Y-60010057D02*
X170560714Y-59962438D01*
X170560714Y-59962438D02*
X170655952Y-59914819D01*
X170655952Y-59914819D02*
X170846428Y-59914819D01*
X170846428Y-59914819D02*
X170941666Y-59962438D01*
X170941666Y-59962438D02*
X170989285Y-60010057D01*
X170989285Y-60010057D02*
X171036904Y-60105295D01*
X171036904Y-60105295D02*
X171036904Y-60152914D01*
X171036904Y-60152914D02*
X170989285Y-60248152D01*
X170989285Y-60248152D02*
X170941666Y-60295771D01*
X170941666Y-60295771D02*
X170846428Y-60343390D01*
X170846428Y-60343390D02*
X170655952Y-60343390D01*
X170655952Y-60343390D02*
X170560714Y-60391009D01*
X170560714Y-60391009D02*
X170513095Y-60438628D01*
X170513095Y-60438628D02*
X170465476Y-60533866D01*
X170465476Y-60533866D02*
X170465476Y-60724342D01*
X170465476Y-60724342D02*
X170513095Y-60819580D01*
X170513095Y-60819580D02*
X170560714Y-60867200D01*
X170560714Y-60867200D02*
X170655952Y-60914819D01*
X170655952Y-60914819D02*
X170846428Y-60914819D01*
X170846428Y-60914819D02*
X170941666Y-60867200D01*
X170941666Y-60867200D02*
X170989285Y-60819580D01*
X170989285Y-60819580D02*
X171036904Y-60724342D01*
X171036904Y-60724342D02*
X171036904Y-60533866D01*
X171036904Y-60533866D02*
X170989285Y-60438628D01*
X170989285Y-60438628D02*
X170941666Y-60391009D01*
X170941666Y-60391009D02*
X170846428Y-60343390D01*
X178454819Y-26666666D02*
X177978628Y-26999999D01*
X178454819Y-27238094D02*
X177454819Y-27238094D01*
X177454819Y-27238094D02*
X177454819Y-26857142D01*
X177454819Y-26857142D02*
X177502438Y-26761904D01*
X177502438Y-26761904D02*
X177550057Y-26714285D01*
X177550057Y-26714285D02*
X177645295Y-26666666D01*
X177645295Y-26666666D02*
X177788152Y-26666666D01*
X177788152Y-26666666D02*
X177883390Y-26714285D01*
X177883390Y-26714285D02*
X177931009Y-26761904D01*
X177931009Y-26761904D02*
X177978628Y-26857142D01*
X177978628Y-26857142D02*
X177978628Y-27238094D01*
X178454819Y-25714285D02*
X178454819Y-26285713D01*
X178454819Y-25999999D02*
X177454819Y-25999999D01*
X177454819Y-25999999D02*
X177597676Y-26095237D01*
X177597676Y-26095237D02*
X177692914Y-26190475D01*
X177692914Y-26190475D02*
X177740533Y-26285713D01*
X147654819Y-31642857D02*
X147178628Y-31976190D01*
X147654819Y-32214285D02*
X146654819Y-32214285D01*
X146654819Y-32214285D02*
X146654819Y-31833333D01*
X146654819Y-31833333D02*
X146702438Y-31738095D01*
X146702438Y-31738095D02*
X146750057Y-31690476D01*
X146750057Y-31690476D02*
X146845295Y-31642857D01*
X146845295Y-31642857D02*
X146988152Y-31642857D01*
X146988152Y-31642857D02*
X147083390Y-31690476D01*
X147083390Y-31690476D02*
X147131009Y-31738095D01*
X147131009Y-31738095D02*
X147178628Y-31833333D01*
X147178628Y-31833333D02*
X147178628Y-32214285D01*
X146654819Y-30738095D02*
X146654819Y-31214285D01*
X146654819Y-31214285D02*
X147131009Y-31261904D01*
X147131009Y-31261904D02*
X147083390Y-31214285D01*
X147083390Y-31214285D02*
X147035771Y-31119047D01*
X147035771Y-31119047D02*
X147035771Y-30880952D01*
X147035771Y-30880952D02*
X147083390Y-30785714D01*
X147083390Y-30785714D02*
X147131009Y-30738095D01*
X147131009Y-30738095D02*
X147226247Y-30690476D01*
X147226247Y-30690476D02*
X147464342Y-30690476D01*
X147464342Y-30690476D02*
X147559580Y-30738095D01*
X147559580Y-30738095D02*
X147607200Y-30785714D01*
X147607200Y-30785714D02*
X147654819Y-30880952D01*
X147654819Y-30880952D02*
X147654819Y-31119047D01*
X147654819Y-31119047D02*
X147607200Y-31214285D01*
X147607200Y-31214285D02*
X147559580Y-31261904D01*
X146750057Y-30309523D02*
X146702438Y-30261904D01*
X146702438Y-30261904D02*
X146654819Y-30166666D01*
X146654819Y-30166666D02*
X146654819Y-29928571D01*
X146654819Y-29928571D02*
X146702438Y-29833333D01*
X146702438Y-29833333D02*
X146750057Y-29785714D01*
X146750057Y-29785714D02*
X146845295Y-29738095D01*
X146845295Y-29738095D02*
X146940533Y-29738095D01*
X146940533Y-29738095D02*
X147083390Y-29785714D01*
X147083390Y-29785714D02*
X147654819Y-30357142D01*
X147654819Y-30357142D02*
X147654819Y-29738095D01*
X186166666Y-38431009D02*
X185833333Y-38431009D01*
X185833333Y-38954819D02*
X185833333Y-37954819D01*
X185833333Y-37954819D02*
X186309523Y-37954819D01*
X187214285Y-38954819D02*
X186642857Y-38954819D01*
X186928571Y-38954819D02*
X186928571Y-37954819D01*
X186928571Y-37954819D02*
X186833333Y-38097676D01*
X186833333Y-38097676D02*
X186738095Y-38192914D01*
X186738095Y-38192914D02*
X186642857Y-38240533D01*
X185857142Y-44954819D02*
X185523809Y-44478628D01*
X185285714Y-44954819D02*
X185285714Y-43954819D01*
X185285714Y-43954819D02*
X185666666Y-43954819D01*
X185666666Y-43954819D02*
X185761904Y-44002438D01*
X185761904Y-44002438D02*
X185809523Y-44050057D01*
X185809523Y-44050057D02*
X185857142Y-44145295D01*
X185857142Y-44145295D02*
X185857142Y-44288152D01*
X185857142Y-44288152D02*
X185809523Y-44383390D01*
X185809523Y-44383390D02*
X185761904Y-44431009D01*
X185761904Y-44431009D02*
X185666666Y-44478628D01*
X185666666Y-44478628D02*
X185285714Y-44478628D01*
X186238095Y-44050057D02*
X186285714Y-44002438D01*
X186285714Y-44002438D02*
X186380952Y-43954819D01*
X186380952Y-43954819D02*
X186619047Y-43954819D01*
X186619047Y-43954819D02*
X186714285Y-44002438D01*
X186714285Y-44002438D02*
X186761904Y-44050057D01*
X186761904Y-44050057D02*
X186809523Y-44145295D01*
X186809523Y-44145295D02*
X186809523Y-44240533D01*
X186809523Y-44240533D02*
X186761904Y-44383390D01*
X186761904Y-44383390D02*
X186190476Y-44954819D01*
X186190476Y-44954819D02*
X186809523Y-44954819D01*
X187666666Y-44288152D02*
X187666666Y-44954819D01*
X187428571Y-43907200D02*
X187190476Y-44621485D01*
X187190476Y-44621485D02*
X187809523Y-44621485D01*
X201904761Y-36990057D02*
X201809523Y-36942438D01*
X201809523Y-36942438D02*
X201714285Y-36847200D01*
X201714285Y-36847200D02*
X201571428Y-36704342D01*
X201571428Y-36704342D02*
X201476190Y-36656723D01*
X201476190Y-36656723D02*
X201380952Y-36656723D01*
X201428571Y-36894819D02*
X201333333Y-36847200D01*
X201333333Y-36847200D02*
X201238095Y-36751961D01*
X201238095Y-36751961D02*
X201190476Y-36561485D01*
X201190476Y-36561485D02*
X201190476Y-36228152D01*
X201190476Y-36228152D02*
X201238095Y-36037676D01*
X201238095Y-36037676D02*
X201333333Y-35942438D01*
X201333333Y-35942438D02*
X201428571Y-35894819D01*
X201428571Y-35894819D02*
X201619047Y-35894819D01*
X201619047Y-35894819D02*
X201714285Y-35942438D01*
X201714285Y-35942438D02*
X201809523Y-36037676D01*
X201809523Y-36037676D02*
X201857142Y-36228152D01*
X201857142Y-36228152D02*
X201857142Y-36561485D01*
X201857142Y-36561485D02*
X201809523Y-36751961D01*
X201809523Y-36751961D02*
X201714285Y-36847200D01*
X201714285Y-36847200D02*
X201619047Y-36894819D01*
X201619047Y-36894819D02*
X201428571Y-36894819D01*
X202238095Y-35990057D02*
X202285714Y-35942438D01*
X202285714Y-35942438D02*
X202380952Y-35894819D01*
X202380952Y-35894819D02*
X202619047Y-35894819D01*
X202619047Y-35894819D02*
X202714285Y-35942438D01*
X202714285Y-35942438D02*
X202761904Y-35990057D01*
X202761904Y-35990057D02*
X202809523Y-36085295D01*
X202809523Y-36085295D02*
X202809523Y-36180533D01*
X202809523Y-36180533D02*
X202761904Y-36323390D01*
X202761904Y-36323390D02*
X202190476Y-36894819D01*
X202190476Y-36894819D02*
X202809523Y-36894819D01*
X236761905Y-37854819D02*
X236761905Y-36854819D01*
X236761905Y-36854819D02*
X237000000Y-36854819D01*
X237000000Y-36854819D02*
X237142857Y-36902438D01*
X237142857Y-36902438D02*
X237238095Y-36997676D01*
X237238095Y-36997676D02*
X237285714Y-37092914D01*
X237285714Y-37092914D02*
X237333333Y-37283390D01*
X237333333Y-37283390D02*
X237333333Y-37426247D01*
X237333333Y-37426247D02*
X237285714Y-37616723D01*
X237285714Y-37616723D02*
X237238095Y-37711961D01*
X237238095Y-37711961D02*
X237142857Y-37807200D01*
X237142857Y-37807200D02*
X237000000Y-37854819D01*
X237000000Y-37854819D02*
X236761905Y-37854819D01*
X237666667Y-36854819D02*
X238333333Y-36854819D01*
X238333333Y-36854819D02*
X237904762Y-37854819D01*
X158857142Y-25859580D02*
X158809523Y-25907200D01*
X158809523Y-25907200D02*
X158666666Y-25954819D01*
X158666666Y-25954819D02*
X158571428Y-25954819D01*
X158571428Y-25954819D02*
X158428571Y-25907200D01*
X158428571Y-25907200D02*
X158333333Y-25811961D01*
X158333333Y-25811961D02*
X158285714Y-25716723D01*
X158285714Y-25716723D02*
X158238095Y-25526247D01*
X158238095Y-25526247D02*
X158238095Y-25383390D01*
X158238095Y-25383390D02*
X158285714Y-25192914D01*
X158285714Y-25192914D02*
X158333333Y-25097676D01*
X158333333Y-25097676D02*
X158428571Y-25002438D01*
X158428571Y-25002438D02*
X158571428Y-24954819D01*
X158571428Y-24954819D02*
X158666666Y-24954819D01*
X158666666Y-24954819D02*
X158809523Y-25002438D01*
X158809523Y-25002438D02*
X158857142Y-25050057D01*
X159238095Y-25050057D02*
X159285714Y-25002438D01*
X159285714Y-25002438D02*
X159380952Y-24954819D01*
X159380952Y-24954819D02*
X159619047Y-24954819D01*
X159619047Y-24954819D02*
X159714285Y-25002438D01*
X159714285Y-25002438D02*
X159761904Y-25050057D01*
X159761904Y-25050057D02*
X159809523Y-25145295D01*
X159809523Y-25145295D02*
X159809523Y-25240533D01*
X159809523Y-25240533D02*
X159761904Y-25383390D01*
X159761904Y-25383390D02*
X159190476Y-25954819D01*
X159190476Y-25954819D02*
X159809523Y-25954819D01*
X160761904Y-25954819D02*
X160190476Y-25954819D01*
X160476190Y-25954819D02*
X160476190Y-24954819D01*
X160476190Y-24954819D02*
X160380952Y-25097676D01*
X160380952Y-25097676D02*
X160285714Y-25192914D01*
X160285714Y-25192914D02*
X160190476Y-25240533D01*
X176199819Y-49642857D02*
X175723628Y-49976190D01*
X176199819Y-50214285D02*
X175199819Y-50214285D01*
X175199819Y-50214285D02*
X175199819Y-49833333D01*
X175199819Y-49833333D02*
X175247438Y-49738095D01*
X175247438Y-49738095D02*
X175295057Y-49690476D01*
X175295057Y-49690476D02*
X175390295Y-49642857D01*
X175390295Y-49642857D02*
X175533152Y-49642857D01*
X175533152Y-49642857D02*
X175628390Y-49690476D01*
X175628390Y-49690476D02*
X175676009Y-49738095D01*
X175676009Y-49738095D02*
X175723628Y-49833333D01*
X175723628Y-49833333D02*
X175723628Y-50214285D01*
X175295057Y-49261904D02*
X175247438Y-49214285D01*
X175247438Y-49214285D02*
X175199819Y-49119047D01*
X175199819Y-49119047D02*
X175199819Y-48880952D01*
X175199819Y-48880952D02*
X175247438Y-48785714D01*
X175247438Y-48785714D02*
X175295057Y-48738095D01*
X175295057Y-48738095D02*
X175390295Y-48690476D01*
X175390295Y-48690476D02*
X175485533Y-48690476D01*
X175485533Y-48690476D02*
X175628390Y-48738095D01*
X175628390Y-48738095D02*
X176199819Y-49309523D01*
X176199819Y-49309523D02*
X176199819Y-48690476D01*
X175199819Y-47833333D02*
X175199819Y-48023809D01*
X175199819Y-48023809D02*
X175247438Y-48119047D01*
X175247438Y-48119047D02*
X175295057Y-48166666D01*
X175295057Y-48166666D02*
X175437914Y-48261904D01*
X175437914Y-48261904D02*
X175628390Y-48309523D01*
X175628390Y-48309523D02*
X176009342Y-48309523D01*
X176009342Y-48309523D02*
X176104580Y-48261904D01*
X176104580Y-48261904D02*
X176152200Y-48214285D01*
X176152200Y-48214285D02*
X176199819Y-48119047D01*
X176199819Y-48119047D02*
X176199819Y-47928571D01*
X176199819Y-47928571D02*
X176152200Y-47833333D01*
X176152200Y-47833333D02*
X176104580Y-47785714D01*
X176104580Y-47785714D02*
X176009342Y-47738095D01*
X176009342Y-47738095D02*
X175771247Y-47738095D01*
X175771247Y-47738095D02*
X175676009Y-47785714D01*
X175676009Y-47785714D02*
X175628390Y-47833333D01*
X175628390Y-47833333D02*
X175580771Y-47928571D01*
X175580771Y-47928571D02*
X175580771Y-48119047D01*
X175580771Y-48119047D02*
X175628390Y-48214285D01*
X175628390Y-48214285D02*
X175676009Y-48261904D01*
X175676009Y-48261904D02*
X175771247Y-48309523D01*
X236833333Y-32334819D02*
X236500000Y-31858628D01*
X236261905Y-32334819D02*
X236261905Y-31334819D01*
X236261905Y-31334819D02*
X236642857Y-31334819D01*
X236642857Y-31334819D02*
X236738095Y-31382438D01*
X236738095Y-31382438D02*
X236785714Y-31430057D01*
X236785714Y-31430057D02*
X236833333Y-31525295D01*
X236833333Y-31525295D02*
X236833333Y-31668152D01*
X236833333Y-31668152D02*
X236785714Y-31763390D01*
X236785714Y-31763390D02*
X236738095Y-31811009D01*
X236738095Y-31811009D02*
X236642857Y-31858628D01*
X236642857Y-31858628D02*
X236261905Y-31858628D01*
X237166667Y-31334819D02*
X237785714Y-31334819D01*
X237785714Y-31334819D02*
X237452381Y-31715771D01*
X237452381Y-31715771D02*
X237595238Y-31715771D01*
X237595238Y-31715771D02*
X237690476Y-31763390D01*
X237690476Y-31763390D02*
X237738095Y-31811009D01*
X237738095Y-31811009D02*
X237785714Y-31906247D01*
X237785714Y-31906247D02*
X237785714Y-32144342D01*
X237785714Y-32144342D02*
X237738095Y-32239580D01*
X237738095Y-32239580D02*
X237690476Y-32287200D01*
X237690476Y-32287200D02*
X237595238Y-32334819D01*
X237595238Y-32334819D02*
X237309524Y-32334819D01*
X237309524Y-32334819D02*
X237214286Y-32287200D01*
X237214286Y-32287200D02*
X237166667Y-32239580D01*
X159438095Y-28854819D02*
X159438095Y-29664342D01*
X159438095Y-29664342D02*
X159485714Y-29759580D01*
X159485714Y-29759580D02*
X159533333Y-29807200D01*
X159533333Y-29807200D02*
X159628571Y-29854819D01*
X159628571Y-29854819D02*
X159819047Y-29854819D01*
X159819047Y-29854819D02*
X159914285Y-29807200D01*
X159914285Y-29807200D02*
X159961904Y-29759580D01*
X159961904Y-29759580D02*
X160009523Y-29664342D01*
X160009523Y-29664342D02*
X160009523Y-28854819D01*
X160961904Y-28854819D02*
X160485714Y-28854819D01*
X160485714Y-28854819D02*
X160438095Y-29331009D01*
X160438095Y-29331009D02*
X160485714Y-29283390D01*
X160485714Y-29283390D02*
X160580952Y-29235771D01*
X160580952Y-29235771D02*
X160819047Y-29235771D01*
X160819047Y-29235771D02*
X160914285Y-29283390D01*
X160914285Y-29283390D02*
X160961904Y-29331009D01*
X160961904Y-29331009D02*
X161009523Y-29426247D01*
X161009523Y-29426247D02*
X161009523Y-29664342D01*
X161009523Y-29664342D02*
X160961904Y-29759580D01*
X160961904Y-29759580D02*
X160914285Y-29807200D01*
X160914285Y-29807200D02*
X160819047Y-29854819D01*
X160819047Y-29854819D02*
X160580952Y-29854819D01*
X160580952Y-29854819D02*
X160485714Y-29807200D01*
X160485714Y-29807200D02*
X160438095Y-29759580D01*
X149616666Y-64604819D02*
X149616666Y-65319104D01*
X149616666Y-65319104D02*
X149569047Y-65461961D01*
X149569047Y-65461961D02*
X149473809Y-65557200D01*
X149473809Y-65557200D02*
X149330952Y-65604819D01*
X149330952Y-65604819D02*
X149235714Y-65604819D01*
X149997619Y-64604819D02*
X150616666Y-64604819D01*
X150616666Y-64604819D02*
X150283333Y-64985771D01*
X150283333Y-64985771D02*
X150426190Y-64985771D01*
X150426190Y-64985771D02*
X150521428Y-65033390D01*
X150521428Y-65033390D02*
X150569047Y-65081009D01*
X150569047Y-65081009D02*
X150616666Y-65176247D01*
X150616666Y-65176247D02*
X150616666Y-65414342D01*
X150616666Y-65414342D02*
X150569047Y-65509580D01*
X150569047Y-65509580D02*
X150521428Y-65557200D01*
X150521428Y-65557200D02*
X150426190Y-65604819D01*
X150426190Y-65604819D02*
X150140476Y-65604819D01*
X150140476Y-65604819D02*
X150045238Y-65557200D01*
X150045238Y-65557200D02*
X149997619Y-65509580D01*
X189699819Y-40142857D02*
X189223628Y-40476190D01*
X189699819Y-40714285D02*
X188699819Y-40714285D01*
X188699819Y-40714285D02*
X188699819Y-40333333D01*
X188699819Y-40333333D02*
X188747438Y-40238095D01*
X188747438Y-40238095D02*
X188795057Y-40190476D01*
X188795057Y-40190476D02*
X188890295Y-40142857D01*
X188890295Y-40142857D02*
X189033152Y-40142857D01*
X189033152Y-40142857D02*
X189128390Y-40190476D01*
X189128390Y-40190476D02*
X189176009Y-40238095D01*
X189176009Y-40238095D02*
X189223628Y-40333333D01*
X189223628Y-40333333D02*
X189223628Y-40714285D01*
X189699819Y-39190476D02*
X189699819Y-39761904D01*
X189699819Y-39476190D02*
X188699819Y-39476190D01*
X188699819Y-39476190D02*
X188842676Y-39571428D01*
X188842676Y-39571428D02*
X188937914Y-39666666D01*
X188937914Y-39666666D02*
X188985533Y-39761904D01*
X189699819Y-38714285D02*
X189699819Y-38523809D01*
X189699819Y-38523809D02*
X189652200Y-38428571D01*
X189652200Y-38428571D02*
X189604580Y-38380952D01*
X189604580Y-38380952D02*
X189461723Y-38285714D01*
X189461723Y-38285714D02*
X189271247Y-38238095D01*
X189271247Y-38238095D02*
X188890295Y-38238095D01*
X188890295Y-38238095D02*
X188795057Y-38285714D01*
X188795057Y-38285714D02*
X188747438Y-38333333D01*
X188747438Y-38333333D02*
X188699819Y-38428571D01*
X188699819Y-38428571D02*
X188699819Y-38619047D01*
X188699819Y-38619047D02*
X188747438Y-38714285D01*
X188747438Y-38714285D02*
X188795057Y-38761904D01*
X188795057Y-38761904D02*
X188890295Y-38809523D01*
X188890295Y-38809523D02*
X189128390Y-38809523D01*
X189128390Y-38809523D02*
X189223628Y-38761904D01*
X189223628Y-38761904D02*
X189271247Y-38714285D01*
X189271247Y-38714285D02*
X189318866Y-38619047D01*
X189318866Y-38619047D02*
X189318866Y-38428571D01*
X189318866Y-38428571D02*
X189271247Y-38333333D01*
X189271247Y-38333333D02*
X189223628Y-38285714D01*
X189223628Y-38285714D02*
X189128390Y-38238095D01*
X157557142Y-53454819D02*
X157223809Y-52978628D01*
X156985714Y-53454819D02*
X156985714Y-52454819D01*
X156985714Y-52454819D02*
X157366666Y-52454819D01*
X157366666Y-52454819D02*
X157461904Y-52502438D01*
X157461904Y-52502438D02*
X157509523Y-52550057D01*
X157509523Y-52550057D02*
X157557142Y-52645295D01*
X157557142Y-52645295D02*
X157557142Y-52788152D01*
X157557142Y-52788152D02*
X157509523Y-52883390D01*
X157509523Y-52883390D02*
X157461904Y-52931009D01*
X157461904Y-52931009D02*
X157366666Y-52978628D01*
X157366666Y-52978628D02*
X156985714Y-52978628D01*
X158414285Y-52788152D02*
X158414285Y-53454819D01*
X158176190Y-52407200D02*
X157938095Y-53121485D01*
X157938095Y-53121485D02*
X158557142Y-53121485D01*
X159461904Y-53454819D02*
X158890476Y-53454819D01*
X159176190Y-53454819D02*
X159176190Y-52454819D01*
X159176190Y-52454819D02*
X159080952Y-52597676D01*
X159080952Y-52597676D02*
X158985714Y-52692914D01*
X158985714Y-52692914D02*
X158890476Y-52740533D01*
X265532142Y-18954819D02*
X265198809Y-18478628D01*
X264960714Y-18954819D02*
X264960714Y-17954819D01*
X264960714Y-17954819D02*
X265341666Y-17954819D01*
X265341666Y-17954819D02*
X265436904Y-18002438D01*
X265436904Y-18002438D02*
X265484523Y-18050057D01*
X265484523Y-18050057D02*
X265532142Y-18145295D01*
X265532142Y-18145295D02*
X265532142Y-18288152D01*
X265532142Y-18288152D02*
X265484523Y-18383390D01*
X265484523Y-18383390D02*
X265436904Y-18431009D01*
X265436904Y-18431009D02*
X265341666Y-18478628D01*
X265341666Y-18478628D02*
X264960714Y-18478628D01*
X265865476Y-17954819D02*
X266484523Y-17954819D01*
X266484523Y-17954819D02*
X266151190Y-18335771D01*
X266151190Y-18335771D02*
X266294047Y-18335771D01*
X266294047Y-18335771D02*
X266389285Y-18383390D01*
X266389285Y-18383390D02*
X266436904Y-18431009D01*
X266436904Y-18431009D02*
X266484523Y-18526247D01*
X266484523Y-18526247D02*
X266484523Y-18764342D01*
X266484523Y-18764342D02*
X266436904Y-18859580D01*
X266436904Y-18859580D02*
X266389285Y-18907200D01*
X266389285Y-18907200D02*
X266294047Y-18954819D01*
X266294047Y-18954819D02*
X266008333Y-18954819D01*
X266008333Y-18954819D02*
X265913095Y-18907200D01*
X265913095Y-18907200D02*
X265865476Y-18859580D01*
X267341666Y-18288152D02*
X267341666Y-18954819D01*
X267103571Y-17907200D02*
X266865476Y-18621485D01*
X266865476Y-18621485D02*
X267484523Y-18621485D01*
D10*
%TO.C,L1*%
X223700806Y-45000000D02*
G75*
G02*
X211299194Y-45000000I-6200806J0D01*
G01*
X211299194Y-45000000D02*
G75*
G02*
X223700806Y-45000000I6200806J0D01*
G01*
X230300000Y-45000000D02*
G75*
G02*
X204700000Y-45000000I-12800000J0D01*
G01*
X204700000Y-45000000D02*
G75*
G02*
X230300000Y-45000000I12800000J0D01*
G01*
%TO.C,Logo2*%
X217600000Y-21700000D02*
X212600000Y-16200000D01*
X217600000Y-22200000D02*
X212600000Y-17200000D01*
X217600000Y-22700000D02*
X212600000Y-18200000D01*
X217600000Y-23200000D02*
X212600000Y-19200000D01*
X225600000Y-27200000D02*
X230600000Y-31200000D01*
X225600000Y-27700000D02*
X230600000Y-32200000D01*
X225600000Y-28200000D02*
X230600000Y-33200000D01*
X225600000Y-28700000D02*
X230600000Y-34200000D01*
D13*
X222125000Y-25700000D02*
G75*
G02*
X220075000Y-25700000I-1025000J0D01*
G01*
X220075000Y-25700000D02*
G75*
G02*
X222125000Y-25700000I1025000J0D01*
G01*
D14*
X224100000Y-25200000D02*
G75*
G02*
X219100000Y-25200000I-2500000J0D01*
G01*
X219100000Y-25200000D02*
G75*
G02*
X224100000Y-25200000I2500000J0D01*
G01*
D15*
%TO.C,Logo1*%
G36*
X192942771Y-17885970D02*
G01*
X192959192Y-17900067D01*
X192990745Y-17944766D01*
X192989070Y-17981613D01*
X192954472Y-18009535D01*
X192925389Y-18019688D01*
X192865457Y-18048217D01*
X192796353Y-18100786D01*
X192723000Y-18171254D01*
X192650318Y-18253483D01*
X192583229Y-18341330D01*
X192526652Y-18428658D01*
X192485510Y-18509324D01*
X192464722Y-18577190D01*
X192463165Y-18596435D01*
X192454869Y-18629812D01*
X192435344Y-18667170D01*
X192412639Y-18695385D01*
X192398054Y-18702622D01*
X192372727Y-18695640D01*
X192364455Y-18692525D01*
X192328712Y-18661096D01*
X192307708Y-18607039D01*
X192304232Y-18539779D01*
X192309401Y-18506491D01*
X192339221Y-18410772D01*
X192386727Y-18318688D01*
X192456045Y-18223648D01*
X192551298Y-18119061D01*
X192552776Y-18117558D01*
X192653162Y-18019034D01*
X192735759Y-17946426D01*
X192803292Y-17898274D01*
X192858488Y-17873120D01*
X192904072Y-17869505D01*
X192942771Y-17885970D01*
G37*
G36*
X198191301Y-18212947D02*
G01*
X198200754Y-18217203D01*
X198246549Y-18248522D01*
X198281706Y-18289965D01*
X198303727Y-18334339D01*
X198310115Y-18374455D01*
X198298372Y-18403120D01*
X198268831Y-18413198D01*
X198238400Y-18402751D01*
X198198086Y-18376850D01*
X198188212Y-18368922D01*
X198142185Y-18338526D01*
X198099542Y-18332497D01*
X198086027Y-18334559D01*
X197993469Y-18367583D01*
X197894761Y-18428356D01*
X197794588Y-18512177D01*
X197697635Y-18614347D01*
X197608587Y-18730166D01*
X197532129Y-18854934D01*
X197497445Y-18924994D01*
X197458423Y-19010020D01*
X197429726Y-19067309D01*
X197408041Y-19100496D01*
X197390052Y-19113216D01*
X197372445Y-19109102D01*
X197351905Y-19091789D01*
X197348450Y-19088363D01*
X197326239Y-19049576D01*
X197324242Y-18995236D01*
X197342983Y-18921936D01*
X197382982Y-18826272D01*
X197391316Y-18808817D01*
X197427046Y-18739833D01*
X197464408Y-18680361D01*
X197509891Y-18621823D01*
X197569982Y-18555643D01*
X197626501Y-18497878D01*
X197749348Y-18381503D01*
X197857867Y-18294073D01*
X197954188Y-18234544D01*
X198040446Y-18201876D01*
X198118772Y-18195024D01*
X198191301Y-18212947D01*
G37*
G36*
X190515493Y-19234055D02*
G01*
X190530141Y-19270883D01*
X190530371Y-19278042D01*
X190514335Y-19333686D01*
X190469548Y-19379342D01*
X190400990Y-19410710D01*
X190367879Y-19418318D01*
X190313743Y-19431845D01*
X190288277Y-19447840D01*
X190287013Y-19454585D01*
X190277742Y-19470193D01*
X190261357Y-19470960D01*
X190217103Y-19476164D01*
X190191449Y-19504314D01*
X190188283Y-19523255D01*
X190172596Y-19550458D01*
X190124499Y-19574657D01*
X190115779Y-19577645D01*
X190063516Y-19599399D01*
X190021529Y-19624505D01*
X190013153Y-19631695D01*
X189981413Y-19655087D01*
X189960574Y-19661818D01*
X189935215Y-19673320D01*
X189900137Y-19701897D01*
X189890597Y-19711418D01*
X189834413Y-19752888D01*
X189774285Y-19769239D01*
X189719566Y-19758379D01*
X189709011Y-19752011D01*
X189680285Y-19718208D01*
X189677434Y-19673097D01*
X189701100Y-19614034D01*
X189751927Y-19538371D01*
X189764950Y-19521593D01*
X189811410Y-19462382D01*
X189853820Y-19407631D01*
X189884436Y-19367353D01*
X189888957Y-19361242D01*
X189929628Y-19320779D01*
X189974479Y-19292942D01*
X190024658Y-19281076D01*
X190053902Y-19296227D01*
X190061814Y-19338055D01*
X190058428Y-19364860D01*
X190054063Y-19403116D01*
X190057430Y-19421949D01*
X190058666Y-19422357D01*
X190082006Y-19414433D01*
X190127405Y-19393257D01*
X190187317Y-19362726D01*
X190254199Y-19326734D01*
X190320507Y-19289177D01*
X190347216Y-19273365D01*
X190422515Y-19235257D01*
X190479112Y-19222167D01*
X190515493Y-19234055D01*
G37*
G36*
X192805660Y-18943598D02*
G01*
X192841912Y-18984810D01*
X192843014Y-18987161D01*
X192849428Y-19036501D01*
X192827898Y-19080963D01*
X192784579Y-19112948D01*
X192731514Y-19124801D01*
X192675645Y-19133326D01*
X192629707Y-19152369D01*
X192600999Y-19177185D01*
X192596820Y-19203029D01*
X192600950Y-19209696D01*
X192629712Y-19230770D01*
X192644261Y-19234208D01*
X192679665Y-19247553D01*
X192721361Y-19280705D01*
X192759441Y-19323342D01*
X192783997Y-19365139D01*
X192788149Y-19384141D01*
X192774171Y-19440941D01*
X192735903Y-19508514D01*
X192678845Y-19580813D01*
X192608493Y-19651793D01*
X192530346Y-19715406D01*
X192449903Y-19765606D01*
X192434137Y-19773450D01*
X192393156Y-19796730D01*
X192366779Y-19818607D01*
X192365361Y-19820577D01*
X192318480Y-19869709D01*
X192262212Y-19886113D01*
X192228375Y-19881328D01*
X192175613Y-19856423D01*
X192149619Y-19820998D01*
X192153306Y-19780739D01*
X192166752Y-19761058D01*
X192203568Y-19729355D01*
X192232321Y-19713193D01*
X192267878Y-19694076D01*
X192319816Y-19659592D01*
X192380722Y-19615451D01*
X192443183Y-19567367D01*
X192499787Y-19521052D01*
X192543121Y-19482218D01*
X192565772Y-19456578D01*
X192566117Y-19455958D01*
X192577474Y-19434626D01*
X192579249Y-19420280D01*
X192566086Y-19406875D01*
X192532631Y-19388368D01*
X192485160Y-19364572D01*
X192409882Y-19315844D01*
X192367692Y-19262580D01*
X192358897Y-19205951D01*
X192383803Y-19147127D01*
X192417973Y-19108491D01*
X192512607Y-19029029D01*
X192601820Y-18971915D01*
X192682486Y-18938044D01*
X192751475Y-18928307D01*
X192805660Y-18943598D01*
G37*
G36*
X195955825Y-18900414D02*
G01*
X196003220Y-18918829D01*
X196017802Y-18926657D01*
X196089101Y-18983102D01*
X196130067Y-19054826D01*
X196140607Y-19124474D01*
X196136298Y-19166439D01*
X196119128Y-19201992D01*
X196082727Y-19242552D01*
X196065745Y-19258670D01*
X195942039Y-19354401D01*
X195790108Y-19438996D01*
X195622325Y-19507146D01*
X195527432Y-19540531D01*
X195460381Y-19566382D01*
X195416327Y-19587242D01*
X195390420Y-19605656D01*
X195377815Y-19624170D01*
X195374487Y-19637261D01*
X195380057Y-19663217D01*
X195408774Y-19688347D01*
X195448286Y-19709698D01*
X195495346Y-19735145D01*
X195517680Y-19757017D01*
X195522590Y-19783769D01*
X195521679Y-19794692D01*
X195515570Y-19822617D01*
X195499382Y-19837061D01*
X195463746Y-19843207D01*
X195430775Y-19845001D01*
X195372865Y-19844182D01*
X195324217Y-19837994D01*
X195309131Y-19833598D01*
X195250176Y-19792270D01*
X195214281Y-19730405D01*
X195203007Y-19654074D01*
X195217916Y-19569348D01*
X195231985Y-19533535D01*
X195270753Y-19466158D01*
X195330048Y-19384271D01*
X195360532Y-19347348D01*
X195559058Y-19347348D01*
X195559906Y-19362360D01*
X195567069Y-19368530D01*
X195587475Y-19365062D01*
X195628051Y-19351161D01*
X195673871Y-19334160D01*
X195770178Y-19292986D01*
X195854707Y-19246778D01*
X195922344Y-19199186D01*
X195967980Y-19153857D01*
X195986503Y-19114437D01*
X195986667Y-19110945D01*
X195973310Y-19076826D01*
X195937780Y-19062036D01*
X195886883Y-19067734D01*
X195842270Y-19086395D01*
X195797336Y-19115546D01*
X195743190Y-19157543D01*
X195686311Y-19206416D01*
X195633178Y-19256196D01*
X195590271Y-19300910D01*
X195564071Y-19334590D01*
X195559058Y-19347348D01*
X195360532Y-19347348D01*
X195403823Y-19294912D01*
X195486033Y-19205115D01*
X195570633Y-19121917D01*
X195631715Y-19068328D01*
X195724939Y-18993922D01*
X195798926Y-18941775D01*
X195858713Y-18910040D01*
X195909334Y-18896869D01*
X195955825Y-18900414D01*
G37*
G36*
X196763286Y-18975668D02*
G01*
X196786678Y-19010803D01*
X196789878Y-19036653D01*
X196773796Y-19082164D01*
X196730061Y-19135224D01*
X196663042Y-19191353D01*
X196596453Y-19234951D01*
X196526420Y-19281832D01*
X196466062Y-19332385D01*
X196421489Y-19380605D01*
X196398810Y-19420482D01*
X196397172Y-19430902D01*
X196412726Y-19461926D01*
X196456349Y-19481215D01*
X196523483Y-19487317D01*
X196566333Y-19484780D01*
X196672920Y-19469958D01*
X196770338Y-19448987D01*
X196849911Y-19424067D01*
X196898518Y-19400468D01*
X196938164Y-19380891D01*
X196970735Y-19384413D01*
X196980600Y-19389153D01*
X197000360Y-19403690D01*
X197008217Y-19424613D01*
X197003767Y-19458959D01*
X196986607Y-19513764D01*
X196971011Y-19556784D01*
X196956424Y-19609113D01*
X196952203Y-19653104D01*
X196954049Y-19664921D01*
X196959910Y-19718654D01*
X196944025Y-19760161D01*
X196910410Y-19780706D01*
X196900464Y-19781548D01*
X196870135Y-19774956D01*
X196846115Y-19750011D01*
X196823333Y-19705287D01*
X196800309Y-19658499D01*
X196780048Y-19626051D01*
X196772932Y-19618725D01*
X196745126Y-19619533D01*
X196698490Y-19639325D01*
X196639486Y-19674052D01*
X196574572Y-19719662D01*
X196510209Y-19772103D01*
X196472624Y-19807049D01*
X196407122Y-19877780D01*
X196364194Y-19940387D01*
X196339186Y-19998137D01*
X196309328Y-20065822D01*
X196275113Y-20100754D01*
X196251608Y-20106532D01*
X196236392Y-20096016D01*
X196218824Y-20079679D01*
X196188704Y-20026739D01*
X196186361Y-19959303D01*
X196210886Y-19881512D01*
X196261371Y-19797507D01*
X196288221Y-19763575D01*
X196335258Y-19707845D01*
X196362397Y-19671437D01*
X196371013Y-19646880D01*
X196362478Y-19626704D01*
X196338168Y-19603441D01*
X196320466Y-19588265D01*
X196279576Y-19547773D01*
X196258327Y-19507787D01*
X196248304Y-19451760D01*
X196247635Y-19445050D01*
X196244453Y-19395712D01*
X196249817Y-19360958D01*
X196268574Y-19328379D01*
X196305572Y-19285564D01*
X196313150Y-19277323D01*
X196366221Y-19226670D01*
X196434217Y-19171050D01*
X196502226Y-19122634D01*
X196561160Y-19081379D01*
X196611371Y-19040626D01*
X196643292Y-19008241D01*
X196646076Y-19004341D01*
X196683134Y-18970223D01*
X196725487Y-18961403D01*
X196763286Y-18975668D01*
G37*
G36*
X199960781Y-18935668D02*
G01*
X199995023Y-18957556D01*
X200019284Y-18986903D01*
X200023247Y-19001674D01*
X200012509Y-19020633D01*
X199983031Y-19060010D01*
X199938858Y-19114708D01*
X199884033Y-19179627D01*
X199861036Y-19206159D01*
X199788804Y-19291097D01*
X199736922Y-19357944D01*
X199701343Y-19412585D01*
X199678016Y-19460905D01*
X199669817Y-19484105D01*
X199651292Y-19537071D01*
X199634344Y-19564759D01*
X199612374Y-19575107D01*
X199593169Y-19576296D01*
X199548075Y-19562366D01*
X199521669Y-19523521D01*
X199515039Y-19464182D01*
X199529271Y-19388768D01*
X199539641Y-19358716D01*
X199537267Y-19340541D01*
X199511332Y-19341183D01*
X199465894Y-19359276D01*
X199405011Y-19393453D01*
X199371027Y-19415485D01*
X199266060Y-19481153D01*
X199162534Y-19536584D01*
X199065829Y-19579598D01*
X198981325Y-19608017D01*
X198914404Y-19619660D01*
X198877307Y-19615491D01*
X198821755Y-19579025D01*
X198780043Y-19521045D01*
X198763619Y-19470385D01*
X198755659Y-19428907D01*
X198748780Y-19406523D01*
X198747445Y-19405252D01*
X198722034Y-19414531D01*
X198678922Y-19438279D01*
X198627720Y-19470367D01*
X198578036Y-19504663D01*
X198539479Y-19535036D01*
X198530076Y-19543931D01*
X198474261Y-19584084D01*
X198418067Y-19594256D01*
X198367907Y-19574727D01*
X198335018Y-19535382D01*
X198323808Y-19505012D01*
X198328647Y-19477604D01*
X198353106Y-19449642D01*
X198400756Y-19417612D01*
X198475171Y-19377999D01*
X198514808Y-19358478D01*
X198592497Y-19318248D01*
X198683499Y-19267168D01*
X198781174Y-19209385D01*
X198878882Y-19149046D01*
X198969983Y-19090299D01*
X199047836Y-19037289D01*
X199105803Y-18994164D01*
X199126423Y-18976516D01*
X199170424Y-18950887D01*
X199218233Y-18945324D01*
X199259697Y-18958003D01*
X199284663Y-18987102D01*
X199287812Y-19005498D01*
X199276322Y-19025214D01*
X199245069Y-19063183D01*
X199198874Y-19113876D01*
X199144643Y-19169682D01*
X199062225Y-19256010D01*
X199002425Y-19327208D01*
X198966393Y-19381628D01*
X198955278Y-19417622D01*
X198962546Y-19430734D01*
X198994654Y-19432687D01*
X199052331Y-19416625D01*
X199132910Y-19383849D01*
X199233725Y-19335659D01*
X199352110Y-19273357D01*
X199485400Y-19198244D01*
X199630928Y-19111620D01*
X199686368Y-19077516D01*
X199764876Y-19029199D01*
X199834430Y-18987111D01*
X199889236Y-18954704D01*
X199923500Y-18935429D01*
X199930742Y-18931933D01*
X199960781Y-18935668D01*
G37*
G36*
X187322760Y-17816071D02*
G01*
X187331852Y-17846995D01*
X187329784Y-17867414D01*
X187320307Y-17887115D01*
X187298512Y-17911702D01*
X187259490Y-17946778D01*
X187202932Y-17994141D01*
X187106222Y-18079428D01*
X187013027Y-18173279D01*
X186919138Y-18280639D01*
X186820346Y-18406451D01*
X186712442Y-18555659D01*
X186658522Y-18633608D01*
X186590657Y-18729522D01*
X186507180Y-18842367D01*
X186414571Y-18963800D01*
X186319314Y-19085476D01*
X186227891Y-19199051D01*
X186146784Y-19296180D01*
X186118398Y-19328880D01*
X186076995Y-19376237D01*
X186023996Y-19437367D01*
X185970015Y-19500024D01*
X185963502Y-19507616D01*
X185903878Y-19575810D01*
X185834652Y-19653002D01*
X185769906Y-19723508D01*
X185764418Y-19729375D01*
X185635535Y-19869940D01*
X185532321Y-19989211D01*
X185454904Y-20087022D01*
X185403416Y-20163208D01*
X185377985Y-20217604D01*
X185376271Y-20224632D01*
X185360062Y-20277549D01*
X185338045Y-20314901D01*
X185315718Y-20327538D01*
X185291770Y-20321091D01*
X185279327Y-20316809D01*
X185227071Y-20284110D01*
X185189688Y-20235435D01*
X185176701Y-20186815D01*
X185183420Y-20143841D01*
X185204801Y-20092739D01*
X185242679Y-20031058D01*
X185298892Y-19956350D01*
X185375275Y-19866165D01*
X185473663Y-19758055D01*
X185589335Y-19636362D01*
X185657222Y-19565398D01*
X185720591Y-19498059D01*
X185773733Y-19440491D01*
X185810940Y-19398839D01*
X185819969Y-19388148D01*
X185851619Y-19350166D01*
X185874185Y-19324460D01*
X185878888Y-19319730D01*
X185897679Y-19299996D01*
X185932544Y-19260400D01*
X185977898Y-19207562D01*
X186028155Y-19148100D01*
X186077732Y-19088633D01*
X186121044Y-19035780D01*
X186152505Y-18996159D01*
X186157861Y-18989102D01*
X186198897Y-18937076D01*
X186241210Y-18887686D01*
X186251915Y-18876099D01*
X186287247Y-18835777D01*
X186333792Y-18778433D01*
X186385638Y-18711860D01*
X186436872Y-18643851D01*
X186481582Y-18582199D01*
X186513854Y-18534698D01*
X186524461Y-18516859D01*
X186552071Y-18472492D01*
X186588972Y-18423362D01*
X186628214Y-18377537D01*
X186662843Y-18343081D01*
X186685908Y-18328061D01*
X186687307Y-18327938D01*
X186693761Y-18334715D01*
X186681886Y-18344781D01*
X186666259Y-18358027D01*
X186682665Y-18361569D01*
X186686488Y-18361623D01*
X186707750Y-18354140D01*
X186707633Y-18325759D01*
X186706626Y-18321562D01*
X186712670Y-18283288D01*
X186742547Y-18230321D01*
X186791687Y-18167030D01*
X186855521Y-18097789D01*
X186929478Y-18026967D01*
X187008987Y-17958936D01*
X187089480Y-17898068D01*
X187166385Y-17848732D01*
X187235132Y-17815301D01*
X187236452Y-17814803D01*
X187290557Y-17803082D01*
X187322760Y-17816071D01*
G37*
G36*
X191943538Y-18097730D02*
G01*
X191975351Y-18128071D01*
X191984243Y-18176499D01*
X191979227Y-18208844D01*
X191957942Y-18228094D01*
X191917792Y-18241625D01*
X191865671Y-18266621D01*
X191805950Y-18316605D01*
X191736469Y-18393689D01*
X191659337Y-18494100D01*
X191634489Y-18530543D01*
X191628961Y-18552766D01*
X191641588Y-18573944D01*
X191651302Y-18584899D01*
X191671595Y-18617010D01*
X191668629Y-18646664D01*
X191639829Y-18676812D01*
X191582616Y-18710405D01*
X191514153Y-18741961D01*
X191472669Y-18771750D01*
X191433414Y-18818605D01*
X191425041Y-18832351D01*
X191389590Y-18887887D01*
X191344923Y-18947694D01*
X191327014Y-18969091D01*
X191282810Y-19025764D01*
X191231100Y-19101807D01*
X191175920Y-19190147D01*
X191121301Y-19283710D01*
X191071279Y-19375426D01*
X191029887Y-19458220D01*
X191001159Y-19525021D01*
X190990681Y-19558773D01*
X190982442Y-19611511D01*
X190982032Y-19650234D01*
X190986142Y-19662329D01*
X191007430Y-19662542D01*
X191051775Y-19650851D01*
X191111119Y-19629574D01*
X191137576Y-19618761D01*
X191215133Y-19586786D01*
X191266751Y-19568353D01*
X191297542Y-19562651D01*
X191312619Y-19568871D01*
X191317097Y-19586203D01*
X191317172Y-19590322D01*
X191306340Y-19620621D01*
X191279131Y-19662627D01*
X191243477Y-19706778D01*
X191207309Y-19743509D01*
X191178558Y-19763259D01*
X191172759Y-19764444D01*
X191144728Y-19774331D01*
X191107891Y-19798152D01*
X191107366Y-19798564D01*
X191056537Y-19823659D01*
X191013060Y-19822497D01*
X190971735Y-19820733D01*
X190950493Y-19831138D01*
X190935026Y-19846862D01*
X190915995Y-19841383D01*
X190887585Y-19811562D01*
X190868182Y-19786723D01*
X190834186Y-19728003D01*
X190818335Y-19662709D01*
X190821480Y-19587961D01*
X190844471Y-19500883D01*
X190888160Y-19398595D01*
X190953398Y-19278220D01*
X191041035Y-19136879D01*
X191076066Y-19083564D01*
X191140592Y-18985876D01*
X191187840Y-18912690D01*
X191220001Y-18860375D01*
X191239262Y-18825302D01*
X191247812Y-18803841D01*
X191248755Y-18797179D01*
X191233283Y-18792878D01*
X191192821Y-18793006D01*
X191139097Y-18797253D01*
X191078004Y-18802487D01*
X191041848Y-18800924D01*
X191021799Y-18791245D01*
X191012264Y-18778307D01*
X191003030Y-18734127D01*
X191027155Y-18695046D01*
X191084122Y-18661404D01*
X191173414Y-18633545D01*
X191254820Y-18617676D01*
X191316057Y-18607040D01*
X191362068Y-18594707D01*
X191399284Y-18575801D01*
X191434141Y-18545443D01*
X191473071Y-18498755D01*
X191522509Y-18430859D01*
X191547074Y-18396094D01*
X191626748Y-18291356D01*
X191704207Y-18205141D01*
X191776074Y-18140520D01*
X191838975Y-18100560D01*
X191885724Y-18088215D01*
X191943538Y-18097730D01*
G37*
G36*
X198436106Y-18719323D02*
G01*
X198495623Y-18760750D01*
X198537048Y-18821322D01*
X198555819Y-18894103D01*
X198547376Y-18972161D01*
X198544772Y-18980246D01*
X198506750Y-19057134D01*
X198443672Y-19145959D01*
X198360446Y-19242155D01*
X198261979Y-19341154D01*
X198153180Y-19438391D01*
X198038957Y-19529298D01*
X197924217Y-19609308D01*
X197813870Y-19673856D01*
X197782627Y-19689393D01*
X197716859Y-19720592D01*
X197658126Y-19748431D01*
X197617173Y-19767817D01*
X197611583Y-19770457D01*
X197578327Y-19799381D01*
X197538082Y-19855917D01*
X197502798Y-19918653D01*
X197346353Y-20194753D01*
X197173634Y-20449071D01*
X196987163Y-20678409D01*
X196789460Y-20879568D01*
X196655211Y-20994419D01*
X196586700Y-21045524D01*
X196537250Y-21072827D01*
X196501994Y-21076973D01*
X196476063Y-21058607D01*
X196455621Y-21020863D01*
X196441897Y-20977252D01*
X196439972Y-20946014D01*
X196441487Y-20942132D01*
X196460829Y-20924339D01*
X196500755Y-20895128D01*
X196552425Y-20860953D01*
X196719917Y-20737516D01*
X196882006Y-20583609D01*
X197035719Y-20402884D01*
X197178082Y-20198992D01*
X197306123Y-19975585D01*
X197356546Y-19873346D01*
X197394080Y-19790688D01*
X197418019Y-19729139D01*
X197431026Y-19679707D01*
X197435761Y-19633401D01*
X197435795Y-19605613D01*
X197435435Y-19570773D01*
X197437616Y-19539911D01*
X197441246Y-19524397D01*
X197724004Y-19524397D01*
X197728993Y-19541526D01*
X197732418Y-19542087D01*
X197757323Y-19534832D01*
X197799137Y-19516621D01*
X197816521Y-19508039D01*
X197935239Y-19437882D01*
X198060360Y-19347433D01*
X198180602Y-19245688D01*
X198284687Y-19141638D01*
X198304794Y-19118749D01*
X198363360Y-19045345D01*
X198398707Y-18987778D01*
X198413822Y-18939898D01*
X198412157Y-18897750D01*
X198392282Y-18874195D01*
X198351291Y-18867195D01*
X198297560Y-18875965D01*
X198239463Y-18899722D01*
X198212149Y-18916452D01*
X198159758Y-18957406D01*
X198099311Y-19011907D01*
X198035915Y-19074420D01*
X197974679Y-19139409D01*
X197920711Y-19201340D01*
X197879117Y-19254677D01*
X197855007Y-19293886D01*
X197851044Y-19307764D01*
X197841203Y-19329387D01*
X197816236Y-19366513D01*
X197800244Y-19387500D01*
X197762647Y-19440508D01*
X197736228Y-19488433D01*
X197724004Y-19524397D01*
X197441246Y-19524397D01*
X197444575Y-19510169D01*
X197458552Y-19478691D01*
X197481782Y-19442622D01*
X197516505Y-19399105D01*
X197564959Y-19345284D01*
X197629380Y-19278302D01*
X197712007Y-19195304D01*
X197815078Y-19093434D01*
X197910910Y-18999228D01*
X198014742Y-18899879D01*
X198100825Y-18824175D01*
X198173258Y-18769436D01*
X198236141Y-18732987D01*
X198293576Y-18712148D01*
X198349662Y-18704243D01*
X198363056Y-18703973D01*
X198436106Y-18719323D01*
G37*
G36*
X189552901Y-19156925D02*
G01*
X189569105Y-19169212D01*
X189588625Y-19209516D01*
X189579309Y-19256595D01*
X189544027Y-19304385D01*
X189485653Y-19346825D01*
X189484732Y-19347327D01*
X189454948Y-19372083D01*
X189413235Y-19417315D01*
X189366144Y-19474713D01*
X189320223Y-19535965D01*
X189282025Y-19592760D01*
X189259995Y-19632465D01*
X189239345Y-19698809D01*
X189230633Y-19772595D01*
X189235238Y-19837790D01*
X189240688Y-19856773D01*
X189261222Y-19882719D01*
X189298937Y-19912886D01*
X189308222Y-19918887D01*
X189359843Y-19960862D01*
X189377602Y-20001822D01*
X189361377Y-20041339D01*
X189347197Y-20055128D01*
X189296436Y-20083772D01*
X189243049Y-20083008D01*
X189184007Y-20055774D01*
X189144058Y-20022761D01*
X189102386Y-19975282D01*
X189066816Y-19923959D01*
X189045177Y-19879412D01*
X189042028Y-19863134D01*
X189033162Y-19830242D01*
X189025689Y-19815986D01*
X189010835Y-19801967D01*
X188991306Y-19811502D01*
X188973506Y-19829315D01*
X188930709Y-19867975D01*
X188879569Y-19904092D01*
X188829582Y-19932056D01*
X188790244Y-19946257D01*
X188776044Y-19945974D01*
X188748699Y-19950217D01*
X188710991Y-19972187D01*
X188702473Y-19978963D01*
X188668857Y-20002549D01*
X188631372Y-20015374D01*
X188578216Y-20020441D01*
X188537261Y-20021010D01*
X188474435Y-20019848D01*
X188433999Y-20013581D01*
X188404146Y-19998036D01*
X188373072Y-19969042D01*
X188364411Y-19959927D01*
X188328994Y-19917456D01*
X188311949Y-19878051D01*
X188306925Y-19825107D01*
X188306802Y-19809336D01*
X188310583Y-19759459D01*
X188496369Y-19759459D01*
X188499295Y-19786824D01*
X188516330Y-19813737D01*
X188554093Y-19828921D01*
X188615026Y-19823976D01*
X188695261Y-19799732D01*
X188790931Y-19757019D01*
X188798376Y-19753220D01*
X188878189Y-19706917D01*
X188954335Y-19653412D01*
X189021155Y-19597721D01*
X189072989Y-19544858D01*
X189104178Y-19499837D01*
X189110708Y-19476474D01*
X189096341Y-19434496D01*
X189060913Y-19392939D01*
X189015931Y-19362687D01*
X188981149Y-19353939D01*
X188936297Y-19366660D01*
X188901167Y-19397616D01*
X188888351Y-19432947D01*
X188873387Y-19470038D01*
X188835739Y-19505878D01*
X188786268Y-19532523D01*
X188739125Y-19542087D01*
X188696013Y-19548498D01*
X188655750Y-19571933D01*
X188614399Y-19610797D01*
X188575348Y-19655412D01*
X188546579Y-19695532D01*
X188537618Y-19713424D01*
X188522258Y-19740911D01*
X188510902Y-19747340D01*
X188496369Y-19759459D01*
X188310583Y-19759459D01*
X188310844Y-19756022D01*
X188324922Y-19704804D01*
X188351965Y-19651272D01*
X188394902Y-19591014D01*
X188456660Y-19519620D01*
X188540169Y-19432677D01*
X188589603Y-19383373D01*
X188678791Y-19297897D01*
X188748625Y-19237083D01*
X188801378Y-19199084D01*
X188836206Y-19182844D01*
X188925541Y-19167474D01*
X189013955Y-19168561D01*
X189089399Y-19185410D01*
X189117782Y-19199086D01*
X189202215Y-19232132D01*
X189294197Y-19232226D01*
X189392175Y-19199392D01*
X189401476Y-19194698D01*
X189470429Y-19162658D01*
X189518728Y-19150398D01*
X189552901Y-19156925D01*
G37*
G36*
X195823659Y-18163206D02*
G01*
X195924865Y-18183832D01*
X196000368Y-18219617D01*
X196048691Y-18270308D01*
X196068359Y-18335653D01*
X196064909Y-18386775D01*
X196052194Y-18426263D01*
X196025955Y-18468923D01*
X195981492Y-18521278D01*
X195929830Y-18574341D01*
X195844673Y-18658059D01*
X195753882Y-18745859D01*
X195662105Y-18833384D01*
X195573991Y-18916276D01*
X195494188Y-18990176D01*
X195427342Y-19050727D01*
X195378102Y-19093571D01*
X195362909Y-19105926D01*
X195324945Y-19137614D01*
X195269595Y-19186434D01*
X195204163Y-19245838D01*
X195135950Y-19309278D01*
X195133052Y-19312009D01*
X194943046Y-19483943D01*
X194741963Y-19651099D01*
X194522982Y-19818899D01*
X194279283Y-19992765D01*
X194259125Y-20006679D01*
X194185205Y-20059313D01*
X194107162Y-20117620D01*
X194040077Y-20170293D01*
X194030996Y-20177749D01*
X193978204Y-20220869D01*
X193944116Y-20245598D01*
X193921296Y-20255609D01*
X193902309Y-20254577D01*
X193886745Y-20249023D01*
X193864389Y-20228760D01*
X193839832Y-20191557D01*
X193838509Y-20189040D01*
X193823074Y-20153744D01*
X193824156Y-20126581D01*
X193843622Y-20091795D01*
X193851384Y-20080347D01*
X193909794Y-20018886D01*
X193978267Y-19989422D01*
X194007946Y-19986801D01*
X194029730Y-19983743D01*
X194057648Y-19972910D01*
X194095723Y-19951816D01*
X194147976Y-19917973D01*
X194218428Y-19868896D01*
X194311102Y-19802096D01*
X194336095Y-19783882D01*
X194541001Y-19629510D01*
X194727311Y-19478371D01*
X194900539Y-19326707D01*
X195088112Y-19156657D01*
X195251879Y-19008034D01*
X195393404Y-18879320D01*
X195514253Y-18768995D01*
X195615991Y-18675541D01*
X195700181Y-18597438D01*
X195768390Y-18533166D01*
X195822181Y-18481208D01*
X195863120Y-18440044D01*
X195892771Y-18408154D01*
X195912700Y-18384019D01*
X195924470Y-18366121D01*
X195929647Y-18352940D01*
X195929796Y-18342957D01*
X195926481Y-18334653D01*
X195924977Y-18332154D01*
X195891066Y-18303756D01*
X195830735Y-18286213D01*
X195741857Y-18279172D01*
X195623878Y-18282187D01*
X195547595Y-18289705D01*
X195463748Y-18302872D01*
X195379053Y-18320007D01*
X195300228Y-18339428D01*
X195233989Y-18359452D01*
X195187055Y-18378397D01*
X195166141Y-18394582D01*
X195165657Y-18396938D01*
X195152737Y-18413661D01*
X195118333Y-18444337D01*
X195068977Y-18483291D01*
X195050202Y-18497229D01*
X194966393Y-18565850D01*
X194870894Y-18656370D01*
X194770435Y-18761857D01*
X194671743Y-18875383D01*
X194616985Y-18943434D01*
X194578833Y-18991575D01*
X194548528Y-19028321D01*
X194532471Y-19045916D01*
X194532285Y-19046060D01*
X194511536Y-19069012D01*
X194477179Y-19114843D01*
X194433451Y-19177251D01*
X194384592Y-19249933D01*
X194334841Y-19326584D01*
X194288436Y-19400901D01*
X194250272Y-19465427D01*
X194195267Y-19565657D01*
X194157427Y-19643721D01*
X194134371Y-19705533D01*
X194123721Y-19757004D01*
X194122290Y-19783499D01*
X194108587Y-19831444D01*
X194084903Y-19851667D01*
X194056763Y-19861457D01*
X194032592Y-19851131D01*
X194006058Y-19823478D01*
X193979483Y-19784992D01*
X193970274Y-19743816D01*
X193972479Y-19697169D01*
X193982600Y-19639245D01*
X194003043Y-19577572D01*
X194036430Y-19506752D01*
X194085385Y-19421387D01*
X194152531Y-19316080D01*
X194171848Y-19286933D01*
X194239580Y-19187174D01*
X194302689Y-19098951D01*
X194367664Y-19013856D01*
X194440994Y-18923482D01*
X194529169Y-18819422D01*
X194562728Y-18780534D01*
X194617256Y-18716651D01*
X194652924Y-18670957D01*
X194673715Y-18636176D01*
X194683608Y-18605031D01*
X194686587Y-18570245D01*
X194686734Y-18553891D01*
X194691339Y-18493798D01*
X194707962Y-18453948D01*
X194725219Y-18434540D01*
X194775065Y-18399172D01*
X194850707Y-18359489D01*
X194944567Y-18318695D01*
X195049071Y-18279995D01*
X195156642Y-18246596D01*
X195191314Y-18237337D01*
X195380576Y-18194804D01*
X195550039Y-18168440D01*
X195698225Y-18157991D01*
X195823659Y-18163206D01*
G37*
G36*
X188193676Y-17343631D02*
G01*
X188343271Y-17352868D01*
X188479051Y-17369982D01*
X188596149Y-17394805D01*
X188689696Y-17427168D01*
X188754827Y-17466901D01*
X188756419Y-17468321D01*
X188795986Y-17517081D01*
X188829896Y-17580854D01*
X188850794Y-17644241D01*
X188854078Y-17672753D01*
X188838182Y-17739357D01*
X188792213Y-17814727D01*
X188718499Y-17896663D01*
X188619369Y-17982963D01*
X188497153Y-18071425D01*
X188354180Y-18159850D01*
X188315677Y-18181575D01*
X188259791Y-18214256D01*
X188210090Y-18246178D01*
X188189363Y-18261127D01*
X188156428Y-18284066D01*
X188135533Y-18293468D01*
X188115923Y-18301259D01*
X188073806Y-18322171D01*
X188016465Y-18352506D01*
X187981809Y-18371465D01*
X187918177Y-18404578D01*
X187864332Y-18428770D01*
X187828068Y-18440722D01*
X187818651Y-18440962D01*
X187794255Y-18446365D01*
X187787071Y-18457039D01*
X187764400Y-18479099D01*
X187752296Y-18481616D01*
X187722463Y-18494921D01*
X187712975Y-18506592D01*
X187690251Y-18529014D01*
X187648596Y-18557351D01*
X187624935Y-18570733D01*
X187581316Y-18596761D01*
X187553366Y-18619077D01*
X187548265Y-18627003D01*
X187563299Y-18635150D01*
X187607414Y-18643180D01*
X187675486Y-18650355D01*
X187742357Y-18654909D01*
X187897912Y-18667526D01*
X188022659Y-18687374D01*
X188119485Y-18715768D01*
X188191275Y-18754026D01*
X188240916Y-18803464D01*
X188271295Y-18865398D01*
X188279909Y-18900100D01*
X188278010Y-18962448D01*
X188255895Y-19036239D01*
X188218630Y-19109873D01*
X188171281Y-19171746D01*
X188154370Y-19187554D01*
X188120991Y-19218892D01*
X188102721Y-19242368D01*
X188101549Y-19246360D01*
X188089779Y-19263867D01*
X188058027Y-19299111D01*
X188011638Y-19346832D01*
X187955951Y-19401766D01*
X187896310Y-19458652D01*
X187838055Y-19512226D01*
X187786528Y-19557227D01*
X187782953Y-19560219D01*
X187715107Y-19615274D01*
X187643616Y-19670776D01*
X187574171Y-19722597D01*
X187512460Y-19766609D01*
X187464175Y-19798686D01*
X187435006Y-19814700D01*
X187430668Y-19815757D01*
X187405670Y-19825577D01*
X187395272Y-19833066D01*
X187344868Y-19873614D01*
X187295189Y-19910846D01*
X187254308Y-19938980D01*
X187230301Y-19952233D01*
X187228367Y-19952592D01*
X187208175Y-19961355D01*
X187168693Y-19984201D01*
X187124207Y-20012458D01*
X187074484Y-20043618D01*
X187035331Y-20065270D01*
X187016936Y-20072323D01*
X186986906Y-20080726D01*
X186937727Y-20102626D01*
X186879050Y-20133059D01*
X186820525Y-20167062D01*
X186777670Y-20195378D01*
X186733093Y-20223895D01*
X186696698Y-20241086D01*
X186685910Y-20243367D01*
X186656980Y-20250734D01*
X186610861Y-20269537D01*
X186581574Y-20283590D01*
X186521984Y-20313216D01*
X186439247Y-20353516D01*
X186341225Y-20400716D01*
X186235779Y-20451041D01*
X186130771Y-20500719D01*
X186066128Y-20531036D01*
X185997048Y-20562264D01*
X185911704Y-20599374D01*
X185825633Y-20635638D01*
X185802806Y-20645017D01*
X185719698Y-20680565D01*
X185633295Y-20720192D01*
X185558993Y-20756773D01*
X185541964Y-20765763D01*
X185489269Y-20793281D01*
X185450647Y-20811672D01*
X185433526Y-20817430D01*
X185433266Y-20817059D01*
X185419234Y-20820525D01*
X185382002Y-20836329D01*
X185328873Y-20861316D01*
X185314010Y-20868604D01*
X185232495Y-20905569D01*
X185172050Y-20923220D01*
X185125590Y-20921669D01*
X185086028Y-20901029D01*
X185056264Y-20872699D01*
X185025859Y-20836053D01*
X185017068Y-20811395D01*
X185026405Y-20787467D01*
X185028755Y-20783844D01*
X185056783Y-20750967D01*
X185075535Y-20736293D01*
X185128890Y-20709891D01*
X185203171Y-20677533D01*
X185286813Y-20643967D01*
X185368248Y-20613940D01*
X185399058Y-20603510D01*
X185461144Y-20582752D01*
X185514078Y-20564238D01*
X185544445Y-20552752D01*
X185571434Y-20541455D01*
X185623788Y-20519606D01*
X185695286Y-20489798D01*
X185779711Y-20454623D01*
X185835219Y-20431507D01*
X186012422Y-20356082D01*
X186198872Y-20273791D01*
X186384464Y-20189243D01*
X186559094Y-20107047D01*
X186712658Y-20031813D01*
X186724647Y-20025770D01*
X186807013Y-19984205D01*
X186893689Y-19940560D01*
X186969995Y-19902225D01*
X186992796Y-19890799D01*
X187049623Y-19860821D01*
X187093836Y-19834652D01*
X187116845Y-19817423D01*
X187117812Y-19816138D01*
X187141591Y-19802598D01*
X187170370Y-19798653D01*
X187202206Y-19791171D01*
X187212620Y-19777272D01*
X187226642Y-19759441D01*
X187263676Y-19730072D01*
X187316889Y-19694355D01*
X187342064Y-19678922D01*
X187411436Y-19635778D01*
X187478763Y-19590994D01*
X187531532Y-19552952D01*
X187539692Y-19546524D01*
X187583606Y-19514104D01*
X187613261Y-19502258D01*
X187638666Y-19507455D01*
X187643473Y-19509881D01*
X187667855Y-19520026D01*
X187672478Y-19507715D01*
X187667378Y-19484063D01*
X187663838Y-19451614D01*
X187670770Y-19439461D01*
X187692204Y-19427692D01*
X187731448Y-19395818D01*
X187783237Y-19348988D01*
X187842303Y-19292351D01*
X187903383Y-19231057D01*
X187961210Y-19170255D01*
X188010519Y-19115093D01*
X188041433Y-19076980D01*
X188089942Y-19002988D01*
X188111387Y-18943811D01*
X188104523Y-18897711D01*
X188068106Y-18862948D01*
X188000889Y-18837783D01*
X187901627Y-18820475D01*
X187854247Y-18815506D01*
X187780057Y-18808863D01*
X187731161Y-18805211D01*
X187698784Y-18804444D01*
X187674150Y-18806460D01*
X187648484Y-18811154D01*
X187639731Y-18812973D01*
X187604782Y-18819341D01*
X187545701Y-18829187D01*
X187472188Y-18840917D01*
X187425926Y-18848083D01*
X187344476Y-18861219D01*
X187267898Y-18874724D01*
X187207673Y-18886526D01*
X187186465Y-18891342D01*
X187130333Y-18900917D01*
X187059154Y-18907292D01*
X187012367Y-18908817D01*
X186943472Y-18905818D01*
X186896573Y-18892114D01*
X186859773Y-18861613D01*
X186823841Y-18812313D01*
X186806753Y-18780311D01*
X186811444Y-18757451D01*
X186825856Y-18739747D01*
X186858809Y-18714853D01*
X186909266Y-18688263D01*
X186935013Y-18677523D01*
X186995337Y-18653299D01*
X187068109Y-18622180D01*
X187120814Y-18598549D01*
X187175262Y-18574111D01*
X187216690Y-18556681D01*
X187236129Y-18550033D01*
X187253692Y-18542840D01*
X187297491Y-18522673D01*
X187363061Y-18491654D01*
X187445939Y-18451903D01*
X187541662Y-18405542D01*
X187596658Y-18378731D01*
X187802449Y-18275353D01*
X187992337Y-18174300D01*
X188163582Y-18077234D01*
X188313448Y-17985816D01*
X188439198Y-17901709D01*
X188538093Y-17826573D01*
X188600698Y-17769233D01*
X188650640Y-17706953D01*
X188675244Y-17652785D01*
X188673105Y-17610788D01*
X188660954Y-17595103D01*
X188602870Y-17563663D01*
X188516255Y-17539390D01*
X188406041Y-17522355D01*
X188277160Y-17512626D01*
X188134546Y-17510275D01*
X187983132Y-17515370D01*
X187827849Y-17527982D01*
X187673630Y-17548179D01*
X187525409Y-17576032D01*
X187512707Y-17578877D01*
X187351903Y-17622944D01*
X187210674Y-17676880D01*
X187091859Y-17738899D01*
X186998295Y-17807214D01*
X186932821Y-17880035D01*
X186898275Y-17955577D01*
X186895888Y-17967316D01*
X186883654Y-18014866D01*
X186867653Y-18047941D01*
X186863753Y-18052122D01*
X186831872Y-18058739D01*
X186791616Y-18041184D01*
X186752301Y-18004562D01*
X186737084Y-17982697D01*
X186720778Y-17922691D01*
X186736557Y-17851491D01*
X186784299Y-17769430D01*
X186838898Y-17703262D01*
X186919697Y-17629684D01*
X187021258Y-17564539D01*
X187147303Y-17505988D01*
X187301558Y-17452188D01*
X187408822Y-17421524D01*
X187554486Y-17388838D01*
X187710670Y-17364875D01*
X187872508Y-17349465D01*
X188035132Y-17342440D01*
X188193676Y-17343631D01*
G37*
D16*
%TO.C,D8*%
X182290000Y-60065000D02*
X182290000Y-61535000D01*
X182290000Y-61535000D02*
X184575000Y-61535000D01*
X184575000Y-60065000D02*
X182290000Y-60065000D01*
%TO.C,D6*%
X198715000Y-58665000D02*
X198715000Y-60135000D01*
X198715000Y-60135000D02*
X201000000Y-60135000D01*
X201000000Y-58665000D02*
X198715000Y-58665000D01*
%TO.C,D5*%
X260635767Y-62465000D02*
X260635767Y-63935000D01*
X260635767Y-63935000D02*
X262920767Y-63935000D01*
X262920767Y-62465000D02*
X260635767Y-62465000D01*
%TO.C,D4*%
X205915000Y-58665000D02*
X205915000Y-60135000D01*
X205915000Y-60135000D02*
X208200000Y-60135000D01*
X208200000Y-58665000D02*
X205915000Y-58665000D01*
%TO.C,C20*%
X155090000Y-35940580D02*
X155090000Y-35659420D01*
X156110000Y-35940580D02*
X156110000Y-35659420D01*
%TO.C,C19*%
X156640580Y-28010000D02*
X156359420Y-28010000D01*
X156640580Y-26990000D02*
X156359420Y-26990000D01*
%TO.C,C15*%
X168710000Y-28259420D02*
X168710000Y-28540580D01*
X167690000Y-28259420D02*
X167690000Y-28540580D01*
%TO.C,C14*%
X167110000Y-28259420D02*
X167110000Y-28540580D01*
X166090000Y-28259420D02*
X166090000Y-28540580D01*
%TO.C,C27*%
X172642500Y-58089420D02*
X172642500Y-58370580D01*
X171622500Y-58089420D02*
X171622500Y-58370580D01*
%TO.C,C9*%
X254865580Y-20510000D02*
X254584420Y-20510000D01*
X254865580Y-19490000D02*
X254584420Y-19490000D01*
%TO.C,C4*%
X227711252Y-30910000D02*
X226288748Y-30910000D01*
X227711252Y-29090000D02*
X226288748Y-29090000D01*
%TO.C,SW2*%
X240850000Y-63400000D02*
X240850000Y-61900000D01*
X239600000Y-59400000D02*
X235100000Y-59400000D01*
X235100000Y-65900000D02*
X239600000Y-65900000D01*
X233850000Y-61900000D02*
X233850000Y-63400000D01*
%TO.C,R4*%
X179772936Y-37590000D02*
X181227064Y-37590000D01*
X179772936Y-39410000D02*
X181227064Y-39410000D01*
%TO.C,C23*%
X185078485Y-57311252D02*
X185078485Y-55888748D01*
X186898485Y-57311252D02*
X186898485Y-55888748D01*
%TO.C,C1*%
X242425000Y-32817082D02*
X242425000Y-31567082D01*
X241800000Y-32192082D02*
X243050000Y-32192082D01*
X239670000Y-26000000D02*
X252330000Y-26000000D01*
X239670000Y-25960000D02*
X252330000Y-25960000D01*
X239670000Y-25920000D02*
X252330000Y-25920000D01*
X239671000Y-25880000D02*
X252329000Y-25880000D01*
X239672000Y-25840000D02*
X252328000Y-25840000D01*
X239673000Y-25800000D02*
X252327000Y-25800000D01*
X239674000Y-25760000D02*
X252326000Y-25760000D01*
X239676000Y-25720000D02*
X252324000Y-25720000D01*
X239678000Y-25680000D02*
X252322000Y-25680000D01*
X239680000Y-25640000D02*
X252320000Y-25640000D01*
X239682000Y-25600000D02*
X252318000Y-25600000D01*
X239685000Y-25560000D02*
X252315000Y-25560000D01*
X239688000Y-25520000D02*
X252312000Y-25520000D01*
X239691000Y-25480000D02*
X252309000Y-25480000D01*
X239694000Y-25440000D02*
X252306000Y-25440000D01*
X239698000Y-25400000D02*
X252302000Y-25400000D01*
X239702000Y-25360000D02*
X252298000Y-25360000D01*
X239706000Y-25320000D02*
X252294000Y-25320000D01*
X239710000Y-25279000D02*
X252290000Y-25279000D01*
X239715000Y-25239000D02*
X252285000Y-25239000D01*
X239720000Y-25199000D02*
X252280000Y-25199000D01*
X239725000Y-25159000D02*
X252275000Y-25159000D01*
X239731000Y-25119000D02*
X252269000Y-25119000D01*
X239736000Y-25079000D02*
X252264000Y-25079000D01*
X239742000Y-25039000D02*
X252258000Y-25039000D01*
X239748000Y-24999000D02*
X252252000Y-24999000D01*
X239755000Y-24959000D02*
X252245000Y-24959000D01*
X239762000Y-24919000D02*
X244560000Y-24919000D01*
X247440000Y-24919000D02*
X252238000Y-24919000D01*
X239769000Y-24879000D02*
X244560000Y-24879000D01*
X247440000Y-24879000D02*
X252231000Y-24879000D01*
X239776000Y-24839000D02*
X244560000Y-24839000D01*
X247440000Y-24839000D02*
X252224000Y-24839000D01*
X239784000Y-24799000D02*
X244560000Y-24799000D01*
X247440000Y-24799000D02*
X252216000Y-24799000D01*
X239791000Y-24759000D02*
X244560000Y-24759000D01*
X247440000Y-24759000D02*
X252209000Y-24759000D01*
X239799000Y-24719000D02*
X244560000Y-24719000D01*
X247440000Y-24719000D02*
X252201000Y-24719000D01*
X239808000Y-24679000D02*
X244560000Y-24679000D01*
X247440000Y-24679000D02*
X252192000Y-24679000D01*
X239816000Y-24639000D02*
X244560000Y-24639000D01*
X247440000Y-24639000D02*
X252184000Y-24639000D01*
X239825000Y-24599000D02*
X244560000Y-24599000D01*
X247440000Y-24599000D02*
X252175000Y-24599000D01*
X239834000Y-24559000D02*
X244560000Y-24559000D01*
X247440000Y-24559000D02*
X252166000Y-24559000D01*
X239844000Y-24519000D02*
X244560000Y-24519000D01*
X247440000Y-24519000D02*
X252156000Y-24519000D01*
X239854000Y-24479000D02*
X244560000Y-24479000D01*
X247440000Y-24479000D02*
X252146000Y-24479000D01*
X239863000Y-24439000D02*
X244560000Y-24439000D01*
X247440000Y-24439000D02*
X252137000Y-24439000D01*
X239874000Y-24399000D02*
X244560000Y-24399000D01*
X247440000Y-24399000D02*
X252126000Y-24399000D01*
X239884000Y-24359000D02*
X244560000Y-24359000D01*
X247440000Y-24359000D02*
X252116000Y-24359000D01*
X239895000Y-24319000D02*
X244560000Y-24319000D01*
X247440000Y-24319000D02*
X252105000Y-24319000D01*
X239906000Y-24279000D02*
X244560000Y-24279000D01*
X247440000Y-24279000D02*
X252094000Y-24279000D01*
X239917000Y-24239000D02*
X244560000Y-24239000D01*
X247440000Y-24239000D02*
X252083000Y-24239000D01*
X239929000Y-24199000D02*
X244560000Y-24199000D01*
X247440000Y-24199000D02*
X252071000Y-24199000D01*
X239941000Y-24159000D02*
X244560000Y-24159000D01*
X247440000Y-24159000D02*
X252059000Y-24159000D01*
X239953000Y-24119000D02*
X244560000Y-24119000D01*
X247440000Y-24119000D02*
X252047000Y-24119000D01*
X239966000Y-24079000D02*
X244560000Y-24079000D01*
X247440000Y-24079000D02*
X252034000Y-24079000D01*
X239979000Y-24039000D02*
X244560000Y-24039000D01*
X247440000Y-24039000D02*
X252021000Y-24039000D01*
X239992000Y-23999000D02*
X244560000Y-23999000D01*
X247440000Y-23999000D02*
X252008000Y-23999000D01*
X240005000Y-23959000D02*
X244560000Y-23959000D01*
X247440000Y-23959000D02*
X251995000Y-23959000D01*
X240019000Y-23919000D02*
X244560000Y-23919000D01*
X247440000Y-23919000D02*
X251981000Y-23919000D01*
X240033000Y-23879000D02*
X244560000Y-23879000D01*
X247440000Y-23879000D02*
X251967000Y-23879000D01*
X240047000Y-23839000D02*
X244560000Y-23839000D01*
X247440000Y-23839000D02*
X251953000Y-23839000D01*
X240061000Y-23799000D02*
X244560000Y-23799000D01*
X247440000Y-23799000D02*
X251939000Y-23799000D01*
X240076000Y-23759000D02*
X244560000Y-23759000D01*
X247440000Y-23759000D02*
X251924000Y-23759000D01*
X240092000Y-23719000D02*
X244560000Y-23719000D01*
X247440000Y-23719000D02*
X251908000Y-23719000D01*
X240107000Y-23679000D02*
X244560000Y-23679000D01*
X247440000Y-23679000D02*
X251893000Y-23679000D01*
X240123000Y-23639000D02*
X244560000Y-23639000D01*
X247440000Y-23639000D02*
X251877000Y-23639000D01*
X240139000Y-23599000D02*
X244560000Y-23599000D01*
X247440000Y-23599000D02*
X251861000Y-23599000D01*
X240155000Y-23559000D02*
X244560000Y-23559000D01*
X247440000Y-23559000D02*
X251845000Y-23559000D01*
X240172000Y-23519000D02*
X244560000Y-23519000D01*
X247440000Y-23519000D02*
X251828000Y-23519000D01*
X240189000Y-23479000D02*
X244560000Y-23479000D01*
X247440000Y-23479000D02*
X251811000Y-23479000D01*
X240207000Y-23439000D02*
X244560000Y-23439000D01*
X247440000Y-23439000D02*
X251793000Y-23439000D01*
X240224000Y-23399000D02*
X244560000Y-23399000D01*
X247440000Y-23399000D02*
X251776000Y-23399000D01*
X240242000Y-23359000D02*
X244560000Y-23359000D01*
X247440000Y-23359000D02*
X251758000Y-23359000D01*
X240261000Y-23319000D02*
X244560000Y-23319000D01*
X247440000Y-23319000D02*
X251739000Y-23319000D01*
X240279000Y-23279000D02*
X244560000Y-23279000D01*
X247440000Y-23279000D02*
X251721000Y-23279000D01*
X240298000Y-23239000D02*
X244560000Y-23239000D01*
X247440000Y-23239000D02*
X251702000Y-23239000D01*
X240318000Y-23199000D02*
X244560000Y-23199000D01*
X247440000Y-23199000D02*
X251682000Y-23199000D01*
X240338000Y-23159000D02*
X244560000Y-23159000D01*
X247440000Y-23159000D02*
X251662000Y-23159000D01*
X240358000Y-23119000D02*
X244560000Y-23119000D01*
X247440000Y-23119000D02*
X251642000Y-23119000D01*
X240378000Y-23079000D02*
X244560000Y-23079000D01*
X247440000Y-23079000D02*
X251622000Y-23079000D01*
X240399000Y-23039000D02*
X244560000Y-23039000D01*
X247440000Y-23039000D02*
X251601000Y-23039000D01*
X240420000Y-22999000D02*
X244560000Y-22999000D01*
X247440000Y-22999000D02*
X251580000Y-22999000D01*
X240442000Y-22959000D02*
X244560000Y-22959000D01*
X247440000Y-22959000D02*
X251558000Y-22959000D01*
X240464000Y-22919000D02*
X244560000Y-22919000D01*
X247440000Y-22919000D02*
X251536000Y-22919000D01*
X240486000Y-22879000D02*
X244560000Y-22879000D01*
X247440000Y-22879000D02*
X251514000Y-22879000D01*
X240509000Y-22839000D02*
X244560000Y-22839000D01*
X247440000Y-22839000D02*
X251491000Y-22839000D01*
X240532000Y-22799000D02*
X244560000Y-22799000D01*
X247440000Y-22799000D02*
X251468000Y-22799000D01*
X240555000Y-22759000D02*
X244560000Y-22759000D01*
X247440000Y-22759000D02*
X251445000Y-22759000D01*
X240579000Y-22719000D02*
X244560000Y-22719000D01*
X247440000Y-22719000D02*
X251421000Y-22719000D01*
X240603000Y-22679000D02*
X244560000Y-22679000D01*
X247440000Y-22679000D02*
X251397000Y-22679000D01*
X240628000Y-22639000D02*
X244560000Y-22639000D01*
X247440000Y-22639000D02*
X251372000Y-22639000D01*
X240653000Y-22599000D02*
X244560000Y-22599000D01*
X247440000Y-22599000D02*
X251347000Y-22599000D01*
X240678000Y-22559000D02*
X244560000Y-22559000D01*
X247440000Y-22559000D02*
X251322000Y-22559000D01*
X240704000Y-22519000D02*
X244560000Y-22519000D01*
X247440000Y-22519000D02*
X251296000Y-22519000D01*
X240730000Y-22479000D02*
X244560000Y-22479000D01*
X247440000Y-22479000D02*
X251270000Y-22479000D01*
X240757000Y-22439000D02*
X244560000Y-22439000D01*
X247440000Y-22439000D02*
X251243000Y-22439000D01*
X240784000Y-22399000D02*
X244560000Y-22399000D01*
X247440000Y-22399000D02*
X251216000Y-22399000D01*
X240812000Y-22359000D02*
X244560000Y-22359000D01*
X247440000Y-22359000D02*
X251188000Y-22359000D01*
X240840000Y-22319000D02*
X244560000Y-22319000D01*
X247440000Y-22319000D02*
X251160000Y-22319000D01*
X240869000Y-22279000D02*
X244560000Y-22279000D01*
X247440000Y-22279000D02*
X251131000Y-22279000D01*
X240898000Y-22239000D02*
X244560000Y-22239000D01*
X247440000Y-22239000D02*
X251102000Y-22239000D01*
X240927000Y-22199000D02*
X244560000Y-22199000D01*
X247440000Y-22199000D02*
X251073000Y-22199000D01*
X240957000Y-22159000D02*
X244560000Y-22159000D01*
X247440000Y-22159000D02*
X251043000Y-22159000D01*
X240988000Y-22119000D02*
X244560000Y-22119000D01*
X247440000Y-22119000D02*
X251012000Y-22119000D01*
X241018000Y-22079000D02*
X244560000Y-22079000D01*
X247440000Y-22079000D02*
X250982000Y-22079000D01*
X241050000Y-22039000D02*
X250950000Y-22039000D01*
X241082000Y-21999000D02*
X250918000Y-21999000D01*
X241115000Y-21959000D02*
X250885000Y-21959000D01*
X241148000Y-21919000D02*
X250852000Y-21919000D01*
X241181000Y-21879000D02*
X250819000Y-21879000D01*
X241215000Y-21839000D02*
X250785000Y-21839000D01*
X241250000Y-21799000D02*
X250750000Y-21799000D01*
X241286000Y-21759000D02*
X250714000Y-21759000D01*
X241322000Y-21719000D02*
X250678000Y-21719000D01*
X241358000Y-21679000D02*
X250642000Y-21679000D01*
X241395000Y-21639000D02*
X250605000Y-21639000D01*
X241433000Y-21599000D02*
X250567000Y-21599000D01*
X241472000Y-21559000D02*
X250528000Y-21559000D01*
X241511000Y-21519000D02*
X250489000Y-21519000D01*
X241551000Y-21479000D02*
X250449000Y-21479000D01*
X241592000Y-21439000D02*
X250408000Y-21439000D01*
X241633000Y-21399000D02*
X250367000Y-21399000D01*
X241675000Y-21359000D02*
X250325000Y-21359000D01*
X241718000Y-21319000D02*
X250282000Y-21319000D01*
X241762000Y-21279000D02*
X250238000Y-21279000D01*
X241806000Y-21239000D02*
X250194000Y-21239000D01*
X241852000Y-21199000D02*
X250148000Y-21199000D01*
X241898000Y-21159000D02*
X250102000Y-21159000D01*
X241945000Y-21119000D02*
X250055000Y-21119000D01*
X241993000Y-21079000D02*
X250007000Y-21079000D01*
X242043000Y-21039000D02*
X249957000Y-21039000D01*
X242093000Y-20999000D02*
X249907000Y-20999000D01*
X242144000Y-20959000D02*
X249856000Y-20959000D01*
X242196000Y-20919000D02*
X249804000Y-20919000D01*
X242250000Y-20879000D02*
X249750000Y-20879000D01*
X242304000Y-20839000D02*
X249696000Y-20839000D01*
X242360000Y-20799000D02*
X249640000Y-20799000D01*
X242417000Y-20759000D02*
X249583000Y-20759000D01*
X242476000Y-20719000D02*
X249524000Y-20719000D01*
X242536000Y-20679000D02*
X249464000Y-20679000D01*
X242598000Y-20639000D02*
X249402000Y-20639000D01*
X242661000Y-20599000D02*
X249339000Y-20599000D01*
X242725000Y-20559000D02*
X249275000Y-20559000D01*
X242792000Y-20519000D02*
X249208000Y-20519000D01*
X242860000Y-20479000D02*
X249140000Y-20479000D01*
X242931000Y-20439000D02*
X249069000Y-20439000D01*
X243004000Y-20399000D02*
X248996000Y-20399000D01*
X243079000Y-20359000D02*
X248921000Y-20359000D01*
X243156000Y-20319000D02*
X248844000Y-20319000D01*
X243236000Y-20279000D02*
X248764000Y-20279000D01*
X243319000Y-20239000D02*
X248681000Y-20239000D01*
X243406000Y-20199000D02*
X248594000Y-20199000D01*
X243496000Y-20159000D02*
X248504000Y-20159000D01*
X243590000Y-20119000D02*
X248410000Y-20119000D01*
X243688000Y-20079000D02*
X248312000Y-20079000D01*
X243791000Y-20039000D02*
X248209000Y-20039000D01*
X243900000Y-19999000D02*
X248100000Y-19999000D01*
X244016000Y-19959000D02*
X247984000Y-19959000D01*
X244139000Y-19919000D02*
X247861000Y-19919000D01*
X244272000Y-19879000D02*
X247728000Y-19879000D01*
X244417000Y-19839000D02*
X247583000Y-19839000D01*
X244578000Y-19799000D02*
X247422000Y-19799000D01*
X244759000Y-19759000D02*
X247241000Y-19759000D01*
X244972000Y-19719000D02*
X247028000Y-19719000D01*
X245243000Y-19679000D02*
X246757000Y-19679000D01*
X245683000Y-19639000D02*
X246317000Y-19639000D01*
X252370000Y-26000000D02*
G75*
G02*
X239630000Y-26000000I-6370000J0D01*
G01*
X239630000Y-26000000D02*
G75*
G02*
X252370000Y-26000000I6370000J0D01*
G01*
%TO.C,R9*%
X257762742Y-19477500D02*
X258237258Y-19477500D01*
X257762742Y-20522500D02*
X258237258Y-20522500D01*
%TO.C,Q3*%
X194730000Y-46075000D02*
X194730000Y-46345000D01*
X194730000Y-52975000D02*
X194730000Y-52705000D01*
X201150000Y-46075000D02*
X194730000Y-46075000D01*
X201150000Y-52975000D02*
X194730000Y-52975000D01*
X193310000Y-46385000D02*
X193070000Y-46055000D01*
X193550000Y-46055000D01*
X193310000Y-46385000D01*
G36*
X193310000Y-46385000D02*
G01*
X193070000Y-46055000D01*
X193550000Y-46055000D01*
X193310000Y-46385000D01*
G37*
%TO.C,R11*%
X169337742Y-44477500D02*
X169812258Y-44477500D01*
X169337742Y-45522500D02*
X169812258Y-45522500D01*
D10*
%TO.C,J6*%
X267000000Y-23000000D02*
X267000000Y-24000000D01*
X266500000Y-23500000D02*
X267000000Y-23000000D01*
X266500000Y-23500000D02*
X267000000Y-24000000D01*
X266100000Y-21000000D02*
X258500000Y-21000000D01*
X258500000Y-31000000D01*
X266100000Y-31000000D01*
X266100000Y-21000000D01*
D16*
%TO.C,R33*%
X263237258Y-20522500D02*
X262762742Y-20522500D01*
X263237258Y-19477500D02*
X262762742Y-19477500D01*
%TO.C,C22*%
X230992677Y-31347323D02*
X230992677Y-30347323D01*
X230492677Y-30847323D02*
X231492677Y-30847323D01*
X228787677Y-25867677D02*
X238947677Y-25867677D01*
X228787677Y-25827677D02*
X238947677Y-25827677D01*
X228787677Y-25787677D02*
X238947677Y-25787677D01*
X228788677Y-25747677D02*
X238946677Y-25747677D01*
X228789677Y-25707677D02*
X238945677Y-25707677D01*
X228790677Y-25667677D02*
X238944677Y-25667677D01*
X228792677Y-25627677D02*
X238942677Y-25627677D01*
X228794677Y-25587677D02*
X238940677Y-25587677D01*
X228797677Y-25547677D02*
X238937677Y-25547677D01*
X228799677Y-25507677D02*
X238935677Y-25507677D01*
X228802677Y-25467677D02*
X238932677Y-25467677D01*
X228805677Y-25427677D02*
X238929677Y-25427677D01*
X228809677Y-25387677D02*
X238925677Y-25387677D01*
X228813677Y-25347677D02*
X238921677Y-25347677D01*
X228817677Y-25307677D02*
X238917677Y-25307677D01*
X228822677Y-25267677D02*
X238912677Y-25267677D01*
X228827677Y-25227677D02*
X238907677Y-25227677D01*
X228832677Y-25187677D02*
X238902677Y-25187677D01*
X228837677Y-25146677D02*
X238897677Y-25146677D01*
X228843677Y-25106677D02*
X238891677Y-25106677D01*
X228849677Y-25066677D02*
X238885677Y-25066677D01*
X228856677Y-25026677D02*
X238878677Y-25026677D01*
X228863677Y-24986677D02*
X238871677Y-24986677D01*
X228870677Y-24946677D02*
X238864677Y-24946677D01*
X228877677Y-24906677D02*
X238857677Y-24906677D01*
X228885677Y-24866677D02*
X238849677Y-24866677D01*
X228893677Y-24826677D02*
X238841677Y-24826677D01*
X228902677Y-24786677D02*
X238832677Y-24786677D01*
X228911677Y-24746677D02*
X238823677Y-24746677D01*
X228920677Y-24706677D02*
X238814677Y-24706677D01*
X228929677Y-24666677D02*
X238805677Y-24666677D01*
X228939677Y-24626677D02*
X238795677Y-24626677D01*
X228949677Y-24586677D02*
X232626677Y-24586677D01*
X235108677Y-24586677D02*
X238785677Y-24586677D01*
X228960677Y-24546677D02*
X232626677Y-24546677D01*
X235108677Y-24546677D02*
X238774677Y-24546677D01*
X228970677Y-24506677D02*
X232626677Y-24506677D01*
X235108677Y-24506677D02*
X238764677Y-24506677D01*
X228982677Y-24466677D02*
X232626677Y-24466677D01*
X235108677Y-24466677D02*
X238752677Y-24466677D01*
X228993677Y-24426677D02*
X232626677Y-24426677D01*
X235108677Y-24426677D02*
X238741677Y-24426677D01*
X229005677Y-24386677D02*
X232626677Y-24386677D01*
X235108677Y-24386677D02*
X238729677Y-24386677D01*
X229017677Y-24346677D02*
X232626677Y-24346677D01*
X235108677Y-24346677D02*
X238717677Y-24346677D01*
X229030677Y-24306677D02*
X232626677Y-24306677D01*
X235108677Y-24306677D02*
X238704677Y-24306677D01*
X229043677Y-24266677D02*
X232626677Y-24266677D01*
X235108677Y-24266677D02*
X238691677Y-24266677D01*
X229056677Y-24226677D02*
X232626677Y-24226677D01*
X235108677Y-24226677D02*
X238678677Y-24226677D01*
X229070677Y-24186677D02*
X232626677Y-24186677D01*
X235108677Y-24186677D02*
X238664677Y-24186677D01*
X229084677Y-24146677D02*
X232626677Y-24146677D01*
X235108677Y-24146677D02*
X238650677Y-24146677D01*
X229099677Y-24106677D02*
X232626677Y-24106677D01*
X235108677Y-24106677D02*
X238635677Y-24106677D01*
X229113677Y-24066677D02*
X232626677Y-24066677D01*
X235108677Y-24066677D02*
X238621677Y-24066677D01*
X229129677Y-24026677D02*
X232626677Y-24026677D01*
X235108677Y-24026677D02*
X238605677Y-24026677D01*
X229144677Y-23986677D02*
X232626677Y-23986677D01*
X235108677Y-23986677D02*
X238590677Y-23986677D01*
X229160677Y-23946677D02*
X232626677Y-23946677D01*
X235108677Y-23946677D02*
X238574677Y-23946677D01*
X229177677Y-23906677D02*
X232626677Y-23906677D01*
X235108677Y-23906677D02*
X238557677Y-23906677D01*
X229193677Y-23866677D02*
X232626677Y-23866677D01*
X235108677Y-23866677D02*
X238541677Y-23866677D01*
X229210677Y-23826677D02*
X232626677Y-23826677D01*
X235108677Y-23826677D02*
X238524677Y-23826677D01*
X229228677Y-23786677D02*
X232626677Y-23786677D01*
X235108677Y-23786677D02*
X238506677Y-23786677D01*
X229246677Y-23746677D02*
X232626677Y-23746677D01*
X235108677Y-23746677D02*
X238488677Y-23746677D01*
X229264677Y-23706677D02*
X232626677Y-23706677D01*
X235108677Y-23706677D02*
X238470677Y-23706677D01*
X229283677Y-23666677D02*
X232626677Y-23666677D01*
X235108677Y-23666677D02*
X238451677Y-23666677D01*
X229303677Y-23626677D02*
X232626677Y-23626677D01*
X235108677Y-23626677D02*
X238431677Y-23626677D01*
X229322677Y-23586677D02*
X232626677Y-23586677D01*
X235108677Y-23586677D02*
X238412677Y-23586677D01*
X229342677Y-23546677D02*
X232626677Y-23546677D01*
X235108677Y-23546677D02*
X238392677Y-23546677D01*
X229363677Y-23506677D02*
X232626677Y-23506677D01*
X235108677Y-23506677D02*
X238371677Y-23506677D01*
X229384677Y-23466677D02*
X232626677Y-23466677D01*
X235108677Y-23466677D02*
X238350677Y-23466677D01*
X229405677Y-23426677D02*
X232626677Y-23426677D01*
X235108677Y-23426677D02*
X238329677Y-23426677D01*
X229427677Y-23386677D02*
X232626677Y-23386677D01*
X235108677Y-23386677D02*
X238307677Y-23386677D01*
X229450677Y-23346677D02*
X232626677Y-23346677D01*
X235108677Y-23346677D02*
X238284677Y-23346677D01*
X229472677Y-23306677D02*
X232626677Y-23306677D01*
X235108677Y-23306677D02*
X238262677Y-23306677D01*
X229496677Y-23266677D02*
X232626677Y-23266677D01*
X235108677Y-23266677D02*
X238238677Y-23266677D01*
X229520677Y-23226677D02*
X232626677Y-23226677D01*
X235108677Y-23226677D02*
X238214677Y-23226677D01*
X229544677Y-23186677D02*
X232626677Y-23186677D01*
X235108677Y-23186677D02*
X238190677Y-23186677D01*
X229569677Y-23146677D02*
X232626677Y-23146677D01*
X235108677Y-23146677D02*
X238165677Y-23146677D01*
X229594677Y-23106677D02*
X232626677Y-23106677D01*
X235108677Y-23106677D02*
X238140677Y-23106677D01*
X229620677Y-23066677D02*
X232626677Y-23066677D01*
X235108677Y-23066677D02*
X238114677Y-23066677D01*
X229646677Y-23026677D02*
X232626677Y-23026677D01*
X235108677Y-23026677D02*
X238088677Y-23026677D01*
X229673677Y-22986677D02*
X232626677Y-22986677D01*
X235108677Y-22986677D02*
X238061677Y-22986677D01*
X229701677Y-22946677D02*
X232626677Y-22946677D01*
X235108677Y-22946677D02*
X238033677Y-22946677D01*
X229729677Y-22906677D02*
X232626677Y-22906677D01*
X235108677Y-22906677D02*
X238005677Y-22906677D01*
X229757677Y-22866677D02*
X232626677Y-22866677D01*
X235108677Y-22866677D02*
X237977677Y-22866677D01*
X229787677Y-22826677D02*
X232626677Y-22826677D01*
X235108677Y-22826677D02*
X237947677Y-22826677D01*
X229817677Y-22786677D02*
X232626677Y-22786677D01*
X235108677Y-22786677D02*
X237917677Y-22786677D01*
X229847677Y-22746677D02*
X232626677Y-22746677D01*
X235108677Y-22746677D02*
X237887677Y-22746677D01*
X229878677Y-22706677D02*
X232626677Y-22706677D01*
X235108677Y-22706677D02*
X237856677Y-22706677D01*
X229910677Y-22666677D02*
X232626677Y-22666677D01*
X235108677Y-22666677D02*
X237824677Y-22666677D01*
X229942677Y-22626677D02*
X232626677Y-22626677D01*
X235108677Y-22626677D02*
X237792677Y-22626677D01*
X229975677Y-22586677D02*
X232626677Y-22586677D01*
X235108677Y-22586677D02*
X237759677Y-22586677D01*
X230009677Y-22546677D02*
X232626677Y-22546677D01*
X235108677Y-22546677D02*
X237725677Y-22546677D01*
X230043677Y-22506677D02*
X232626677Y-22506677D01*
X235108677Y-22506677D02*
X237691677Y-22506677D01*
X230078677Y-22466677D02*
X232626677Y-22466677D01*
X235108677Y-22466677D02*
X237656677Y-22466677D01*
X230114677Y-22426677D02*
X232626677Y-22426677D01*
X235108677Y-22426677D02*
X237620677Y-22426677D01*
X230151677Y-22386677D02*
X232626677Y-22386677D01*
X235108677Y-22386677D02*
X237583677Y-22386677D01*
X230188677Y-22346677D02*
X232626677Y-22346677D01*
X235108677Y-22346677D02*
X237546677Y-22346677D01*
X230227677Y-22306677D02*
X232626677Y-22306677D01*
X235108677Y-22306677D02*
X237507677Y-22306677D01*
X230266677Y-22266677D02*
X232626677Y-22266677D01*
X235108677Y-22266677D02*
X237468677Y-22266677D01*
X230306677Y-22226677D02*
X232626677Y-22226677D01*
X235108677Y-22226677D02*
X237428677Y-22226677D01*
X230347677Y-22186677D02*
X232626677Y-22186677D01*
X235108677Y-22186677D02*
X237387677Y-22186677D01*
X230389677Y-22146677D02*
X232626677Y-22146677D01*
X235108677Y-22146677D02*
X237345677Y-22146677D01*
X230431677Y-22106677D02*
X237303677Y-22106677D01*
X230475677Y-22066677D02*
X237259677Y-22066677D01*
X230520677Y-22026677D02*
X237214677Y-22026677D01*
X230566677Y-21986677D02*
X237168677Y-21986677D01*
X230613677Y-21946677D02*
X237121677Y-21946677D01*
X230661677Y-21906677D02*
X237073677Y-21906677D01*
X230711677Y-21866677D02*
X237023677Y-21866677D01*
X230761677Y-21826677D02*
X236973677Y-21826677D01*
X230813677Y-21786677D02*
X236921677Y-21786677D01*
X230867677Y-21746677D02*
X236867677Y-21746677D01*
X230922677Y-21706677D02*
X236812677Y-21706677D01*
X230978677Y-21666677D02*
X236756677Y-21666677D01*
X231037677Y-21626677D02*
X236697677Y-21626677D01*
X231097677Y-21586677D02*
X236637677Y-21586677D01*
X231158677Y-21546677D02*
X236576677Y-21546677D01*
X231222677Y-21506677D02*
X236512677Y-21506677D01*
X231288677Y-21466677D02*
X236446677Y-21466677D01*
X231357677Y-21426677D02*
X236377677Y-21426677D01*
X231428677Y-21386677D02*
X236306677Y-21386677D01*
X231502677Y-21346677D02*
X236232677Y-21346677D01*
X231578677Y-21306677D02*
X236156677Y-21306677D01*
X231658677Y-21266677D02*
X236076677Y-21266677D01*
X231742677Y-21226677D02*
X235992677Y-21226677D01*
X231830677Y-21186677D02*
X235904677Y-21186677D01*
X231923677Y-21146677D02*
X235811677Y-21146677D01*
X232021677Y-21106677D02*
X235713677Y-21106677D01*
X232125677Y-21066677D02*
X235609677Y-21066677D01*
X232237677Y-21026677D02*
X235497677Y-21026677D01*
X232357677Y-20986677D02*
X235377677Y-20986677D01*
X232489677Y-20946677D02*
X235245677Y-20946677D01*
X232637677Y-20906677D02*
X235097677Y-20906677D01*
X232805677Y-20866677D02*
X234929677Y-20866677D01*
X233005677Y-20826677D02*
X234729677Y-20826677D01*
X233268677Y-20786677D02*
X234466677Y-20786677D01*
X238987677Y-25867677D02*
G75*
G02*
X228747677Y-25867677I-5120000J0D01*
G01*
X228747677Y-25867677D02*
G75*
G02*
X238987677Y-25867677I5120000J0D01*
G01*
%TO.C,D11*%
X159127500Y-22665000D02*
X159127500Y-24135000D01*
X159127500Y-24135000D02*
X161412500Y-24135000D01*
X161412500Y-22665000D02*
X159127500Y-22665000D01*
%TO.C,C6*%
X176540580Y-45710000D02*
X176259420Y-45710000D01*
X176540580Y-44690000D02*
X176259420Y-44690000D01*
D10*
%TO.C,D12*%
X156550000Y-39350000D02*
X155250000Y-39350000D01*
X155250000Y-39350000D02*
X155250000Y-38900000D01*
D16*
%TO.C,R5*%
X181227064Y-36910000D02*
X179772936Y-36910000D01*
X181227064Y-35090000D02*
X179772936Y-35090000D01*
%TO.C,R20*%
X191022500Y-49262742D02*
X191022500Y-49737258D01*
X189977500Y-49262742D02*
X189977500Y-49737258D01*
%TO.C,D3*%
X232590000Y-45250000D02*
X241100000Y-45250000D01*
X232590000Y-51750000D02*
X232590000Y-45250000D01*
X232590000Y-51750000D02*
X241100000Y-51750000D01*
%TO.C,C3*%
X185115000Y-31711252D02*
X185115000Y-30288748D01*
X186935000Y-31711252D02*
X186935000Y-30288748D01*
%TO.C,R6*%
X176262742Y-28477500D02*
X176737258Y-28477500D01*
X176262742Y-29522500D02*
X176737258Y-29522500D01*
%TO.C,R23*%
X186272936Y-48090000D02*
X187727064Y-48090000D01*
X186272936Y-49910000D02*
X187727064Y-49910000D01*
%TO.C,C2*%
X201425000Y-32817082D02*
X201425000Y-31567082D01*
X200800000Y-32192082D02*
X202050000Y-32192082D01*
X198670000Y-26000000D02*
X211330000Y-26000000D01*
X198670000Y-25960000D02*
X211330000Y-25960000D01*
X198670000Y-25920000D02*
X211330000Y-25920000D01*
X198671000Y-25880000D02*
X211329000Y-25880000D01*
X198672000Y-25840000D02*
X211328000Y-25840000D01*
X198673000Y-25800000D02*
X211327000Y-25800000D01*
X198674000Y-25760000D02*
X211326000Y-25760000D01*
X198676000Y-25720000D02*
X211324000Y-25720000D01*
X198678000Y-25680000D02*
X211322000Y-25680000D01*
X198680000Y-25640000D02*
X211320000Y-25640000D01*
X198682000Y-25600000D02*
X211318000Y-25600000D01*
X198685000Y-25560000D02*
X211315000Y-25560000D01*
X198688000Y-25520000D02*
X211312000Y-25520000D01*
X198691000Y-25480000D02*
X211309000Y-25480000D01*
X198694000Y-25440000D02*
X211306000Y-25440000D01*
X198698000Y-25400000D02*
X211302000Y-25400000D01*
X198702000Y-25360000D02*
X211298000Y-25360000D01*
X198706000Y-25320000D02*
X211294000Y-25320000D01*
X198710000Y-25279000D02*
X211290000Y-25279000D01*
X198715000Y-25239000D02*
X211285000Y-25239000D01*
X198720000Y-25199000D02*
X211280000Y-25199000D01*
X198725000Y-25159000D02*
X211275000Y-25159000D01*
X198731000Y-25119000D02*
X211269000Y-25119000D01*
X198736000Y-25079000D02*
X211264000Y-25079000D01*
X198742000Y-25039000D02*
X211258000Y-25039000D01*
X198748000Y-24999000D02*
X211252000Y-24999000D01*
X198755000Y-24959000D02*
X211245000Y-24959000D01*
X198762000Y-24919000D02*
X203560000Y-24919000D01*
X206440000Y-24919000D02*
X211238000Y-24919000D01*
X198769000Y-24879000D02*
X203560000Y-24879000D01*
X206440000Y-24879000D02*
X211231000Y-24879000D01*
X198776000Y-24839000D02*
X203560000Y-24839000D01*
X206440000Y-24839000D02*
X211224000Y-24839000D01*
X198784000Y-24799000D02*
X203560000Y-24799000D01*
X206440000Y-24799000D02*
X211216000Y-24799000D01*
X198791000Y-24759000D02*
X203560000Y-24759000D01*
X206440000Y-24759000D02*
X211209000Y-24759000D01*
X198799000Y-24719000D02*
X203560000Y-24719000D01*
X206440000Y-24719000D02*
X211201000Y-24719000D01*
X198808000Y-24679000D02*
X203560000Y-24679000D01*
X206440000Y-24679000D02*
X211192000Y-24679000D01*
X198816000Y-24639000D02*
X203560000Y-24639000D01*
X206440000Y-24639000D02*
X211184000Y-24639000D01*
X198825000Y-24599000D02*
X203560000Y-24599000D01*
X206440000Y-24599000D02*
X211175000Y-24599000D01*
X198834000Y-24559000D02*
X203560000Y-24559000D01*
X206440000Y-24559000D02*
X211166000Y-24559000D01*
X198844000Y-24519000D02*
X203560000Y-24519000D01*
X206440000Y-24519000D02*
X211156000Y-24519000D01*
X198854000Y-24479000D02*
X203560000Y-24479000D01*
X206440000Y-24479000D02*
X211146000Y-24479000D01*
X198863000Y-24439000D02*
X203560000Y-24439000D01*
X206440000Y-24439000D02*
X211137000Y-24439000D01*
X198874000Y-24399000D02*
X203560000Y-24399000D01*
X206440000Y-24399000D02*
X211126000Y-24399000D01*
X198884000Y-24359000D02*
X203560000Y-24359000D01*
X206440000Y-24359000D02*
X211116000Y-24359000D01*
X198895000Y-24319000D02*
X203560000Y-24319000D01*
X206440000Y-24319000D02*
X211105000Y-24319000D01*
X198906000Y-24279000D02*
X203560000Y-24279000D01*
X206440000Y-24279000D02*
X211094000Y-24279000D01*
X198917000Y-24239000D02*
X203560000Y-24239000D01*
X206440000Y-24239000D02*
X211083000Y-24239000D01*
X198929000Y-24199000D02*
X203560000Y-24199000D01*
X206440000Y-24199000D02*
X211071000Y-24199000D01*
X198941000Y-24159000D02*
X203560000Y-24159000D01*
X206440000Y-24159000D02*
X211059000Y-24159000D01*
X198953000Y-24119000D02*
X203560000Y-24119000D01*
X206440000Y-24119000D02*
X211047000Y-24119000D01*
X198966000Y-24079000D02*
X203560000Y-24079000D01*
X206440000Y-24079000D02*
X211034000Y-24079000D01*
X198979000Y-24039000D02*
X203560000Y-24039000D01*
X206440000Y-24039000D02*
X211021000Y-24039000D01*
X198992000Y-23999000D02*
X203560000Y-23999000D01*
X206440000Y-23999000D02*
X211008000Y-23999000D01*
X199005000Y-23959000D02*
X203560000Y-23959000D01*
X206440000Y-23959000D02*
X210995000Y-23959000D01*
X199019000Y-23919000D02*
X203560000Y-23919000D01*
X206440000Y-23919000D02*
X210981000Y-23919000D01*
X199033000Y-23879000D02*
X203560000Y-23879000D01*
X206440000Y-23879000D02*
X210967000Y-23879000D01*
X199047000Y-23839000D02*
X203560000Y-23839000D01*
X206440000Y-23839000D02*
X210953000Y-23839000D01*
X199061000Y-23799000D02*
X203560000Y-23799000D01*
X206440000Y-23799000D02*
X210939000Y-23799000D01*
X199076000Y-23759000D02*
X203560000Y-23759000D01*
X206440000Y-23759000D02*
X210924000Y-23759000D01*
X199092000Y-23719000D02*
X203560000Y-23719000D01*
X206440000Y-23719000D02*
X210908000Y-23719000D01*
X199107000Y-23679000D02*
X203560000Y-23679000D01*
X206440000Y-23679000D02*
X210893000Y-23679000D01*
X199123000Y-23639000D02*
X203560000Y-23639000D01*
X206440000Y-23639000D02*
X210877000Y-23639000D01*
X199139000Y-23599000D02*
X203560000Y-23599000D01*
X206440000Y-23599000D02*
X210861000Y-23599000D01*
X199155000Y-23559000D02*
X203560000Y-23559000D01*
X206440000Y-23559000D02*
X210845000Y-23559000D01*
X199172000Y-23519000D02*
X203560000Y-23519000D01*
X206440000Y-23519000D02*
X210828000Y-23519000D01*
X199189000Y-23479000D02*
X203560000Y-23479000D01*
X206440000Y-23479000D02*
X210811000Y-23479000D01*
X199207000Y-23439000D02*
X203560000Y-23439000D01*
X206440000Y-23439000D02*
X210793000Y-23439000D01*
X199224000Y-23399000D02*
X203560000Y-23399000D01*
X206440000Y-23399000D02*
X210776000Y-23399000D01*
X199242000Y-23359000D02*
X203560000Y-23359000D01*
X206440000Y-23359000D02*
X210758000Y-23359000D01*
X199261000Y-23319000D02*
X203560000Y-23319000D01*
X206440000Y-23319000D02*
X210739000Y-23319000D01*
X199279000Y-23279000D02*
X203560000Y-23279000D01*
X206440000Y-23279000D02*
X210721000Y-23279000D01*
X199298000Y-23239000D02*
X203560000Y-23239000D01*
X206440000Y-23239000D02*
X210702000Y-23239000D01*
X199318000Y-23199000D02*
X203560000Y-23199000D01*
X206440000Y-23199000D02*
X210682000Y-23199000D01*
X199338000Y-23159000D02*
X203560000Y-23159000D01*
X206440000Y-23159000D02*
X210662000Y-23159000D01*
X199358000Y-23119000D02*
X203560000Y-23119000D01*
X206440000Y-23119000D02*
X210642000Y-23119000D01*
X199378000Y-23079000D02*
X203560000Y-23079000D01*
X206440000Y-23079000D02*
X210622000Y-23079000D01*
X199399000Y-23039000D02*
X203560000Y-23039000D01*
X206440000Y-23039000D02*
X210601000Y-23039000D01*
X199420000Y-22999000D02*
X203560000Y-22999000D01*
X206440000Y-22999000D02*
X210580000Y-22999000D01*
X199442000Y-22959000D02*
X203560000Y-22959000D01*
X206440000Y-22959000D02*
X210558000Y-22959000D01*
X199464000Y-22919000D02*
X203560000Y-22919000D01*
X206440000Y-22919000D02*
X210536000Y-22919000D01*
X199486000Y-22879000D02*
X203560000Y-22879000D01*
X206440000Y-22879000D02*
X210514000Y-22879000D01*
X199509000Y-22839000D02*
X203560000Y-22839000D01*
X206440000Y-22839000D02*
X210491000Y-22839000D01*
X199532000Y-22799000D02*
X203560000Y-22799000D01*
X206440000Y-22799000D02*
X210468000Y-22799000D01*
X199555000Y-22759000D02*
X203560000Y-22759000D01*
X206440000Y-22759000D02*
X210445000Y-22759000D01*
X199579000Y-22719000D02*
X203560000Y-22719000D01*
X206440000Y-22719000D02*
X210421000Y-22719000D01*
X199603000Y-22679000D02*
X203560000Y-22679000D01*
X206440000Y-22679000D02*
X210397000Y-22679000D01*
X199628000Y-22639000D02*
X203560000Y-22639000D01*
X206440000Y-22639000D02*
X210372000Y-22639000D01*
X199653000Y-22599000D02*
X203560000Y-22599000D01*
X206440000Y-22599000D02*
X210347000Y-22599000D01*
X199678000Y-22559000D02*
X203560000Y-22559000D01*
X206440000Y-22559000D02*
X210322000Y-22559000D01*
X199704000Y-22519000D02*
X203560000Y-22519000D01*
X206440000Y-22519000D02*
X210296000Y-22519000D01*
X199730000Y-22479000D02*
X203560000Y-22479000D01*
X206440000Y-22479000D02*
X210270000Y-22479000D01*
X199757000Y-22439000D02*
X203560000Y-22439000D01*
X206440000Y-22439000D02*
X210243000Y-22439000D01*
X199784000Y-22399000D02*
X203560000Y-22399000D01*
X206440000Y-22399000D02*
X210216000Y-22399000D01*
X199812000Y-22359000D02*
X203560000Y-22359000D01*
X206440000Y-22359000D02*
X210188000Y-22359000D01*
X199840000Y-22319000D02*
X203560000Y-22319000D01*
X206440000Y-22319000D02*
X210160000Y-22319000D01*
X199869000Y-22279000D02*
X203560000Y-22279000D01*
X206440000Y-22279000D02*
X210131000Y-22279000D01*
X199898000Y-22239000D02*
X203560000Y-22239000D01*
X206440000Y-22239000D02*
X210102000Y-22239000D01*
X199927000Y-22199000D02*
X203560000Y-22199000D01*
X206440000Y-22199000D02*
X210073000Y-22199000D01*
X199957000Y-22159000D02*
X203560000Y-22159000D01*
X206440000Y-22159000D02*
X210043000Y-22159000D01*
X199988000Y-22119000D02*
X203560000Y-22119000D01*
X206440000Y-22119000D02*
X210012000Y-22119000D01*
X200018000Y-22079000D02*
X203560000Y-22079000D01*
X206440000Y-22079000D02*
X209982000Y-22079000D01*
X200050000Y-22039000D02*
X209950000Y-22039000D01*
X200082000Y-21999000D02*
X209918000Y-21999000D01*
X200115000Y-21959000D02*
X209885000Y-21959000D01*
X200148000Y-21919000D02*
X209852000Y-21919000D01*
X200181000Y-21879000D02*
X209819000Y-21879000D01*
X200215000Y-21839000D02*
X209785000Y-21839000D01*
X200250000Y-21799000D02*
X209750000Y-21799000D01*
X200286000Y-21759000D02*
X209714000Y-21759000D01*
X200322000Y-21719000D02*
X209678000Y-21719000D01*
X200358000Y-21679000D02*
X209642000Y-21679000D01*
X200395000Y-21639000D02*
X209605000Y-21639000D01*
X200433000Y-21599000D02*
X209567000Y-21599000D01*
X200472000Y-21559000D02*
X209528000Y-21559000D01*
X200511000Y-21519000D02*
X209489000Y-21519000D01*
X200551000Y-21479000D02*
X209449000Y-21479000D01*
X200592000Y-21439000D02*
X209408000Y-21439000D01*
X200633000Y-21399000D02*
X209367000Y-21399000D01*
X200675000Y-21359000D02*
X209325000Y-21359000D01*
X200718000Y-21319000D02*
X209282000Y-21319000D01*
X200762000Y-21279000D02*
X209238000Y-21279000D01*
X200806000Y-21239000D02*
X209194000Y-21239000D01*
X200852000Y-21199000D02*
X209148000Y-21199000D01*
X200898000Y-21159000D02*
X209102000Y-21159000D01*
X200945000Y-21119000D02*
X209055000Y-21119000D01*
X200993000Y-21079000D02*
X209007000Y-21079000D01*
X201043000Y-21039000D02*
X208957000Y-21039000D01*
X201093000Y-20999000D02*
X208907000Y-20999000D01*
X201144000Y-20959000D02*
X208856000Y-20959000D01*
X201196000Y-20919000D02*
X208804000Y-20919000D01*
X201250000Y-20879000D02*
X208750000Y-20879000D01*
X201304000Y-20839000D02*
X208696000Y-20839000D01*
X201360000Y-20799000D02*
X208640000Y-20799000D01*
X201417000Y-20759000D02*
X208583000Y-20759000D01*
X201476000Y-20719000D02*
X208524000Y-20719000D01*
X201536000Y-20679000D02*
X208464000Y-20679000D01*
X201598000Y-20639000D02*
X208402000Y-20639000D01*
X201661000Y-20599000D02*
X208339000Y-20599000D01*
X201725000Y-20559000D02*
X208275000Y-20559000D01*
X201792000Y-20519000D02*
X208208000Y-20519000D01*
X201860000Y-20479000D02*
X208140000Y-20479000D01*
X201931000Y-20439000D02*
X208069000Y-20439000D01*
X202004000Y-20399000D02*
X207996000Y-20399000D01*
X202079000Y-20359000D02*
X207921000Y-20359000D01*
X202156000Y-20319000D02*
X207844000Y-20319000D01*
X202236000Y-20279000D02*
X207764000Y-20279000D01*
X202319000Y-20239000D02*
X207681000Y-20239000D01*
X202406000Y-20199000D02*
X207594000Y-20199000D01*
X202496000Y-20159000D02*
X207504000Y-20159000D01*
X202590000Y-20119000D02*
X207410000Y-20119000D01*
X202688000Y-20079000D02*
X207312000Y-20079000D01*
X202791000Y-20039000D02*
X207209000Y-20039000D01*
X202900000Y-19999000D02*
X207100000Y-19999000D01*
X203016000Y-19959000D02*
X206984000Y-19959000D01*
X203139000Y-19919000D02*
X206861000Y-19919000D01*
X203272000Y-19879000D02*
X206728000Y-19879000D01*
X203417000Y-19839000D02*
X206583000Y-19839000D01*
X203578000Y-19799000D02*
X206422000Y-19799000D01*
X203759000Y-19759000D02*
X206241000Y-19759000D01*
X203972000Y-19719000D02*
X206028000Y-19719000D01*
X204243000Y-19679000D02*
X205757000Y-19679000D01*
X204683000Y-19639000D02*
X205317000Y-19639000D01*
X211370000Y-26000000D02*
G75*
G02*
X198630000Y-26000000I-6370000J0D01*
G01*
X198630000Y-26000000D02*
G75*
G02*
X211370000Y-26000000I6370000J0D01*
G01*
%TO.C,U2*%
X181560000Y-31000000D02*
X181560000Y-30200000D01*
X181560000Y-31000000D02*
X181560000Y-31800000D01*
X178440000Y-31000000D02*
X178440000Y-30200000D01*
X178440000Y-31000000D02*
X178440000Y-31800000D01*
X181840000Y-29940000D02*
X181510000Y-29700000D01*
X181840000Y-29460000D01*
X181840000Y-29940000D01*
G36*
X181840000Y-29940000D02*
G01*
X181510000Y-29700000D01*
X181840000Y-29460000D01*
X181840000Y-29940000D01*
G37*
%TO.C,C24*%
X187490000Y-57311252D02*
X187490000Y-55888748D01*
X189310000Y-57311252D02*
X189310000Y-55888748D01*
%TO.C,J1*%
X161110000Y-65930000D02*
X161110000Y-64600000D01*
X162440000Y-65930000D02*
X161110000Y-65930000D01*
X163710000Y-65930000D02*
X173930000Y-65930000D01*
X163710000Y-65930000D02*
X163710000Y-63270000D01*
X173930000Y-65930000D02*
X173930000Y-63270000D01*
X163710000Y-63270000D02*
X173930000Y-63270000D01*
%TO.C,SW3*%
X250850000Y-63400000D02*
X250850000Y-61900000D01*
X249600000Y-59400000D02*
X245100000Y-59400000D01*
X245100000Y-65900000D02*
X249600000Y-65900000D01*
X243850000Y-61900000D02*
X243850000Y-63400000D01*
%TO.C,C25*%
X189992677Y-31347323D02*
X189992677Y-30347323D01*
X189492677Y-30847323D02*
X190492677Y-30847323D01*
X187787677Y-25867677D02*
X197947677Y-25867677D01*
X187787677Y-25827677D02*
X197947677Y-25827677D01*
X187787677Y-25787677D02*
X197947677Y-25787677D01*
X187788677Y-25747677D02*
X197946677Y-25747677D01*
X187789677Y-25707677D02*
X197945677Y-25707677D01*
X187790677Y-25667677D02*
X197944677Y-25667677D01*
X187792677Y-25627677D02*
X197942677Y-25627677D01*
X187794677Y-25587677D02*
X197940677Y-25587677D01*
X187797677Y-25547677D02*
X197937677Y-25547677D01*
X187799677Y-25507677D02*
X197935677Y-25507677D01*
X187802677Y-25467677D02*
X197932677Y-25467677D01*
X187805677Y-25427677D02*
X197929677Y-25427677D01*
X187809677Y-25387677D02*
X197925677Y-25387677D01*
X187813677Y-25347677D02*
X197921677Y-25347677D01*
X187817677Y-25307677D02*
X197917677Y-25307677D01*
X187822677Y-25267677D02*
X197912677Y-25267677D01*
X187827677Y-25227677D02*
X197907677Y-25227677D01*
X187832677Y-25187677D02*
X197902677Y-25187677D01*
X187837677Y-25146677D02*
X197897677Y-25146677D01*
X187843677Y-25106677D02*
X197891677Y-25106677D01*
X187849677Y-25066677D02*
X197885677Y-25066677D01*
X187856677Y-25026677D02*
X197878677Y-25026677D01*
X187863677Y-24986677D02*
X197871677Y-24986677D01*
X187870677Y-24946677D02*
X197864677Y-24946677D01*
X187877677Y-24906677D02*
X197857677Y-24906677D01*
X187885677Y-24866677D02*
X197849677Y-24866677D01*
X187893677Y-24826677D02*
X197841677Y-24826677D01*
X187902677Y-24786677D02*
X197832677Y-24786677D01*
X187911677Y-24746677D02*
X197823677Y-24746677D01*
X187920677Y-24706677D02*
X197814677Y-24706677D01*
X187929677Y-24666677D02*
X197805677Y-24666677D01*
X187939677Y-24626677D02*
X197795677Y-24626677D01*
X187949677Y-24586677D02*
X191626677Y-24586677D01*
X194108677Y-24586677D02*
X197785677Y-24586677D01*
X187960677Y-24546677D02*
X191626677Y-24546677D01*
X194108677Y-24546677D02*
X197774677Y-24546677D01*
X187970677Y-24506677D02*
X191626677Y-24506677D01*
X194108677Y-24506677D02*
X197764677Y-24506677D01*
X187982677Y-24466677D02*
X191626677Y-24466677D01*
X194108677Y-24466677D02*
X197752677Y-24466677D01*
X187993677Y-24426677D02*
X191626677Y-24426677D01*
X194108677Y-24426677D02*
X197741677Y-24426677D01*
X188005677Y-24386677D02*
X191626677Y-24386677D01*
X194108677Y-24386677D02*
X197729677Y-24386677D01*
X188017677Y-24346677D02*
X191626677Y-24346677D01*
X194108677Y-24346677D02*
X197717677Y-24346677D01*
X188030677Y-24306677D02*
X191626677Y-24306677D01*
X194108677Y-24306677D02*
X197704677Y-24306677D01*
X188043677Y-24266677D02*
X191626677Y-24266677D01*
X194108677Y-24266677D02*
X197691677Y-24266677D01*
X188056677Y-24226677D02*
X191626677Y-24226677D01*
X194108677Y-24226677D02*
X197678677Y-24226677D01*
X188070677Y-24186677D02*
X191626677Y-24186677D01*
X194108677Y-24186677D02*
X197664677Y-24186677D01*
X188084677Y-24146677D02*
X191626677Y-24146677D01*
X194108677Y-24146677D02*
X197650677Y-24146677D01*
X188099677Y-24106677D02*
X191626677Y-24106677D01*
X194108677Y-24106677D02*
X197635677Y-24106677D01*
X188113677Y-24066677D02*
X191626677Y-24066677D01*
X194108677Y-24066677D02*
X197621677Y-24066677D01*
X188129677Y-24026677D02*
X191626677Y-24026677D01*
X194108677Y-24026677D02*
X197605677Y-24026677D01*
X188144677Y-23986677D02*
X191626677Y-23986677D01*
X194108677Y-23986677D02*
X197590677Y-23986677D01*
X188160677Y-23946677D02*
X191626677Y-23946677D01*
X194108677Y-23946677D02*
X197574677Y-23946677D01*
X188177677Y-23906677D02*
X191626677Y-23906677D01*
X194108677Y-23906677D02*
X197557677Y-23906677D01*
X188193677Y-23866677D02*
X191626677Y-23866677D01*
X194108677Y-23866677D02*
X197541677Y-23866677D01*
X188210677Y-23826677D02*
X191626677Y-23826677D01*
X194108677Y-23826677D02*
X197524677Y-23826677D01*
X188228677Y-23786677D02*
X191626677Y-23786677D01*
X194108677Y-23786677D02*
X197506677Y-23786677D01*
X188246677Y-23746677D02*
X191626677Y-23746677D01*
X194108677Y-23746677D02*
X197488677Y-23746677D01*
X188264677Y-23706677D02*
X191626677Y-23706677D01*
X194108677Y-23706677D02*
X197470677Y-23706677D01*
X188283677Y-23666677D02*
X191626677Y-23666677D01*
X194108677Y-23666677D02*
X197451677Y-23666677D01*
X188303677Y-23626677D02*
X191626677Y-23626677D01*
X194108677Y-23626677D02*
X197431677Y-23626677D01*
X188322677Y-23586677D02*
X191626677Y-23586677D01*
X194108677Y-23586677D02*
X197412677Y-23586677D01*
X188342677Y-23546677D02*
X191626677Y-23546677D01*
X194108677Y-23546677D02*
X197392677Y-23546677D01*
X188363677Y-23506677D02*
X191626677Y-23506677D01*
X194108677Y-23506677D02*
X197371677Y-23506677D01*
X188384677Y-23466677D02*
X191626677Y-23466677D01*
X194108677Y-23466677D02*
X197350677Y-23466677D01*
X188405677Y-23426677D02*
X191626677Y-23426677D01*
X194108677Y-23426677D02*
X197329677Y-23426677D01*
X188427677Y-23386677D02*
X191626677Y-23386677D01*
X194108677Y-23386677D02*
X197307677Y-23386677D01*
X188450677Y-23346677D02*
X191626677Y-23346677D01*
X194108677Y-23346677D02*
X197284677Y-23346677D01*
X188472677Y-23306677D02*
X191626677Y-23306677D01*
X194108677Y-23306677D02*
X197262677Y-23306677D01*
X188496677Y-23266677D02*
X191626677Y-23266677D01*
X194108677Y-23266677D02*
X197238677Y-23266677D01*
X188520677Y-23226677D02*
X191626677Y-23226677D01*
X194108677Y-23226677D02*
X197214677Y-23226677D01*
X188544677Y-23186677D02*
X191626677Y-23186677D01*
X194108677Y-23186677D02*
X197190677Y-23186677D01*
X188569677Y-23146677D02*
X191626677Y-23146677D01*
X194108677Y-23146677D02*
X197165677Y-23146677D01*
X188594677Y-23106677D02*
X191626677Y-23106677D01*
X194108677Y-23106677D02*
X197140677Y-23106677D01*
X188620677Y-23066677D02*
X191626677Y-23066677D01*
X194108677Y-23066677D02*
X197114677Y-23066677D01*
X188646677Y-23026677D02*
X191626677Y-23026677D01*
X194108677Y-23026677D02*
X197088677Y-23026677D01*
X188673677Y-22986677D02*
X191626677Y-22986677D01*
X194108677Y-22986677D02*
X197061677Y-22986677D01*
X188701677Y-22946677D02*
X191626677Y-22946677D01*
X194108677Y-22946677D02*
X197033677Y-22946677D01*
X188729677Y-22906677D02*
X191626677Y-22906677D01*
X194108677Y-22906677D02*
X197005677Y-22906677D01*
X188757677Y-22866677D02*
X191626677Y-22866677D01*
X194108677Y-22866677D02*
X196977677Y-22866677D01*
X188787677Y-22826677D02*
X191626677Y-22826677D01*
X194108677Y-22826677D02*
X196947677Y-22826677D01*
X188817677Y-22786677D02*
X191626677Y-22786677D01*
X194108677Y-22786677D02*
X196917677Y-22786677D01*
X188847677Y-22746677D02*
X191626677Y-22746677D01*
X194108677Y-22746677D02*
X196887677Y-22746677D01*
X188878677Y-22706677D02*
X191626677Y-22706677D01*
X194108677Y-22706677D02*
X196856677Y-22706677D01*
X188910677Y-22666677D02*
X191626677Y-22666677D01*
X194108677Y-22666677D02*
X196824677Y-22666677D01*
X188942677Y-22626677D02*
X191626677Y-22626677D01*
X194108677Y-22626677D02*
X196792677Y-22626677D01*
X188975677Y-22586677D02*
X191626677Y-22586677D01*
X194108677Y-22586677D02*
X196759677Y-22586677D01*
X189009677Y-22546677D02*
X191626677Y-22546677D01*
X194108677Y-22546677D02*
X196725677Y-22546677D01*
X189043677Y-22506677D02*
X191626677Y-22506677D01*
X194108677Y-22506677D02*
X196691677Y-22506677D01*
X189078677Y-22466677D02*
X191626677Y-22466677D01*
X194108677Y-22466677D02*
X196656677Y-22466677D01*
X189114677Y-22426677D02*
X191626677Y-22426677D01*
X194108677Y-22426677D02*
X196620677Y-22426677D01*
X189151677Y-22386677D02*
X191626677Y-22386677D01*
X194108677Y-22386677D02*
X196583677Y-22386677D01*
X189188677Y-22346677D02*
X191626677Y-22346677D01*
X194108677Y-22346677D02*
X196546677Y-22346677D01*
X189227677Y-22306677D02*
X191626677Y-22306677D01*
X194108677Y-22306677D02*
X196507677Y-22306677D01*
X189266677Y-22266677D02*
X191626677Y-22266677D01*
X194108677Y-22266677D02*
X196468677Y-22266677D01*
X189306677Y-22226677D02*
X191626677Y-22226677D01*
X194108677Y-22226677D02*
X196428677Y-22226677D01*
X189347677Y-22186677D02*
X191626677Y-22186677D01*
X194108677Y-22186677D02*
X196387677Y-22186677D01*
X189389677Y-22146677D02*
X191626677Y-22146677D01*
X194108677Y-22146677D02*
X196345677Y-22146677D01*
X189431677Y-22106677D02*
X196303677Y-22106677D01*
X189475677Y-22066677D02*
X196259677Y-22066677D01*
X189520677Y-22026677D02*
X196214677Y-22026677D01*
X189566677Y-21986677D02*
X196168677Y-21986677D01*
X189613677Y-21946677D02*
X196121677Y-21946677D01*
X189661677Y-21906677D02*
X196073677Y-21906677D01*
X189711677Y-21866677D02*
X196023677Y-21866677D01*
X189761677Y-21826677D02*
X195973677Y-21826677D01*
X189813677Y-21786677D02*
X195921677Y-21786677D01*
X189867677Y-21746677D02*
X195867677Y-21746677D01*
X189922677Y-21706677D02*
X195812677Y-21706677D01*
X189978677Y-21666677D02*
X195756677Y-21666677D01*
X190037677Y-21626677D02*
X195697677Y-21626677D01*
X190097677Y-21586677D02*
X195637677Y-21586677D01*
X190158677Y-21546677D02*
X195576677Y-21546677D01*
X190222677Y-21506677D02*
X195512677Y-21506677D01*
X190288677Y-21466677D02*
X195446677Y-21466677D01*
X190357677Y-21426677D02*
X195377677Y-21426677D01*
X190428677Y-21386677D02*
X195306677Y-21386677D01*
X190502677Y-21346677D02*
X195232677Y-21346677D01*
X190578677Y-21306677D02*
X195156677Y-21306677D01*
X190658677Y-21266677D02*
X195076677Y-21266677D01*
X190742677Y-21226677D02*
X194992677Y-21226677D01*
X190830677Y-21186677D02*
X194904677Y-21186677D01*
X190923677Y-21146677D02*
X194811677Y-21146677D01*
X191021677Y-21106677D02*
X194713677Y-21106677D01*
X191125677Y-21066677D02*
X194609677Y-21066677D01*
X191237677Y-21026677D02*
X194497677Y-21026677D01*
X191357677Y-20986677D02*
X194377677Y-20986677D01*
X191489677Y-20946677D02*
X194245677Y-20946677D01*
X191637677Y-20906677D02*
X194097677Y-20906677D01*
X191805677Y-20866677D02*
X193929677Y-20866677D01*
X192005677Y-20826677D02*
X193729677Y-20826677D01*
X192268677Y-20786677D02*
X193466677Y-20786677D01*
X197987677Y-25867677D02*
G75*
G02*
X187747677Y-25867677I-5120000J0D01*
G01*
X187747677Y-25867677D02*
G75*
G02*
X197987677Y-25867677I5120000J0D01*
G01*
%TO.C,SW1*%
X230850000Y-63400000D02*
X230850000Y-61900000D01*
X229600000Y-59400000D02*
X225100000Y-59400000D01*
X225100000Y-65900000D02*
X229600000Y-65900000D01*
X223850000Y-61900000D02*
X223850000Y-63400000D01*
%TO.C,U4*%
X173500000Y-28060000D02*
X174300000Y-28060000D01*
X173500000Y-28060000D02*
X172700000Y-28060000D01*
X173500000Y-24940000D02*
X174300000Y-24940000D01*
X173500000Y-24940000D02*
X172700000Y-24940000D01*
X175040000Y-28340000D02*
X174560000Y-28340000D01*
X174800000Y-28010000D01*
X175040000Y-28340000D01*
G36*
X175040000Y-28340000D02*
G01*
X174560000Y-28340000D01*
X174800000Y-28010000D01*
X175040000Y-28340000D01*
G37*
D10*
%TO.C,J4*%
X143712500Y-51800000D02*
X143712500Y-50800000D01*
X144212500Y-51300000D02*
X143712500Y-51800000D01*
X144212500Y-51300000D02*
X143712500Y-50800000D01*
X144612500Y-53800000D02*
X152212500Y-53800000D01*
X152212500Y-43800000D01*
X144612500Y-43800000D01*
X144612500Y-53800000D01*
D16*
%TO.C,U3*%
X182362500Y-51390000D02*
X181562500Y-51390000D01*
X182362500Y-51390000D02*
X183162500Y-51390000D01*
X182362500Y-54510000D02*
X181562500Y-54510000D01*
X182362500Y-54510000D02*
X183162500Y-54510000D01*
X181062500Y-51440000D02*
X180822500Y-51110000D01*
X181302500Y-51110000D01*
X181062500Y-51440000D01*
G36*
X181062500Y-51440000D02*
G01*
X180822500Y-51110000D01*
X181302500Y-51110000D01*
X181062500Y-51440000D01*
G37*
%TO.C,R42*%
X159277500Y-51037258D02*
X159277500Y-50562742D01*
X160322500Y-51037258D02*
X160322500Y-50562742D01*
%TO.C,R49*%
X145535000Y-36172936D02*
X145535000Y-36627064D01*
X144065000Y-36172936D02*
X144065000Y-36627064D01*
%TO.C,R8*%
X258237258Y-19022500D02*
X257762742Y-19022500D01*
X258237258Y-17977500D02*
X257762742Y-17977500D01*
%TO.C,R53*%
X151122500Y-31562742D02*
X151122500Y-32037258D01*
X150077500Y-31562742D02*
X150077500Y-32037258D01*
%TO.C,C30*%
X152090000Y-21511252D02*
X152090000Y-20088748D01*
X153910000Y-21511252D02*
X153910000Y-20088748D01*
%TO.C,R27*%
X169537742Y-56877500D02*
X170012258Y-56877500D01*
X169537742Y-57922500D02*
X170012258Y-57922500D01*
%TO.C,C26*%
X144290000Y-39915580D02*
X144290000Y-39634420D01*
X145310000Y-39915580D02*
X145310000Y-39634420D01*
%TO.C,R43*%
X163922500Y-42962742D02*
X163922500Y-43437258D01*
X162877500Y-42962742D02*
X162877500Y-43437258D01*
%TO.C,J7*%
D10*
X151175000Y-18520000D02*
X143925000Y-18520000D01*
X143925000Y-29020000D01*
X151175000Y-29020000D01*
X151175000Y-18520000D01*
D16*
%TO.C,Q4*%
X180062500Y-47440000D02*
X179412500Y-47440000D01*
X180062500Y-47440000D02*
X180712500Y-47440000D01*
X180062500Y-50560000D02*
X179412500Y-50560000D01*
X180062500Y-50560000D02*
X180712500Y-50560000D01*
X178900000Y-47490000D02*
X178660000Y-47160000D01*
X179140000Y-47160000D01*
X178900000Y-47490000D01*
G36*
X178900000Y-47490000D02*
G01*
X178660000Y-47160000D01*
X179140000Y-47160000D01*
X178900000Y-47490000D01*
G37*
%TO.C,DI1*%
D10*
X155000000Y-18500000D02*
X183000000Y-18500000D01*
X183000000Y-46500000D01*
X155000000Y-46500000D01*
X155000000Y-18500000D01*
D16*
%TO.C,R48*%
X145937742Y-33077500D02*
X146412258Y-33077500D01*
X145937742Y-34122500D02*
X146412258Y-34122500D01*
%TO.C,R40*%
X161277500Y-43437258D02*
X161277500Y-42962742D01*
X162322500Y-43437258D02*
X162322500Y-42962742D01*
%TO.C,C5*%
X176565580Y-43910000D02*
X176284420Y-43910000D01*
X176565580Y-42890000D02*
X176284420Y-42890000D01*
%TO.C,R28*%
X170012258Y-59552500D02*
X169537742Y-59552500D01*
X170012258Y-58507500D02*
X169537742Y-58507500D01*
%TO.C,R1*%
X175977500Y-26737258D02*
X175977500Y-26262742D01*
X177022500Y-26737258D02*
X177022500Y-26262742D01*
%TO.C,R52*%
X148477500Y-32037258D02*
X148477500Y-31562742D01*
X149522500Y-32037258D02*
X149522500Y-31562742D01*
%TO.C,F1*%
X185897936Y-40090000D02*
X187102064Y-40090000D01*
X185897936Y-41910000D02*
X187102064Y-41910000D01*
%TO.C,R24*%
X187727064Y-47410000D02*
X186272936Y-47410000D01*
X187727064Y-45590000D02*
X186272936Y-45590000D01*
%TO.C,Q2*%
X194730000Y-37210000D02*
X194730000Y-37480000D01*
X194730000Y-44110000D02*
X194730000Y-43840000D01*
X201150000Y-37210000D02*
X194730000Y-37210000D01*
X201150000Y-44110000D02*
X194730000Y-44110000D01*
X193310000Y-37520000D02*
X193070000Y-37190000D01*
X193550000Y-37190000D01*
X193310000Y-37520000D01*
G36*
X193310000Y-37520000D02*
G01*
X193070000Y-37190000D01*
X193550000Y-37190000D01*
X193310000Y-37520000D01*
G37*
%TO.C,D7*%
X232590000Y-38250000D02*
X241100000Y-38250000D01*
X232590000Y-44750000D02*
X232590000Y-38250000D01*
X232590000Y-44750000D02*
X241100000Y-44750000D01*
%TO.C,C21*%
X154788748Y-24590000D02*
X156211252Y-24590000D01*
X154788748Y-26410000D02*
X156211252Y-26410000D01*
%TO.C,R26*%
X176652500Y-49237258D02*
X176652500Y-48762742D01*
X177697500Y-49237258D02*
X177697500Y-48762742D01*
%TO.C,R3*%
X234822936Y-32790000D02*
X239177064Y-32790000D01*
X234822936Y-36210000D02*
X239177064Y-36210000D01*
%TO.C,U5*%
X159150000Y-30590000D02*
X162910000Y-30590000D01*
X159150000Y-37410000D02*
X162910000Y-37410000D01*
X162910000Y-30590000D02*
X162910000Y-31850000D01*
X162910000Y-37410000D02*
X162910000Y-36150000D01*
X157870000Y-30690000D02*
X157630000Y-30360000D01*
X158110000Y-30360000D01*
X157870000Y-30690000D01*
G36*
X157870000Y-30690000D02*
G01*
X157630000Y-30360000D01*
X158110000Y-30360000D01*
X157870000Y-30690000D01*
G37*
%TO.C,J3*%
X144600000Y-54800000D02*
X159300000Y-54800000D01*
X144600000Y-64000000D02*
X144600000Y-54800000D01*
X153400000Y-64000000D02*
X144600000Y-64000000D01*
X158450000Y-54600000D02*
X159500000Y-54600000D01*
X159300000Y-54800000D02*
X159300000Y-57400000D01*
X159300000Y-61300000D02*
X159300000Y-64000000D01*
X159300000Y-64000000D02*
X157400000Y-64000000D01*
X159500000Y-55650000D02*
X159500000Y-54600000D01*
%TO.C,R19*%
X190152500Y-39737258D02*
X190152500Y-39262742D01*
X191197500Y-39737258D02*
X191197500Y-39262742D01*
%TO.C,R41*%
X157677500Y-51037258D02*
X157677500Y-50562742D01*
X158722500Y-51037258D02*
X158722500Y-50562742D01*
%TO.C,R34*%
X262762742Y-17977500D02*
X263237258Y-17977500D01*
X262762742Y-19022500D02*
X263237258Y-19022500D01*
%TD*%
M02*
