M48
; DRILL file {KiCad 8.0.0-1.fc39} date 2024-03-15T22:48:59+0100
; FORMAT={-:-/ absolute / inch / decimal}
; #@! TF.CreationDate,2024-03-15T22:48:59+01:00
; #@! TF.GenerationSoftware,Kicad,Pcbnew,8.0.0-1.fc39
; #@! TF.FileFunction,Plated,1,2,PTH
FMAT,2
INCH
; #@! TA.AperFunction,Plated,PTH,ViaDrill
T1C0.0157
; #@! TA.AperFunction,Plated,PTH,ComponentDrill
T2C0.0236
; #@! TA.AperFunction,Plated,PTH,ComponentDrill
T3C0.0394
; #@! TA.AperFunction,Plated,PTH,ComponentDrill
T4C0.0433
; #@! TA.AperFunction,Plated,PTH,ComponentDrill
T5C0.0472
; #@! TA.AperFunction,Plated,PTH,ComponentDrill
T6C0.0512
; #@! TA.AperFunction,Plated,PTH,ComponentDrill
T7C0.0787
; #@! TA.AperFunction,Plated,PTH,ComponentDrill
T8C0.0984
; #@! TA.AperFunction,Plated,PTH,ComponentDrill
T9C0.2559
%
G90
G05
T1
X5.5866Y-0.8425
X5.5866Y-0.9291
X5.6142Y-1.5748
X5.6142Y-1.6693
X5.7323Y-1.9134
X5.7323Y-1.9528
X5.7323Y-1.9921
X5.7323Y-2.0315
X5.7323Y-2.0709
X5.7362Y-0.8425
X5.7559Y-1.2756
X5.7638Y-2.0945
X5.7638Y-2.4094
X5.7638Y-2.4409
X5.7663Y-1.4252
X5.7677Y-0.9921
X5.7953Y-2.4094
X5.7953Y-2.4409
X5.7992Y-0.8543
X5.8031Y-2.0945
X5.811Y-1.3701
X5.811Y-1.7402
X5.8189Y-1.0315
X5.8189Y-1.2598
X5.8268Y-2.4094
X5.8268Y-2.4409
X5.833Y-1.4136
X5.8504Y-1.7008
X5.8504Y-1.7402
X5.8583Y-1.5354
X5.8583Y-1.5984
X5.8583Y-2.4094
X5.8583Y-2.4409
X5.874Y-1.7795
X5.874Y-1.874
X5.9213Y-1.5354
X5.9213Y-1.5984
X5.9213Y-1.7008
X5.9449Y-1.3307
X5.9611Y-1.7003
X5.9633Y-1.4592
X5.9764Y-1.3228
X5.9764Y-1.8425
X5.9843Y-1.1102
X6.0078Y-1.3229
X6.0157Y-1.0866
X6.0215Y-1.2459
X6.0236Y-1.5433
X6.0236Y-1.5906
X6.063Y-1.6614
X6.0787Y-0.9291
X6.0876Y-1.4961
X6.0945Y-1.8976
X6.1496Y-1.5039
X6.1732Y-1.9685
X6.2756Y-1.5354
X6.2756Y-1.5748
X6.2756Y-1.6142
X6.315Y-1.5354
X6.315Y-1.5748
X6.315Y-1.6142
X6.3386Y-1.3583
X6.3543Y-1.5354
X6.3543Y-1.5748
X6.378Y-2.1654
X6.3858Y-2.3465
X6.3858Y-2.378
X6.3937Y-1.8711
X6.4016Y-1.7874
X6.4173Y-2.0276
X6.4173Y-2.3465
X6.4173Y-2.378
X6.4262Y-2.1171
X6.4267Y-2.0773
X6.5109Y-1.1614
X6.5118Y-2.2677
X6.5197Y-1.4961
X6.5197Y-2.2205
X6.5276Y-2.1654
X6.5354Y-2.2913
X6.5591Y-1.811
X6.5591Y-1.8504
X6.5591Y-1.8898
X6.5591Y-1.9291
X6.5591Y-2.3228
X6.5906Y-1.7795
X6.6929Y-2.2047
X6.7003Y-2.1344
X6.7165Y-1.5669
X6.7244Y-2.4331
X6.7323Y-0.9449
X6.7559Y-1.7638
X6.7638Y-0.9163
X6.7717Y-1.122
X6.8051Y-1.5669
X6.8189Y-2.0866
X6.8346Y-2.2598
X6.8346Y-2.2992
X6.8346Y-2.3386
X6.8523Y-1.1441
X6.8582Y-2.0795
X6.8583Y-1.4803
X6.8622Y-2.0404
X6.9094Y-1.2008
X6.9291Y-2.2047
X6.9291Y-2.2677
X6.9354Y-2.099
X6.9685Y-2.0472
X6.9867Y-1.2047
X7.0866Y-2.0079
X7.1457Y-2.185
X7.1496Y-2.4252
X7.185Y-1.2402
X7.185Y-1.8898
X7.2244Y-1.3976
X7.2244Y-1.437
X7.2244Y-1.4764
X7.2244Y-1.5157
X7.2441Y-1.7126
X7.2835Y-1.7126
X7.315Y-2.126
X7.3228Y-1.7126
X7.3465Y-2.4016
X7.3543Y-2.126
X7.378Y-2.5906
X7.3937Y-2.126
X7.5591Y-2.126
X7.5591Y-2.1654
X7.5591Y-2.2047
X7.5787Y-1.437
X7.5984Y-2.126
X7.5984Y-2.1654
X7.5984Y-2.2047
X7.6181Y-1.437
X7.6378Y-2.126
X7.6378Y-2.1654
X7.6378Y-2.2047
X7.6575Y-1.437
X7.7402Y-2.4409
X7.7874Y-2.3071
X8.0787Y-2.2913
X9.3701Y-1.7913
X9.3701Y-1.8307
X9.3701Y-1.8701
X9.3701Y-1.9094
X9.3701Y-1.9488
X9.3701Y-1.9882
X9.3701Y-2.0276
X9.4094Y-1.7913
X9.4094Y-1.8307
X9.4094Y-1.8701
X9.4094Y-1.9094
X9.4094Y-1.9488
X9.4094Y-1.9882
X9.4094Y-2.0276
X9.4488Y-1.7913
X9.4488Y-2.0276
X9.4882Y-1.7913
X9.4882Y-2.0276
X9.5276Y-1.7913
X9.5276Y-2.0276
X9.9528Y-0.7402
X9.9921Y-0.7402
X9.9921Y-0.937
X9.9921Y-0.9764
X10.2047Y-2.5118
X10.2264Y-0.8051
X10.2559Y-0.7283
X10.5118Y-0.8425
X10.5118Y-0.8819
X10.5118Y-0.9685
X10.5118Y-1.0079
X10.5118Y-1.0472
X10.5118Y-1.0866
X10.5118Y-1.126
X10.5118Y-1.1654
T3
X6.3953Y-2.5433
X6.4953Y-2.5433
X6.5035Y-0.7795
X6.5953Y-2.5433
X6.6035Y-0.7795
X6.6953Y-2.5433
X6.7035Y-0.7795
X6.7953Y-2.5433
X6.8035Y-0.7795
X7.5932Y-0.92
X7.5932Y-1.1168
X9.2074Y-0.92
X9.2074Y-1.1168
T4
X8.8228Y-2.378
X8.8228Y-2.5551
X9.0787Y-2.378
X9.0787Y-2.5551
X9.2165Y-2.378
X9.2165Y-2.5551
X9.4724Y-2.378
X9.4724Y-2.5551
X9.6102Y-2.378
X9.6102Y-2.5551
X9.8661Y-2.378
X9.8661Y-2.5551
T5
X8.0709Y-0.9252
X8.0709Y-1.122
X9.685Y-0.9252
X9.685Y-1.122
T6
X5.8155Y-1.8228
X5.8155Y-2.0197
X10.3543Y-0.9252
X10.3543Y-1.122
T7
X8.563Y-1.9488
X8.563Y-2.3425
T8
X6.1949Y-0.8209
X6.1949Y-1.7382
X7.1122Y-0.8209
X7.1122Y-1.7382
T9
X10.2052Y-1.5846
X10.2052Y-2.1752
T2
G00X5.7628Y-0.7657
M15
G01X5.7116Y-0.7657
M16
G05
G00X5.7628Y-1.1059
M15
G01X5.7116Y-1.1059
M16
G05
G00X5.9075Y-0.7657
M15
G01X5.8681Y-0.7657
M16
G05
G00X5.9075Y-1.1059
M15
G01X5.8681Y-1.1059
M16
G05
T3
G00X6.0Y-2.2992
M15
G01X6.0Y-2.378
M16
G05
G00X6.0787Y-2.5236
M15
G01X6.1575Y-2.5236
M16
G05
G00X6.2362Y-2.2992
M15
G01X6.2362Y-2.378
M16
G05
M30
